<mxfile host="app.diagrams.net" modified="2024-03-31T12:54:34.469Z" agent="Mozilla/5.0 (Windows NT 10.0; Win64; x64; rv:124.0) Gecko/20100101 Firefox/124.0" etag="EGIvf1Wgxr-rhTfir1_c" version="24.2.0" type="github">
  <diagram name="Page-1" id="0jOH0r6PuXYf-1i1e9H1">
    <mxGraphModel dx="2731" dy="978" grid="1" gridSize="6" guides="1" tooltips="1" connect="1" arrows="1" fold="1" page="1" pageScale="1" pageWidth="4681" pageHeight="3300" math="0" shadow="0">
      <root>
        <mxCell id="0" />
        <mxCell id="1" parent="0" />
        <mxCell id="HCbhHjG9wJuFkNbEep6Y-1" value="" style="rounded=0;whiteSpace=wrap;html=1;" parent="1" vertex="1">
          <mxGeometry x="14" y="56" width="322" height="60" as="geometry" />
        </mxCell>
        <mxCell id="HCbhHjG9wJuFkNbEep6Y-8" style="edgeStyle=orthogonalEdgeStyle;rounded=0;orthogonalLoop=1;jettySize=auto;html=1;" parent="1" source="HCbhHjG9wJuFkNbEep6Y-3" target="HCbhHjG9wJuFkNbEep6Y-9" edge="1">
          <mxGeometry relative="1" as="geometry">
            <mxPoint x="574" y="87" as="targetPoint" />
          </mxGeometry>
        </mxCell>
        <mxCell id="HCbhHjG9wJuFkNbEep6Y-3" value="Restaurant Reservation&amp;nbsp; API" style="text;strokeColor=none;align=center;fillColor=none;html=1;verticalAlign=middle;whiteSpace=wrap;rounded=0;" parent="1" vertex="1">
          <mxGeometry x="14" y="58" width="322" height="58" as="geometry" />
        </mxCell>
        <mxCell id="HCbhHjG9wJuFkNbEep6Y-11" style="edgeStyle=orthogonalEdgeStyle;rounded=0;orthogonalLoop=1;jettySize=auto;html=1;" parent="1" source="HCbhHjG9wJuFkNbEep6Y-9" target="HCbhHjG9wJuFkNbEep6Y-12" edge="1">
          <mxGeometry relative="1" as="geometry">
            <mxPoint x="728" y="56" as="targetPoint" />
          </mxGeometry>
        </mxCell>
        <mxCell id="HCbhHjG9wJuFkNbEep6Y-25" style="edgeStyle=orthogonalEdgeStyle;rounded=0;orthogonalLoop=1;jettySize=auto;html=1;entryX=0;entryY=0.5;entryDx=0;entryDy=0;" parent="1" source="HCbhHjG9wJuFkNbEep6Y-9" target="HCbhHjG9wJuFkNbEep6Y-17" edge="1">
          <mxGeometry relative="1" as="geometry">
            <Array as="points">
              <mxPoint x="534" y="868" />
            </Array>
          </mxGeometry>
        </mxCell>
        <mxCell id="HCbhHjG9wJuFkNbEep6Y-45" value="/reservation" style="edgeLabel;html=1;align=center;verticalAlign=middle;resizable=0;points=[];" parent="HCbhHjG9wJuFkNbEep6Y-25" vertex="1" connectable="0">
          <mxGeometry x="0.9009" y="3" relative="1" as="geometry">
            <mxPoint as="offset" />
          </mxGeometry>
        </mxCell>
        <mxCell id="HCbhHjG9wJuFkNbEep6Y-9" value="" style="shape=hexagon;perimeter=hexagonPerimeter2;whiteSpace=wrap;html=1;fixedSize=1;" parent="1" vertex="1">
          <mxGeometry x="476" y="47" width="120" height="80" as="geometry" />
        </mxCell>
        <mxCell id="HCbhHjG9wJuFkNbEep6Y-10" value="Backend System" style="text;html=1;align=center;verticalAlign=middle;whiteSpace=wrap;rounded=0;" parent="1" vertex="1">
          <mxGeometry x="490" y="71" width="88" height="30" as="geometry" />
        </mxCell>
        <mxCell id="HCbhHjG9wJuFkNbEep6Y-12" value="Database" style="shape=cylinder3;whiteSpace=wrap;html=1;boundedLbl=1;backgroundOutline=1;size=15;" parent="1" vertex="1">
          <mxGeometry x="698" y="17" width="60" height="54" as="geometry" />
        </mxCell>
        <mxCell id="HCbhHjG9wJuFkNbEep6Y-53" style="edgeStyle=orthogonalEdgeStyle;rounded=0;orthogonalLoop=1;jettySize=auto;html=1;entryX=0;entryY=0.5;entryDx=0;entryDy=0;" parent="1" source="HCbhHjG9wJuFkNbEep6Y-15" target="HCbhHjG9wJuFkNbEep6Y-52" edge="1">
          <mxGeometry relative="1" as="geometry" />
        </mxCell>
        <mxCell id="HCbhHjG9wJuFkNbEep6Y-55" style="edgeStyle=orthogonalEdgeStyle;rounded=0;orthogonalLoop=1;jettySize=auto;html=1;entryX=0;entryY=0.5;entryDx=0;entryDy=0;" parent="1" source="HCbhHjG9wJuFkNbEep6Y-15" target="HCbhHjG9wJuFkNbEep6Y-54" edge="1">
          <mxGeometry relative="1" as="geometry" />
        </mxCell>
        <mxCell id="HCbhHjG9wJuFkNbEep6Y-15" value="User" style="rounded=0;whiteSpace=wrap;html=1;" parent="1" vertex="1">
          <mxGeometry x="616" y="182" width="120" height="27" as="geometry" />
        </mxCell>
        <mxCell id="HCbhHjG9wJuFkNbEep6Y-16" value="Restaurants" style="rounded=0;whiteSpace=wrap;html=1;" parent="1" vertex="1">
          <mxGeometry x="616" y="532" width="120" height="27" as="geometry" />
        </mxCell>
        <mxCell id="HCbhHjG9wJuFkNbEep6Y-17" value="Reservation" style="rounded=0;whiteSpace=wrap;html=1;" parent="1" vertex="1">
          <mxGeometry x="616" y="854" width="120" height="27" as="geometry" />
        </mxCell>
        <mxCell id="HCbhHjG9wJuFkNbEep6Y-22" style="edgeStyle=orthogonalEdgeStyle;rounded=0;orthogonalLoop=1;jettySize=auto;html=1;exitX=0.5;exitY=1;exitDx=0;exitDy=0;" parent="1" edge="1">
          <mxGeometry relative="1" as="geometry">
            <mxPoint x="662" y="727" as="sourcePoint" />
            <mxPoint x="662" y="727" as="targetPoint" />
          </mxGeometry>
        </mxCell>
        <mxCell id="HCbhHjG9wJuFkNbEep6Y-40" value="" style="endArrow=classic;html=1;rounded=0;entryX=0;entryY=0.5;entryDx=0;entryDy=0;" parent="1" target="HCbhHjG9wJuFkNbEep6Y-16" edge="1">
          <mxGeometry width="50" height="50" relative="1" as="geometry">
            <mxPoint x="534" y="545.13" as="sourcePoint" />
            <mxPoint x="610" y="545.13" as="targetPoint" />
          </mxGeometry>
        </mxCell>
        <mxCell id="HCbhHjG9wJuFkNbEep6Y-44" value="&lt;div&gt;/restaurants&lt;/div&gt;" style="edgeLabel;html=1;align=center;verticalAlign=middle;resizable=0;points=[];" parent="HCbhHjG9wJuFkNbEep6Y-40" vertex="1" connectable="0">
          <mxGeometry x="-0.1158" y="-1" relative="1" as="geometry">
            <mxPoint as="offset" />
          </mxGeometry>
        </mxCell>
        <mxCell id="HCbhHjG9wJuFkNbEep6Y-41" value="" style="endArrow=classic;html=1;rounded=0;entryX=-0.021;entryY=0.377;entryDx=0;entryDy=0;entryPerimeter=0;" parent="1" target="HCbhHjG9wJuFkNbEep6Y-15" edge="1">
          <mxGeometry width="50" height="50" relative="1" as="geometry">
            <mxPoint x="534" y="192" as="sourcePoint" />
            <mxPoint x="616" y="192.87" as="targetPoint" />
          </mxGeometry>
        </mxCell>
        <mxCell id="HCbhHjG9wJuFkNbEep6Y-43" value="/users" style="edgeLabel;html=1;align=center;verticalAlign=middle;resizable=0;points=[];" parent="HCbhHjG9wJuFkNbEep6Y-41" vertex="1" connectable="0">
          <mxGeometry x="-0.1507" relative="1" as="geometry">
            <mxPoint as="offset" />
          </mxGeometry>
        </mxCell>
        <mxCell id="HCbhHjG9wJuFkNbEep6Y-65" value="" style="edgeStyle=orthogonalEdgeStyle;rounded=0;orthogonalLoop=1;jettySize=auto;html=1;" parent="1" source="HCbhHjG9wJuFkNbEep6Y-52" target="HCbhHjG9wJuFkNbEep6Y-64" edge="1">
          <mxGeometry relative="1" as="geometry">
            <Array as="points">
              <mxPoint x="1170" y="123" />
              <mxPoint x="1170" y="123" />
            </Array>
          </mxGeometry>
        </mxCell>
        <mxCell id="HCbhHjG9wJuFkNbEep6Y-68" value="POST" style="edgeLabel;html=1;align=center;verticalAlign=middle;resizable=0;points=[];" parent="HCbhHjG9wJuFkNbEep6Y-65" vertex="1" connectable="0">
          <mxGeometry x="-0.175" relative="1" as="geometry">
            <mxPoint as="offset" />
          </mxGeometry>
        </mxCell>
        <mxCell id="HCbhHjG9wJuFkNbEep6Y-75" style="edgeStyle=orthogonalEdgeStyle;rounded=0;orthogonalLoop=1;jettySize=auto;html=1;entryX=0;entryY=0.5;entryDx=0;entryDy=0;" parent="1" source="HCbhHjG9wJuFkNbEep6Y-52" target="HCbhHjG9wJuFkNbEep6Y-72" edge="1">
          <mxGeometry relative="1" as="geometry">
            <Array as="points">
              <mxPoint x="954" y="194" />
              <mxPoint x="1206" y="194" />
            </Array>
          </mxGeometry>
        </mxCell>
        <mxCell id="HCbhHjG9wJuFkNbEep6Y-77" value="post/get/delete/:id" style="edgeLabel;html=1;align=center;verticalAlign=middle;resizable=0;points=[];" parent="HCbhHjG9wJuFkNbEep6Y-75" vertex="1" connectable="0">
          <mxGeometry x="0.2729" relative="1" as="geometry">
            <mxPoint as="offset" />
          </mxGeometry>
        </mxCell>
        <mxCell id="HCbhHjG9wJuFkNbEep6Y-52" value="User" style="rounded=0;whiteSpace=wrap;html=1;" parent="1" vertex="1">
          <mxGeometry x="894" y="108" width="120" height="30" as="geometry" />
        </mxCell>
        <mxCell id="HCbhHjG9wJuFkNbEep6Y-67" value="" style="edgeStyle=orthogonalEdgeStyle;rounded=0;orthogonalLoop=1;jettySize=auto;html=1;" parent="1" source="HCbhHjG9wJuFkNbEep6Y-54" target="HCbhHjG9wJuFkNbEep6Y-66" edge="1">
          <mxGeometry relative="1" as="geometry">
            <Array as="points">
              <mxPoint x="1098" y="280" />
              <mxPoint x="1098" y="280" />
            </Array>
          </mxGeometry>
        </mxCell>
        <mxCell id="HCbhHjG9wJuFkNbEep6Y-79" value="post" style="edgeLabel;html=1;align=center;verticalAlign=middle;resizable=0;points=[];" parent="HCbhHjG9wJuFkNbEep6Y-67" vertex="1" connectable="0">
          <mxGeometry x="-0.2049" relative="1" as="geometry">
            <mxPoint x="79" as="offset" />
          </mxGeometry>
        </mxCell>
        <mxCell id="HCbhHjG9wJuFkNbEep6Y-84" style="edgeStyle=orthogonalEdgeStyle;rounded=0;orthogonalLoop=1;jettySize=auto;html=1;entryX=0;entryY=0.5;entryDx=0;entryDy=0;" parent="1" source="HCbhHjG9wJuFkNbEep6Y-54" target="HCbhHjG9wJuFkNbEep6Y-81" edge="1">
          <mxGeometry relative="1" as="geometry">
            <Array as="points">
              <mxPoint x="954" y="351" />
            </Array>
          </mxGeometry>
        </mxCell>
        <mxCell id="HCbhHjG9wJuFkNbEep6Y-87" value="post/put/get/:id" style="edgeLabel;html=1;align=center;verticalAlign=middle;resizable=0;points=[];" parent="HCbhHjG9wJuFkNbEep6Y-84" vertex="1" connectable="0">
          <mxGeometry x="-0.1667" y="1" relative="1" as="geometry">
            <mxPoint x="4" y="1" as="offset" />
          </mxGeometry>
        </mxCell>
        <mxCell id="HCbhHjG9wJuFkNbEep6Y-85" style="edgeStyle=orthogonalEdgeStyle;rounded=0;orthogonalLoop=1;jettySize=auto;html=1;entryX=0;entryY=0.5;entryDx=0;entryDy=0;" parent="1" source="HCbhHjG9wJuFkNbEep6Y-54" target="HCbhHjG9wJuFkNbEep6Y-82" edge="1">
          <mxGeometry relative="1" as="geometry">
            <Array as="points">
              <mxPoint x="954" y="411" />
            </Array>
          </mxGeometry>
        </mxCell>
        <mxCell id="HCbhHjG9wJuFkNbEep6Y-89" value="post/get/delete/put/:id" style="edgeLabel;html=1;align=center;verticalAlign=middle;resizable=0;points=[];" parent="HCbhHjG9wJuFkNbEep6Y-85" vertex="1" connectable="0">
          <mxGeometry x="0.167" relative="1" as="geometry">
            <mxPoint as="offset" />
          </mxGeometry>
        </mxCell>
        <mxCell id="HCbhHjG9wJuFkNbEep6Y-86" style="edgeStyle=orthogonalEdgeStyle;rounded=0;orthogonalLoop=1;jettySize=auto;html=1;entryX=0;entryY=0.5;entryDx=0;entryDy=0;" parent="1" source="HCbhHjG9wJuFkNbEep6Y-54" target="HCbhHjG9wJuFkNbEep6Y-83" edge="1">
          <mxGeometry relative="1" as="geometry">
            <Array as="points">
              <mxPoint x="954" y="469" />
            </Array>
          </mxGeometry>
        </mxCell>
        <mxCell id="HCbhHjG9wJuFkNbEep6Y-91" value="post/put/delete?/:id" style="edgeLabel;html=1;align=center;verticalAlign=middle;resizable=0;points=[];" parent="HCbhHjG9wJuFkNbEep6Y-86" vertex="1" connectable="0">
          <mxGeometry x="0.2706" relative="1" as="geometry">
            <mxPoint as="offset" />
          </mxGeometry>
        </mxCell>
        <mxCell id="HCbhHjG9wJuFkNbEep6Y-94" style="edgeStyle=orthogonalEdgeStyle;rounded=0;orthogonalLoop=1;jettySize=auto;html=1;entryX=0;entryY=0.5;entryDx=0;entryDy=0;" parent="1" source="HCbhHjG9wJuFkNbEep6Y-54" target="HCbhHjG9wJuFkNbEep6Y-92" edge="1">
          <mxGeometry relative="1" as="geometry">
            <Array as="points">
              <mxPoint x="954" y="531" />
            </Array>
          </mxGeometry>
        </mxCell>
        <mxCell id="HCbhHjG9wJuFkNbEep6Y-96" value="post/put/delete/get/:id" style="edgeLabel;html=1;align=center;verticalAlign=middle;resizable=0;points=[];" parent="HCbhHjG9wJuFkNbEep6Y-94" vertex="1" connectable="0">
          <mxGeometry x="0.2205" relative="1" as="geometry">
            <mxPoint x="40" as="offset" />
          </mxGeometry>
        </mxCell>
        <mxCell id="HCbhHjG9wJuFkNbEep6Y-54" value="Restaurant/ admin" style="rounded=0;whiteSpace=wrap;html=1;" parent="1" vertex="1">
          <mxGeometry x="894" y="336" width="120" height="30" as="geometry" />
        </mxCell>
        <mxCell id="HCbhHjG9wJuFkNbEep6Y-56" value="&lt;div&gt;limits for each table &lt;br&gt;&lt;/div&gt;&lt;div&gt;for example &lt;br&gt;&lt;/div&gt;&lt;div&gt;table capacity : 2 ; 4; 6;10 &lt;br&gt;&lt;/div&gt;&lt;div&gt;&lt;br&gt;&lt;/div&gt;&lt;div&gt;if i am selecting 14 &lt;br&gt;&lt;/div&gt;&lt;div&gt;return warning&lt;br&gt;&lt;/div&gt;" style="rounded=0;whiteSpace=wrap;html=1;" parent="1" vertex="1">
          <mxGeometry x="490" y="1224" width="120" height="138" as="geometry" />
        </mxCell>
        <mxCell id="HCbhHjG9wJuFkNbEep6Y-57" value="Table" style="text;html=1;align=center;verticalAlign=middle;resizable=0;points=[];autosize=1;strokeColor=none;fillColor=none;" parent="1" vertex="1">
          <mxGeometry x="530" y="1186" width="48" height="30" as="geometry" />
        </mxCell>
        <mxCell id="HCbhHjG9wJuFkNbEep6Y-64" value="&lt;div&gt;as user :login/sign up&lt;/div&gt;" style="whiteSpace=wrap;html=1;rounded=0;" parent="1" vertex="1">
          <mxGeometry x="1206" y="108" width="120" height="30" as="geometry" />
        </mxCell>
        <mxCell id="HCbhHjG9wJuFkNbEep6Y-66" value="&lt;div&gt;as restaurant:&lt;/div&gt;&lt;div&gt;login/sign up(admin panel)&lt;/div&gt;" style="whiteSpace=wrap;html=1;rounded=0;" parent="1" vertex="1">
          <mxGeometry x="1206" y="258" width="120" height="43.5" as="geometry" />
        </mxCell>
        <mxCell id="HCbhHjG9wJuFkNbEep6Y-72" value="reservation" style="whiteSpace=wrap;html=1;" parent="1" vertex="1">
          <mxGeometry x="1206" y="180.5" width="120" height="30" as="geometry" />
        </mxCell>
        <mxCell id="HCbhHjG9wJuFkNbEep6Y-81" value="restaurant" style="whiteSpace=wrap;html=1;" parent="1" vertex="1">
          <mxGeometry x="1206" y="336" width="120" height="30" as="geometry" />
        </mxCell>
        <mxCell id="HCbhHjG9wJuFkNbEep6Y-82" value="tables" style="whiteSpace=wrap;html=1;" parent="1" vertex="1">
          <mxGeometry x="1206" y="396" width="120" height="30" as="geometry" />
        </mxCell>
        <mxCell id="HCbhHjG9wJuFkNbEep6Y-83" value="opening hours" style="whiteSpace=wrap;html=1;" parent="1" vertex="1">
          <mxGeometry x="1206" y="454" width="120" height="30" as="geometry" />
        </mxCell>
        <mxCell id="HCbhHjG9wJuFkNbEep6Y-92" value="cuisines" style="whiteSpace=wrap;html=1;" parent="1" vertex="1">
          <mxGeometry x="1206" y="516" width="120" height="30" as="geometry" />
        </mxCell>
        <mxCell id="HCbhHjG9wJuFkNbEep6Y-97" value="&lt;div&gt;50/50&lt;/div&gt;" style="text;html=1;align=center;verticalAlign=middle;resizable=0;points=[];autosize=1;strokeColor=none;fillColor=none;" parent="1" vertex="1">
          <mxGeometry x="1356" y="516" width="54" height="30" as="geometry" />
        </mxCell>
        <mxCell id="HCbhHjG9wJuFkNbEep6Y-102" style="edgeStyle=orthogonalEdgeStyle;rounded=0;orthogonalLoop=1;jettySize=auto;html=1;" parent="1" source="HCbhHjG9wJuFkNbEep6Y-99" target="HCbhHjG9wJuFkNbEep6Y-101" edge="1">
          <mxGeometry relative="1" as="geometry" />
        </mxCell>
        <mxCell id="HCbhHjG9wJuFkNbEep6Y-99" value="&lt;div&gt;adminstrator &lt;br&gt;&lt;/div&gt;&lt;div&gt;admin&lt;/div&gt;&lt;div&gt;superadmin&lt;br&gt;&lt;/div&gt;" style="whiteSpace=wrap;html=1;" parent="1" vertex="1">
          <mxGeometry x="721.5" y="1230" width="147" height="102" as="geometry" />
        </mxCell>
        <mxCell id="HCbhHjG9wJuFkNbEep6Y-100" value="Roles" style="text;html=1;align=center;verticalAlign=middle;resizable=0;points=[];autosize=1;strokeColor=none;fillColor=none;" parent="1" vertex="1">
          <mxGeometry x="768" y="1186" width="54" height="30" as="geometry" />
        </mxCell>
        <mxCell id="HCbhHjG9wJuFkNbEep6Y-101" value="&lt;div&gt;&lt;font color=&quot;#ff0000&quot;&gt;adminstator &lt;/font&gt;- restoran adminstratoru&lt;/div&gt;&lt;div&gt;&lt;font color=&quot;#ff0000&quot;&gt;admin &lt;/font&gt;- restoran sahibi&lt;/div&gt;&lt;div&gt;&lt;font color=&quot;#ff0000&quot;&gt;superadmin&lt;/font&gt;- Shumen&lt;br&gt;&lt;/div&gt;" style="text;html=1;align=center;verticalAlign=middle;resizable=0;points=[];autosize=1;fillColor=#f5f5f5;fontColor=#333333;strokeColor=#666666;" parent="1" vertex="1">
          <mxGeometry x="930" y="1251" width="216" height="60" as="geometry" />
        </mxCell>
        <mxCell id="HCbhHjG9wJuFkNbEep6Y-104" value="&lt;div style=&quot;font-size: 30px;&quot;&gt;Permissons&lt;/div&gt;" style="text;html=1;align=center;verticalAlign=middle;resizable=0;points=[];autosize=1;strokeColor=none;fillColor=none;" parent="1" vertex="1">
          <mxGeometry x="518" y="1542" width="180" height="54" as="geometry" />
        </mxCell>
        <mxCell id="HCbhHjG9wJuFkNbEep6Y-108" value="" style="edgeStyle=orthogonalEdgeStyle;rounded=0;orthogonalLoop=1;jettySize=auto;html=1;" parent="1" source="HCbhHjG9wJuFkNbEep6Y-106" target="HCbhHjG9wJuFkNbEep6Y-107" edge="1">
          <mxGeometry relative="1" as="geometry">
            <Array as="points">
              <mxPoint x="108" y="1659" />
            </Array>
          </mxGeometry>
        </mxCell>
        <mxCell id="HCbhHjG9wJuFkNbEep6Y-112" style="edgeStyle=orthogonalEdgeStyle;rounded=0;orthogonalLoop=1;jettySize=auto;html=1;" parent="1" source="HCbhHjG9wJuFkNbEep6Y-106" target="HCbhHjG9wJuFkNbEep6Y-109" edge="1">
          <mxGeometry relative="1" as="geometry" />
        </mxCell>
        <mxCell id="HCbhHjG9wJuFkNbEep6Y-113" style="edgeStyle=orthogonalEdgeStyle;rounded=0;orthogonalLoop=1;jettySize=auto;html=1;entryX=0;entryY=0.5;entryDx=0;entryDy=0;" parent="1" source="HCbhHjG9wJuFkNbEep6Y-106" target="HCbhHjG9wJuFkNbEep6Y-110" edge="1">
          <mxGeometry relative="1" as="geometry">
            <Array as="points">
              <mxPoint x="102" y="2016" />
            </Array>
          </mxGeometry>
        </mxCell>
        <mxCell id="HCbhHjG9wJuFkNbEep6Y-106" value="Permissions" style="shape=hexagon;perimeter=hexagonPerimeter2;whiteSpace=wrap;html=1;fixedSize=1;" parent="1" vertex="1">
          <mxGeometry x="36" y="1817" width="120" height="62" as="geometry" />
        </mxCell>
        <mxCell id="HCbhHjG9wJuFkNbEep6Y-116" style="edgeStyle=orthogonalEdgeStyle;rounded=0;orthogonalLoop=1;jettySize=auto;html=1;" parent="1" source="HCbhHjG9wJuFkNbEep6Y-107" target="HCbhHjG9wJuFkNbEep6Y-114" edge="1">
          <mxGeometry relative="1" as="geometry" />
        </mxCell>
        <mxCell id="HCbhHjG9wJuFkNbEep6Y-117" value="post/get/delete/:id/put?" style="edgeLabel;html=1;align=center;verticalAlign=middle;resizable=0;points=[];" parent="HCbhHjG9wJuFkNbEep6Y-116" vertex="1" connectable="0">
          <mxGeometry x="-0.1195" relative="1" as="geometry">
            <mxPoint as="offset" />
          </mxGeometry>
        </mxCell>
        <mxCell id="HCbhHjG9wJuFkNbEep6Y-120" style="edgeStyle=orthogonalEdgeStyle;rounded=0;orthogonalLoop=1;jettySize=auto;html=1;entryX=0;entryY=0.5;entryDx=0;entryDy=0;" parent="1" source="HCbhHjG9wJuFkNbEep6Y-107" target="HCbhHjG9wJuFkNbEep6Y-119" edge="1">
          <mxGeometry relative="1" as="geometry">
            <Array as="points">
              <mxPoint x="456" y="1728" />
            </Array>
          </mxGeometry>
        </mxCell>
        <mxCell id="HCbhHjG9wJuFkNbEep6Y-121" value="post/get/put/delete/:id" style="edgeLabel;html=1;align=center;verticalAlign=middle;resizable=0;points=[];" parent="HCbhHjG9wJuFkNbEep6Y-120" vertex="1" connectable="0">
          <mxGeometry x="0.1931" relative="1" as="geometry">
            <mxPoint as="offset" />
          </mxGeometry>
        </mxCell>
        <mxCell id="HCbhHjG9wJuFkNbEep6Y-107" value="Superadmin" style="whiteSpace=wrap;html=1;" parent="1" vertex="1">
          <mxGeometry x="392" y="1639" width="120" height="41" as="geometry" />
        </mxCell>
        <mxCell id="HCbhHjG9wJuFkNbEep6Y-123" style="edgeStyle=orthogonalEdgeStyle;rounded=0;orthogonalLoop=1;jettySize=auto;html=1;entryX=0;entryY=0.5;entryDx=0;entryDy=0;" parent="1" source="HCbhHjG9wJuFkNbEep6Y-109" target="HCbhHjG9wJuFkNbEep6Y-122" edge="1">
          <mxGeometry relative="1" as="geometry" />
        </mxCell>
        <mxCell id="HCbhHjG9wJuFkNbEep6Y-125" value="Text" style="edgeLabel;html=1;align=center;verticalAlign=middle;resizable=0;points=[];" parent="HCbhHjG9wJuFkNbEep6Y-123" vertex="1" connectable="0">
          <mxGeometry x="-0.0348" relative="1" as="geometry">
            <mxPoint as="offset" />
          </mxGeometry>
        </mxCell>
        <mxCell id="HCbhHjG9wJuFkNbEep6Y-109" value="&lt;div&gt;admin(restaurant)&lt;/div&gt;" style="whiteSpace=wrap;html=1;" parent="1" vertex="1">
          <mxGeometry x="393" y="1830" width="120" height="36" as="geometry" />
        </mxCell>
        <mxCell id="HCbhHjG9wJuFkNbEep6Y-110" value="&lt;div&gt;adminstrator&lt;/div&gt;" style="whiteSpace=wrap;html=1;" parent="1" vertex="1">
          <mxGeometry x="392" y="1998" width="120" height="36" as="geometry" />
        </mxCell>
        <mxCell id="HCbhHjG9wJuFkNbEep6Y-114" value="&lt;div&gt;all users get /:id /delete&lt;br&gt;&lt;/div&gt;&lt;div&gt;all restaurants /post? /delete / get all /:id&lt;br&gt;&lt;/div&gt;&lt;div&gt;all reservations / get all &lt;br&gt;&lt;/div&gt;&lt;div&gt;all reports&lt;br&gt;&lt;/div&gt;" style="whiteSpace=wrap;html=1;" parent="1" vertex="1">
          <mxGeometry x="698" y="1629.5" width="286" height="60" as="geometry" />
        </mxCell>
        <mxCell id="HCbhHjG9wJuFkNbEep6Y-119" value="cuisines" style="whiteSpace=wrap;html=1;" parent="1" vertex="1">
          <mxGeometry x="698" y="1716" width="120" height="24" as="geometry" />
        </mxCell>
        <mxCell id="HCbhHjG9wJuFkNbEep6Y-122" value="" style="whiteSpace=wrap;html=1;" parent="1" vertex="1">
          <mxGeometry x="698" y="1833" width="120" height="30" as="geometry" />
        </mxCell>
        <mxCell id="RkbVGlUs8AnrElnOnmGY-5" value="&lt;div style=&quot;font-size: 22px;&quot;&gt;&lt;font style=&quot;font-size: 22px;&quot; color=&quot;#ff0000&quot;&gt;restaurant ucun filter endpointi yazilacag&lt;/font&gt;&lt;/div&gt;&lt;div style=&quot;font-size: 22px;&quot;&gt;&lt;font style=&quot;font-size: 22px;&quot; color=&quot;#ff0000&quot;&gt;&lt;br&gt;&lt;/font&gt;&lt;/div&gt;" style="text;html=1;align=center;verticalAlign=middle;resizable=0;points=[];autosize=1;strokeColor=none;fillColor=none;" parent="1" vertex="1">
          <mxGeometry x="1824" y="870" width="420" height="72" as="geometry" />
        </mxCell>
        <mxCell id="RkbVGlUs8AnrElnOnmGY-6" value="&lt;div&gt;filter for : &lt;br&gt;&lt;/div&gt;&lt;div&gt;rating&lt;/div&gt;&lt;div&gt;price&lt;/div&gt;&lt;div&gt;cuisine&lt;/div&gt;&lt;div&gt;setting / moments&lt;/div&gt;&lt;div&gt;trending ???&lt;/div&gt;&lt;div&gt;dishes&lt;/div&gt;&lt;div&gt;dietary requirements&lt;/div&gt;&lt;div&gt;restaurant features&lt;/div&gt;&lt;div&gt;accepted credit cards &lt;br&gt;&lt;/div&gt;" style="whiteSpace=wrap;html=1;" parent="1" vertex="1">
          <mxGeometry x="1914" y="930" width="228" height="186" as="geometry" />
        </mxCell>
        <mxCell id="-_uw1L6G0OaNi2cMLAeL-9" style="edgeStyle=orthogonalEdgeStyle;rounded=0;orthogonalLoop=1;jettySize=auto;html=1;entryX=0;entryY=0.5;entryDx=0;entryDy=0;" edge="1" parent="1" source="-_uw1L6G0OaNi2cMLAeL-1" target="-_uw1L6G0OaNi2cMLAeL-4">
          <mxGeometry relative="1" as="geometry">
            <Array as="points">
              <mxPoint x="66" y="2142" />
            </Array>
          </mxGeometry>
        </mxCell>
        <mxCell id="-_uw1L6G0OaNi2cMLAeL-10" style="edgeStyle=orthogonalEdgeStyle;rounded=0;orthogonalLoop=1;jettySize=auto;html=1;entryX=0;entryY=0.25;entryDx=0;entryDy=0;" edge="1" parent="1" source="-_uw1L6G0OaNi2cMLAeL-1" target="-_uw1L6G0OaNi2cMLAeL-2">
          <mxGeometry relative="1" as="geometry" />
        </mxCell>
        <mxCell id="-_uw1L6G0OaNi2cMLAeL-11" style="edgeStyle=orthogonalEdgeStyle;rounded=0;orthogonalLoop=1;jettySize=auto;html=1;entryX=0;entryY=0.5;entryDx=0;entryDy=0;" edge="1" parent="1" source="-_uw1L6G0OaNi2cMLAeL-1" target="-_uw1L6G0OaNi2cMLAeL-6">
          <mxGeometry relative="1" as="geometry" />
        </mxCell>
        <mxCell id="-_uw1L6G0OaNi2cMLAeL-12" style="edgeStyle=orthogonalEdgeStyle;rounded=0;orthogonalLoop=1;jettySize=auto;html=1;entryX=0;entryY=0.5;entryDx=0;entryDy=0;" edge="1" parent="1" source="-_uw1L6G0OaNi2cMLAeL-1" target="-_uw1L6G0OaNi2cMLAeL-5">
          <mxGeometry relative="1" as="geometry">
            <Array as="points">
              <mxPoint x="168" y="2308" />
              <mxPoint x="168" y="2394" />
            </Array>
          </mxGeometry>
        </mxCell>
        <mxCell id="-_uw1L6G0OaNi2cMLAeL-13" style="edgeStyle=orthogonalEdgeStyle;rounded=0;orthogonalLoop=1;jettySize=auto;html=1;entryX=0;entryY=0.5;entryDx=0;entryDy=0;" edge="1" parent="1" source="-_uw1L6G0OaNi2cMLAeL-1" target="-_uw1L6G0OaNi2cMLAeL-7">
          <mxGeometry relative="1" as="geometry">
            <Array as="points">
              <mxPoint x="66" y="2478" />
            </Array>
          </mxGeometry>
        </mxCell>
        <mxCell id="-_uw1L6G0OaNi2cMLAeL-1" value="Restaurant search" style="shape=hexagon;perimeter=hexagonPerimeter2;whiteSpace=wrap;html=1;fixedSize=1;" vertex="1" parent="1">
          <mxGeometry y="2268" width="120" height="80" as="geometry" />
        </mxCell>
        <mxCell id="-_uw1L6G0OaNi2cMLAeL-2" value="Time" style="whiteSpace=wrap;html=1;" vertex="1" parent="1">
          <mxGeometry x="216" y="2196" width="120" height="60" as="geometry" />
        </mxCell>
        <mxCell id="-_uw1L6G0OaNi2cMLAeL-4" value="Number of guests" style="whiteSpace=wrap;html=1;" vertex="1" parent="1">
          <mxGeometry x="216" y="2112" width="120" height="60" as="geometry" />
        </mxCell>
        <mxCell id="-_uw1L6G0OaNi2cMLAeL-5" value="Location" style="whiteSpace=wrap;html=1;" vertex="1" parent="1">
          <mxGeometry x="216" y="2364" width="120" height="60" as="geometry" />
        </mxCell>
        <mxCell id="-_uw1L6G0OaNi2cMLAeL-6" value="Date" style="whiteSpace=wrap;html=1;" vertex="1" parent="1">
          <mxGeometry x="216" y="2278" width="120" height="60" as="geometry" />
        </mxCell>
        <mxCell id="-_uw1L6G0OaNi2cMLAeL-7" value="Location" style="whiteSpace=wrap;html=1;" vertex="1" parent="1">
          <mxGeometry x="216" y="2448" width="120" height="60" as="geometry" />
        </mxCell>
        <mxCell id="-_uw1L6G0OaNi2cMLAeL-21" style="edgeStyle=orthogonalEdgeStyle;rounded=0;orthogonalLoop=1;jettySize=auto;html=1;entryX=0;entryY=0.5;entryDx=0;entryDy=0;" edge="1" parent="1" source="-_uw1L6G0OaNi2cMLAeL-15" target="-_uw1L6G0OaNi2cMLAeL-16">
          <mxGeometry relative="1" as="geometry">
            <Array as="points">
              <mxPoint x="66" y="2604" />
            </Array>
          </mxGeometry>
        </mxCell>
        <mxCell id="-_uw1L6G0OaNi2cMLAeL-26" style="edgeStyle=orthogonalEdgeStyle;rounded=0;orthogonalLoop=1;jettySize=auto;html=1;entryX=0;entryY=0.5;entryDx=0;entryDy=0;" edge="1" parent="1" source="-_uw1L6G0OaNi2cMLAeL-15" target="-_uw1L6G0OaNi2cMLAeL-18">
          <mxGeometry relative="1" as="geometry" />
        </mxCell>
        <mxCell id="-_uw1L6G0OaNi2cMLAeL-27" style="edgeStyle=orthogonalEdgeStyle;rounded=0;orthogonalLoop=1;jettySize=auto;html=1;entryX=0;entryY=0.5;entryDx=0;entryDy=0;" edge="1" parent="1" source="-_uw1L6G0OaNi2cMLAeL-15" target="-_uw1L6G0OaNi2cMLAeL-22">
          <mxGeometry relative="1" as="geometry" />
        </mxCell>
        <mxCell id="-_uw1L6G0OaNi2cMLAeL-28" style="edgeStyle=orthogonalEdgeStyle;rounded=0;orthogonalLoop=1;jettySize=auto;html=1;entryX=0;entryY=0.5;entryDx=0;entryDy=0;" edge="1" parent="1" source="-_uw1L6G0OaNi2cMLAeL-15" target="-_uw1L6G0OaNi2cMLAeL-25">
          <mxGeometry relative="1" as="geometry">
            <Array as="points">
              <mxPoint x="66" y="2886" />
            </Array>
          </mxGeometry>
        </mxCell>
        <mxCell id="-_uw1L6G0OaNi2cMLAeL-15" value="Dining" style="shape=hexagon;perimeter=hexagonPerimeter2;whiteSpace=wrap;html=1;fixedSize=1;" vertex="1" parent="1">
          <mxGeometry y="2706" width="120" height="80" as="geometry" />
        </mxCell>
        <mxCell id="-_uw1L6G0OaNi2cMLAeL-16" value="Event size" style="whiteSpace=wrap;html=1;" vertex="1" parent="1">
          <mxGeometry x="216" y="2574" width="120" height="60" as="geometry" />
        </mxCell>
        <mxCell id="-_uw1L6G0OaNi2cMLAeL-18" value="&lt;div&gt;(Preferred neighborhood ??)&lt;/div&gt;&lt;div&gt;Seating capacity&lt;br&gt;&lt;/div&gt;" style="whiteSpace=wrap;html=1;" vertex="1" parent="1">
          <mxGeometry x="216" y="2664" width="120" height="60" as="geometry" />
        </mxCell>
        <mxCell id="-_uw1L6G0OaNi2cMLAeL-22" value="Cuisine" style="whiteSpace=wrap;html=1;" vertex="1" parent="1">
          <mxGeometry x="216" y="2760" width="120" height="60" as="geometry" />
        </mxCell>
        <mxCell id="-_uw1L6G0OaNi2cMLAeL-25" value="Price" style="whiteSpace=wrap;html=1;" vertex="1" parent="1">
          <mxGeometry x="216" y="2856" width="120" height="60" as="geometry" />
        </mxCell>
        <mxCell id="-_uw1L6G0OaNi2cMLAeL-29" value="" style="shape=image;verticalLabelPosition=bottom;labelBackgroundColor=default;verticalAlign=top;aspect=fixed;imageAspect=0;image=data:image/jpeg,/9j/4AAQSkZJRgABAQEAlgCWAAD/2wBDAAoHBwgHBgoICAgLCgoLDhgQDg0NDh0VFhEYIx8lJCIfIiEmKzcvJik0KSEiMEExNDk7Pj4+JS5ESUM8SDc9Pjv/2wBDAQoLCw4NDhwQEBw7KCIoOzs7Ozs7Ozs7Ozs7Ozs7Ozs7Ozs7Ozs7Ozs7Ozs7Ozs7Ozs7Ozs7Ozs7Ozs7Ozs7Ozv/wAARCARnA8wDASIAAhEBAxEB/8QAHwAAAQUBAQEBAQEAAAAAAAAAAAECAwQFBgcICQoL/8QAtRAAAgEDAwIEAwUFBAQAAAF9AQIDAAQRBRIhMUEGE1FhByJxFDKBkaEII0KxwRVS0fAkM2JyggkKFhcYGRolJicoKSo0NTY3ODk6Q0RFRkdISUpTVFVWV1hZWmNkZWZnaGlqc3R1dnd4eXqDhIWGh4iJipKTlJWWl5iZmqKjpKWmp6ipqrKztLW2t7i5usLDxMXGx8jJytLT1NXW19jZ2uHi4+Tl5ufo6erx8vP09fb3+Pn6/8QAHwEAAwEBAQEBAQEBAQAAAAAAAAECAwQFBgcICQoL/8QAtREAAgECBAQDBAcFBAQAAQJ3AAECAxEEBSExBhJBUQdhcRMiMoEIFEKRobHBCSMzUvAVYnLRChYkNOEl8RcYGRomJygpKjU2Nzg5OkNERUZHSElKU1RVVldYWVpjZGVmZ2hpanN0dXZ3eHl6goOEhYaHiImKkpOUlZaXmJmaoqOkpaanqKmqsrO0tba3uLm6wsPExcbHyMnK0tPU1dbX2Nna4uPk5ebn6Onq8vP09fb3+Pn6/9oADAMBAAIRAxEAPwD2aiiigAooooAKKKKACiiigAooooAKKKKACiiigAooooAKKKKACiiigAooooAKKKKACiiigAooooAKKKKACiiigAooooAKKKKACiiigAooooASuLl8WeIJ9Yv7LS9Hiuks5NjMZMH2rta8ymkeKHxs8bsjiRcMpwR+NY1W1azPSy+nCblzRT2te/VpdLG3/bnjX/oW4f8Av/R/bnjX/oW4f+/9eVf2lqH/AD/3X/f9v8aX+0tQ/wCf+6/7/t/jXD9a9fw/yPqf7BfaH3S/+SPVP7c8a/8AQtw/9/6P7c8a/wDQtw/9/wCvKv7Sv/8An/uv+/7f40v9pah/z/3X/f8Ab/Gj616/gH9gvtD7pf8AyR6p/bnjX/oW4f8Av/R/bnjX/oW4f+/9eV/2lqH/AD/3X/f9v8aT+09Q/wCf+6/7/t/jR9a9fwD+wX2h90v/AJI9V/t3xr/0LcP/AH/o/tzxr/0LcP8A3/ryr+0tQ/5/7r/v+3+NL/aWof8AP/df9/2/xo+tev4f5B/YL7Q+6X/yR6p/bnjX/oW4f+/9L/bnjX/oW4f+/wDXlP8AaWof8/8Adf8Af9v8aX+0tQ/5/wC6/wC/7f40fWvX8P8AIP7BfaH3S/8Akj1T+3PGv/Qtw/8Af+j+3PGv/Qtw/wDf+vKv7S1D/n/uv+/7f41Z07Ub9tTtQb66IMy5Bmbnn601ibu2v4f5EzyNxi5Whp5S/wDkj2vQb+91CwaTUbVbW4SQo0atuAwB3/GtOqOm/fvf+vlv5LV6vRjsfF1rc7srBRRRVGQUUUUAFFFFABRRRQAUUUUAFFFFABRRRQAUUUUAFFFFABRRRQAUUUUAFFFFABRRRQAUUUUAFFFFABRRRQAUUUUAFFFFABRRRQAUUUUAFFFFABRRRQAUUUUAFFFFABRRRQAUUUUAFFFFABRRRQAUUUUAFFFFABRRRQAUUUUAFFFFABRRRQAUUUUAFFFFABRRRQAUUUUAFFFFABRRRQAUUUUAFFFFABRRRQAUUUUAFFFFABRRRQAUUUUAFFFFABRRRQAUUUUAFFFFABRRRQAUUUUAFeYXP/Ht43/66LXp9eY3P/Ht43/66LWFbp8/yPWyz4pf9u/+lI8+pKWkrxD9PCiit7SvC8txbf2hqkw07TxyZJPvP7KO9VGDk7Iwr4inQjzVH/wfQybKxutRultrOB5pW6Ko/nXSCw0LwuAdXxqmoHraQt8kX+8e5qve+J4rS2bTvDkBsrY8POf9dL9T2rnCSSSSSTySe9a3hT21f4HDyYjF61Lwh2XxP1fT0R01z4btNVt2vvDMxmUDMllIf3sf09RXOLBM04t1iczFtvl4+bPpiltrmezuFuLaZ4ZUOVdDgiuw0jxHpOrajay67CLa+gcMl5EMB8dnH9aaUKj7MicsVg4vT2kendevdfic7/wjmt/9Aq6/79mqd1Z3NjL5V3BJBJjO11wcVsaz4k1caxeeRq1wIvObZskOMdsVZ8dyPLqGnySMWdrGMsx6k4pShDlbj0Ko4nE+1pxqpWmm9L9EcvVrTP8AkKWn/XZP51Vq1pv/ACFLT/rsn86xj8SPRr/wpejPeNN+/e/9fLfyWr1UdN+/e/8AXy38lq9X0Edj8jq/EFFFFMzCiiigAooooAKKKKACiiigAooooAKKKKACiiigAooooAKKKKACiiigAooooAKKKKACiiigAooooAKKKKACiiigAooooAKKKKACiiigAooooAKKKKACiiigAooooAKKKKACiiigAooooAKKKKACiiigAooooAKKKKACiiigAooooAKKKKACiiigAooooAKKKKACiiigAooooAKKKKACiiigAooooAKKKKACiiigAooooAKKKKACiiigAooooAKKKKACiiigAooooAKKKKACiiigArzG5/49vG//AF0WvTq8xuf+Pbxv/wBdFrCt0+f5HrZZ8Uv+3f8A0pHn1WdP0681S6W2soGmkPYDge5PamWgtTcr9taUQZ+bygCx+ma7VPFfhe30o6daWV/aRN994Sod/q1eVThGWsnY++xuKrUly0abk316IzxBovhPDXJj1XVR0iU5ihPue5rB1XWL7Wbnz72cuR91BwqD0ArbutN8PXfhu81PS47yOS2kVT57g5zXLVVVtaLbyMcBCnUbqyu5p2bl09F0QUV0MHgvVJ/Dba2oXywN4i/jZB3rFtLVryTYrY5A/M4rJ05K11udsMZQmpOMr8rsyCirVxYPbQiVnBBKjGPUZ/pWraeEbu58Mz66Z0jhjBKpjJbH8qFTk3ZIJ4yhCCnKWjdvmYB6cV2Wp2KeLrO1vNInWS6tbZYpbN+H+UdV9a43tXYJa+HtDsNMvboah9ruYvND28gG3mtaOqaexxZk3CVOcL8+trK/TW5yMkbwyNHKjI6nDKwwRVjTP+Qpaf8AXZP511eueIvC2uWwE1leLdIuFuQF3H/e9a5TTsDVrXaSR564J+tTKCjNWdzWliKlbDy9pBxdnv8Aoe8ab9+9/wCvlv5LV6qOm/fvf+vlv5LV6vbjsfmFX4hskiRRtJIwVEBLMTgAetYyeM/DEpUJr+ntuOBi4XBP51d1v/kBX/8A17Sf+gmvLvCfibw5ZfCSLTtUmjmmkWVFtChZnZmbaBxjPIpmZ6vdX1pZWb3l1cxQ2yDc0zuAgHrmsweM/DJGRrtiQe4nFcPdaXqej/AS5stW3C5SHOxjkxqXBCn6Cum8L+K9CTw/pdodSj84W8abNrfewBjpQB0F7rGm6bAk99f29tFJ9xpZAob6Z61AniXQ5LOS8TVrRreIgPIJQQpJwM+nNcd4mjfQ/iXZeKNUtpbnR1tDAJUj8wWkmfvEdgfUetdrpcuj6gp1TSzaTeeMNcQBcuPQkc/gaAKZ8a+FwwU6/p4Y9Abhcn8M1dstc0rUYZZrPULeeOAZldJAQg68ntXC+LP+SzeFP+uT/wBa2fiZqMtv4aXSrRsXmsTrZxY6gMfmP5fzoA6bT9TsNWtvtOnXkF3DuK+ZDIHXI7ZFINUsG1I6aLyA3qpvNv5g8wL67euK4XwlBH4O+IWo+FUGyyv4EvLMdtwG1wPrg/8AfNR23/Jfrr/sGj+QoA9Av9RstLtjdahdw2sAIUyTOFXJ6DJqHUNc0rSo4pNQ1G2tUn/1TTSBQ/0z161yPxn/AORAk/6+of8A0Ks34jTRW114HnmcJHHdhmY9gAnNAHfWGv6PqsrRWGp2tzIoyUilDMB9KvSyxwRPNM6xxoCzOxwFA6kmvNPEV3Z+LvG2gL4XZZ73TrgTXl3GNoihyMqxPJzzx/jW38Tb6T+w7fQrVv8AStbuUtEH+wT85+mOPxoA6nT9SsdVtRdaddw3cBJUSQuHXI6jIpk+s6XbajFps+oW0V5NzHbvKA7/AEHU9K4nwbHH4U8dat4SX5LSeNbyyXngYwwH5Z/Cuf8AiFodzr/xOjtrGVor2HTTcWzL3kQ5AoA9bvtQs9MtGu7+6itbdMBpZXCqMnA5NUbjxToFpII7jWLOJioYBpQOCMg/QivPPFniVPFPwUuL1gEuo5I4bqLukquM/n1/GvQNL/5Eu0/7Byf+ixQAxfGnheQZTX7Bx6rOprbVg6hlIKkZBHevPPgf/wAk/wD+3yX+S16JQAUUUUAFFFFABRRRQAUUUUAFFFFABRRRQAUUUUAFFFFABRRRQAUUUUAFFFFABRRRQAUUUUAFFFFABRRRQAUUUUAFFFFABRRRQAUUUUAFFFFABRRRQAUUUUAFFFFABRRRQAUUUUAFFFFABRRRQAUUUUAFFFFABRRRQAUUUUAFFFFABRRRQAUUUUAFFFFABRRRQAUUUUAFFFFABRRRQAUUUUAFFFFABRRRQAUUUUAFeY3P/Ht43/66LXp1eY3P/Ht43/66LWFbp8/yPWyz4pf9u/8ApSPPqSlpK8Q/TzpdLIHgHWcn/l4i/lXORhZJUTP3mC/ma6DS+fA2s57Tx1z6N5ciuByrBvyree0fQ8vC3cq/L/N+iPoS1tYo9OitQv7tYgmPbGK8Z0yz8nxBc23XyrhV/wDH69Yg1u2m0SLUhKog8kOzZ6YHIrzTwVd2E3iu5l1GRQLnJj3jguWyPxrvrcrlBHyGW+1hSxErPRL77lLXIvL02I+pj/8AQWrsrPj4SuoGP9HY/wDj1ZPxGk02CKDT7Xy1uInzIiDlV28Z/Ote1H/FqT/16N/6EaiKtUkvI66tRzwdCTVrzPLO1dL4p/5BGgf9eZ/nXMcsOvArpPFCY0jQCCf+PQ/zrih8Ej6bEv8A2ij6v8jnatab/wAhS0/67J/OqmcqTVrS/wDkJ2n/AF2X+dZx3R11nelL0Z7zpv373/r5b+S1eqlp3373/r5b+S1dr347H5LV+Io63/yAr/8A69pP/QTXBeB9Dt/EfwXh024RW81JhGxGSj72wR6EGvSiAwIIBB6g02ONIkCRoqKOiqMAUzM8nfW5dW+B2qW945N9pq/ZLkMcnKsACfw/lXa+GfEOixeGNMjl1mwV1tYwytdICDtHHWuh+zQbXXyY9shy42jDfX1qL+y9PP8Ay4W3/flf8KAM6XxZosWqSaXeXItn8sOj3A2RTKRn5HPytXI+GFik+Kmo3HhtNuhtaj7U0QxA8+f4O2enT3r0SS1t5oxHLBHIi9FZAQPwp0cUcKBIkVFHRVGBQB5z4s/5LN4U/wCuT/1pL9Lrxf8AFfybK8+zQeHYM+b5YkHnP1+U8Zx/KvR2hiaRZGjQuv3WKjI+hoSKONmZI1VnOWIGCfrQB5n8QdM1jRRpni+TVDfyaPcqXUWyxnymOG5Xr2H/AAI1LqE8Oj/E+x8WT5/sbU7ARC7UEpGx5Bb0BGOa9IdEkQpIodT1VhkGkMMTReUY0MeMbCoxj0xQB578R7618UaXa+G9EnS/vLu5jY/ZmEixIpyWZhwBTPiPH5Gs+CIt2THfhc+uNgr0OG1t7bPkQRRZ67EC5/KnPFHIVaSNXKHKllBwfagDz/4gx/8ACNeING8aWy+WsU4tdQ2DG+J+hb1xz+lVmFz4z+Ks02n3wt7bw9bhI5hEsqmV+vB46f8AoNekyRxyoUkRXU9VYZFJHDFEWMUSJuOW2qBmgDzPx3p+reHrzSfF82qG+OnXCxygW6x4iY4OdvX/AOvVppo7j44WE0TBkk0gupHcHkGvRHjSVCkiK6nqrDINNEEQcSCJA6jaGCjIHpQB4n8W9Hu/Dc19dWCH+yte2/aUH3Y51YMG9sjP5mvWNMBHgu0BGD/Zyf8AosVqyRRzJsljWRfRhkU7AxtwMdMUAeefA/8A5J//ANvkv8lr0SmRRRwpsijWNeuFUAU+gAooooAKKKKACiiigAooooAKKKKACiiigAooooAKKKKACiiigAooooAKKKKACiiigAooooAKKKKACiiigAooooAKKKKACiiigAooooAKKKKACiiigAooooAKKKKACiiigAooooAKKKKACiiigAooooAKKKKACiiigAooooAKKKKACiiigAooooAKKKKACiiigAooooAKKKKACiiigAooooAKKKKACiiigAooooAK8xuf+Pbxv/10WvTq8xuf+Pbxv/10WsK3T5/ketlnxS/7d/8ASkefUlLSV4h+nnRaWdvgbWc9DPHXO5HqK6XSwD4C1nI/5eI/5VzWB6VtU2j6Hm4O/tK1v5v0R19qCPhbeNk4+2Cud0bB1ux5H/HxH/6EK6iyXPwmvf8Ar6/qK5jQlB16wGP+XhP/AEIVpPeHojkwz/d4n/FL8jT8fDPjO+b1CH/x0V2cH/JKT/16H/0I1yPxDG3xjdAD+FP5V2EIX/hUZbHP2U/+hGt6f8Sp8zysWv8AY8J6xPJ1OMg103ilh/Y+gcj/AI8z/OubxkV0nihQNI0Agf8ALof51yQfuSPfxKf1ij6v8jmgPkNWdLIGpWnP/LZf51XqzpoB1S14/wCWyfzrOL95HZWjalL0Z7zppy97j/n5b+S1eqjpv373/r5b+S1er3o7H5LV+JhRRRVGYUUUUAFFcZ4113UV1nSPC2jT/ZrzVWLS3IALQwryxUHuQD+VXLrwVCdPZLHVdUt75Vyl2b2R2Ldiyk7SPbAoA6eivINQ8Sazrfw6k1I3EsOq+Hr8Ld/Z5CglVTgkgdc+nTiut8d+ImtfhzJqFjKyT38ccds0Zwd0mOhHfGaAOyoriPhVq13eeEpLbVJpJL3TbmS3naVyzccjJPscfhXO6XqOpal4P8beJzf3IjnMyWIErARIgOCgzx1HI9KAPWaK8s+FHiXUo5E0DX7iSaS7gF3YTyuWMiHquT1xg/rWj4Tv7yf4reKrWa7nkt4VTy4nkJROnQdBQB6FRXmPw1sE8RWGr3OrXN9cyQ6nLFGxvpl2oApAAVgO5rY+IUR0D4b6j/Zc9zbspUrILiRnBLDOGJJ/WgDtqK8y8RWy6F8PbTxDYare2eppbwyKWvJJBO7BcqUdiDnJ6CvQdJuJ7vSLS5uo/LnlhR5E9GIyaALlFFFABRRRQAUUUUAFFFFABRRRQAUUUUAFFFFABRRRQAUUUUAFFFFABRRRQAUUUUAFFFFABRRRQAUUUUAFFFFABRRRQAUUUUAFFFFABRRRQAUUUUAFFFFABRRRQAUUUUAFFFFABRRRQAUUUUAFFFFABRRRQAUUUUAFFFFABRRRQAUUUUAFFFFABRRRQAUUUUAFFFFABRRRQAUUUUAFFFFABRRRQAUUUUAFFFFABRRRQAUUUUAFeY3P/Ht43/66LXp1eY3P/Ht43/66LWFbp8/yPWyz4pf9u/8ApSPPqSlpK8Q/TzptK/5ELWf+viP+VczXTaV/yIWs/wDXxH/KuZrap8MfQ87BfxK3+L9EdzYj/i0l7/18H+YrltAGfEOnj/p5T+ddXYD/AItFef8AXc/zFct4d58R6d/18J/OtZ/FT9EcGGf7rFf4pfka/wARh/xWFx/1zT+Vbmlaqt98L9QtFiZWsotjMejZOaxPiQMeL5v+uafyq74XXPw+8QH1x/Kri2q016nNVhGWW4eT3Tj+ZxHaul8U/wDIH0D/AK8z/Oua7V0vin/kD6B/15n+dc8Pgkexiv8AeaHq/wAjmqtaZ/yFLT/rsv8AOqtWtM/5Clp/12X+dZR+JHZX/hS9Ge8ab9+9/wCvlv5LV6qOm/fvf+vlv5LV6voI7H5HV+IKKKKZmFFFFAHnXixxpPxa8M6xcnZZzwyWZkb7qOd2Oe2Swr0G4nitbeS4ndY4olLOzHAAHU1X1TSbDWrF7HUrWO5t35KSDIz2I9DWO3gXR5YEtrmS/urVOltPeSPF7DaTyKAOY+HOkDV/DniO6njxb67dymIMuMpyA2Px/Suc0e6k16bwl4QmJMmlXcr3i+ixH5M/l+te1QwxW8KQwRrHFGoVEUYCgdgKyLLwfomneI7nxBbWpTULoESSbyQc4zgdBnAoA868VaofBPiHxZChKLrdgtxa4/56k+W2PfLE/hXR3WjDQPgldacV2vHpbmQf7bKWb9Sa6LXfCGi+JLuzutUtTNLZNuiIcr3BwQOoyO9aOpafbatptxp92pe3uYzHIoYglT15FAHmjaBcah8KtA1jS8rq2jwLcW7L1YA/Mv4iovhdq8evfELxDqsSFBcwRuUPVTnBH516fpmm2uj6ZBp1mhS3t02RqzFiB9T1rP0bwfonh/U7zUNMtPInvf8AW4cleueB0HPpQBwnwr0DTNW07Wpr23aSRNWlUETOnGFPRSB3rd+J9pDY/C6/trdCkUYQKpYtj5x3PNaln4D0nTfOGn3OpWaTymWRIL2RVZz1OM+w/Krl14X0+/0KbRr6W7u7Wdgzme4Zn4wcbs5xx0oA8/8AEPhuHR/CGi+LdKiY3OmxQTzQyOZI5EKjcdrEgHnqK9Q06+h1PTre+t2DRXEayKQc8EZpp0y0bSf7KaLdaeR5GwnPyY24z9KZo+kWmhaXDptgrrbQAhFdyxAznGTQBeooooAKKKKACiiigAooooAKKKKACiiigAooooAKKKKACiiigAooooAKKKKACiiigAooooAKKKKACiiigAooooAKKKKACiiigAooooAKKKKACiiigAooooAKKKKACiiigAooooAKKKKACiiigAooooAKKKKACiiigAooooAKKKKACiiigAooooAKKKKACiiigAooooAKKKKACiiigAooooAKKKKACiiigAooooAKKKKACiiigArzG5/49vG//XRa9OrzC5/49vG//XRawrdPn+R62WfFL/t3/wBKR5/SUtJXiH6edLpX/Ig6z/18R1zWR61s6L4km0W0uLVbO3uorhgzrOuRkVd/4TNf+gBpf/fmt3ySiru1jyY/WaFWpy0+ZSd90uiQlt4ks4fAlxoTJIbmSQsGA+XBINYuk3kdhq1pdyAskMquwHXANbf/AAma/wDQA0v/AL80f8Jmv/QA0v8A781TcW0+bbyMYU60IziqPxtt+8upT8W61ba9r0l9bK6xsiqA/B4q1oniOz07wtqelzJIZrv7hUcDjvTv+EzX/oAaX/35o/4TJf8AoAaX/wB+aalHmcubV+RMqNaVCNB0Xyxtb3l0OZyMda6XxR/yB/D/AP15n+dL/wAJkP8AoAaV/wB+aztc1+bXXtzLbwwLbpsRIRgAVHuRi0ne50WxNavTlOnyqN+qfSxlVa0z/kKWn/XZP51Vq1pv/IUtP+uyfzrGPxI9Gv8AwpejPeNN+/e/9fLfyWr1UdN+/e/9fLfyWr1fQR2PyOr8QUUUUzMKKKKACiiigAooooAKKKKACiiigAooooAKKKKACiiigAooooAKKKKACiiigAooooAKKKKACiiigAooooAKKKKACiiigAooooAKKKKACiiigAooooAKKKKACiiigAooooAKKKKACiiigAooooAKKKKACiiigAooooAKKKKACiiigAooooAKKKKACiiigAooooAKKKKACiiigAooooAKKKKACiiigAooooAKKKKACiiigAooooAKKKKACiiigAooooAKKKKACiiigAooooAKKKKACvOIrKbUpfGVlbBTNNKoRWYKCfrXo9cte/D/AEq+v57157tJJ33v5cpUZrKrFytY78FXhScud2va2l9U0/0PPv8AhXviP/n3g/7/AK0f8K98R/8APvB/3/Wu7/4VtpP/AD93/wD3/NH/AArbSf8An7v/APv+a5Pqi7fj/wAA+h/t+f8Az8X/AIB/9scJ/wAK98R/8+8H/f8AWj/hXviP/n3g/wC/613f/CttJ/5/L/8A7/mj/hW2k/8AP5f/APf80fVF2/H/AIAf2/P/AJ+L/wAA/wDtjhP+Fe+I/wDn3g/7/rR/wr3xH/z7wf8Af9a7v/hW+k/8/l//AN/zR/wrbSf+fy//AO/5o+qLt+P/AAA/t+f/AD8X/gH/ANscJ/wr3xH/AM+8H/f9aP8AhXviP/n3g/7/AK13f/CttJ/5/L//AL/mj/hW2k/8/d//AN/zR9UXb8f+AH9vz/5+L/wD/wC2OF/4V74j/wCfeD/v+tJ/wr3xH/z7wf8Af9a7v/hW2k/8/l//AN/zR/wrbSf+fy//AO/5o+qLt+P/AAA/t+f/AD8X/gH/ANscJ/wr3xH/AM+8H/f9ansvAPiGG+t5XggCpIrMfPXoDXaf8K20n/n8v/8Av+aP+FbaT/z93/8A3/NCwqTvb8f+ATLPZSi4upv/AHP/ALY6HTSC16Qcj7S38lq9Wfo2j2+h2P2O2eR03F8yNuOT7/hWhXdG9tT5Wq4ub5XoFFFFUZhRRRQAUUUUAFFFFABRRRQAUUUUAFFFFABRRRQAUUUUAFFFFABRRRQAUUUUAFFFFABRRRQAUUUUAFFFFABRRRQAUUUUAFFFFABRRRQAUUUUAFFFFABRRRQAUUUUAFFFFABRRRQAUUUUAFFFFABRRRQAUUUUAFFFFABRRRQAUUUUAFFFFABRRRQAUUUUAFFFFABRRRQAUUUUAFFFFABRRRQAUUUUAFFFFABRRRQAUUUUAFFFFABRRRQAUUUUAFFFFABRRRQAUUUUAFFFFABRRRQAUUUUAFFFFABRRRQAU15EjxvdVz0ycU6uS8ef6mw/67igDrKWo4P+PeP/AHR/KpKACiiigAooooAKKKKACiiigAooooAKKKKACiiigAooooAKKKKACiiigAooooAKKKKACiiigAooooAKKKKACiiigAooooAKKKKACiiigAooooAKKKKACiiigAooooAKKKKACiiigAooooAKKKKACiiigAooooAKKKKACiiigAooooAKKKKACiiigAooooAKKKKACiiigAooooAKKKKACiiigAooooAKKKKACiiigAooooAKKKKACiiigAooooAKKKKACiiigAooooAKKKKACiiigAooooAKKKKACiiigAooooAKKKKACiiigAooooAK5Lx5/qbH/rutdbXJePP9TY/9d1oA6mD/AI94/wDdH8qkqOD/AI94/wDdH8qkoAKKKKACiiigAooooAKKKKACiiigAooooAKKKKACiiigAooooAKKKKACiiigAooooAKKKKACiiigAooooAKKKKACiiigAooooAKKKKACiiigAooooAKKKKACiiigAooooAKKKKACiiigAooooAKKKKACiiigAooooAKKKKACiiigAooooAKKKKACiiigAooooAKKKKACiiigAooooAKKKKACiiigAooooAKKKKACiiigAooooAKKKKACiiigAooooAKKKKACiiigAooooAKKKKACiiigAooooAKKKKACiiigAooooAKKKKACiiigArkvHn+psf8ArutdbXJePP8AU2P/AF3WgDqYP+PeP/dH8qkqOD/j3j/3R/KpKACiiigAooooAKKKKACiiigAooooAKKKKACiiigAooooAKKKKACiiigAooooAKKKKACiiigAooooAKKKKACiiigAooooAKKKKACiiigAooooAKKKKACiiigAooooAKKKKACiiigAooooAKKKKACiiigAooooAKKKKACiiigAooooAKKKKACiiigAooooAKKKKACiiigAooooAKKKKACiiigAooooAKKKKACiiigAooooAKKKKACiiigAooooAKKKKACiiigAooooAKKKKACiiigAorl/Gup39gtjHYT+S9xIULflj+dZpg8Wg/8AIZj/AC/+tVKLexLklud1RXC+R4t/6DMf5f8A1qPI8W/9BmP8v/rU/Zy7C9pHud1RXC+R4t/6DMf5f/Wo8jxb/wBBmP8AL/61Hs5dg9pHud1RXC+R4t/6DMf5f/Wo8jxb/wBBmP8AL/61Hs5dg9pHud1RXC+R4t/6DMf5f/Wo8jxb/wBBmP8AL/61Hs5dg9pHud1RXC+R4t/6DMf5f/Wo8jxb/wBBmP8AL/61Hs5dg9pHud1RXC+R4t/6DMf5f/Wo8jxb/wBBmP8AL/61Hs5dg9pHudRr0WoS6Y/9mS+XcL8w/wBrHauI1jxCmrafZx3I8m8t5wJkbj8av+R4t/6DMf5f/WrKvPCer39y1xc31u8jdWweaPZy7B7SPc3rbWdQ17WIYNKJisbbHmykfersK89sdJ8R6dbiC01SGKMHOAP/AK1WfI8W/wDQZj/L/wCtR7OXYPaR7ndUVwvkeLf+gzH+X/1qPI8W/wDQZj/L/wCtR7OXYPaR7ndUVwvkeLf+gzH+X/1qPI8W/wDQZj/L/wCtR7OXYPaR7ndUVwvkeLf+gzH+X/1qPI8W/wDQZj/L/wCtR7OXYPaR7ndUVwvkeLf+gzH+X/1qPI8W/wDQZj/L/wCtR7OXYPaR7ndUVwvkeLf+gzH+X/1qPI8W/wDQZj/L/wCtR7OXYPaR7ndUVwvkeLf+gzH+X/1qPI8W/wDQZj/L/wCtR7OXYPaR7ndUV51qV54n0i3S5n1VZELhdqj/AOtXoMDF7eN26sgJ/Kpaa0ZSaeqJKKKKQwooooAKKKKACiiigAooooAKKKKACiiigAooooAKKKKACiiigAooooAKKKKACiiigAooooAKKKKACiiigAooooAKKKKACiiigAooooAKKKKACiiigAooooAKKKKACiiigAooooAKKKKACiiigAooooAKKKrX2o2WmW/2i/uoraLON8rhRn05oAs0Vm2XiHRtRmENlqdrcSEZCRyhjVy5u7ezj8y5nSFCcbnbAoAmoqvb39pdki2uYpSOoRgalkmiix5kipnpuOKAH0UxJEk+46t9DmnEgdSBQAtFICD0NGQO4oAWik60ZHrQAtFFJketAC0UUmR60ALRRSZHrQAtFJRketAC0UnSjIPegBaKQkDqaAQehBoAWimPLHH991X6nFEcscozG6uP9k5oAfRVa41GytG23F1FE3o7gVJb3UF3F5tvMkqf3kORQBLRWbeeItG0+Yw3mqWsEi9VklAIq5a3Vve263FrMk0T8q6HIP40ATUUUUAcd49/4+NH/wCvg/0rSb7xrN8e/wDHxo//AF8H+laTfeNdNDqc1bdCUUUV0mAUUUUAFFFFABRRRQAUUUUAFFFFABRRRQAUUUUAFFFFABRRRQAUUUUAFFFFABRRRQAUUUUAYXjH/kDR/wDXda7i1/49If8Armv8q4fxj/yBo/8Arutdxa/8ekP/AFzX+VcVb4jrpfCS0UUVkahRRRQAUUUUAFFFFABRRRQAUUUUAFFFFABRRRQAUUUUAFFFFABRRRQAUUUUAFFFFABRRRQAUUUUAFFFFABRRRQAUUUUAFFFFABRRRQAUUUUAFFFFABRRRQAUUUUAFFFFABRRRQAUUUUAFFFFABRRRQAVm6zoVnrq2qXq70trhZ1QjIYjoCPStKuf8VatdaVJo4tiB9r1GOCTP8AdOc0AasGladazedb2NvDJ/ejiCn9KW+0611KHybuESoDnBq1TWZUUs7BQO5OKAKGn6Fp2lytLZ24iZhgkE0atoVhrSot9GzhPu7XK/yq19stf+fmH/v4KPtlr/z8w/8AfYoAqaRoGn6GrixjdBIctvkZv5moNZ8K6Xr0yTXyzl0GF8ud4/5GtL7Za/8APzD/AN9ij7Za/wDPzD/32KAK2j6LZ6Ham3svN8snJ8yVnP5mqeq+EtP1i7NzcyXKuRjEc7KPyBrV+2Wv/PzD/wB9ij7Za/8APzD/AN9igCPTNOh0qzW1gaRkXoZHLH8zWTqHhC3v7x7o3t3E79QkhAH4Zra+2Wv/AD8w/wDfYo+2Wv8Az8w/99igAs7UWdolurs4QY3Mck1hT+DIJ7p5zqN4pZt20SHA/Wt37Za/8/MP/fYo+2Wv/PzD/wB9igBywhLYQBmwF27j1rn18HKt0J/7VvDh923fx9Otb32y1/5+Yf8AvsUfbLX/AJ+Yf++xQAs9uJ7VoC7KGXbuB5rCtPB0NpdpcDULtyhztaQkH9a3Ptlr/wA/MP8A32KPtlr/AM/MP/fYoAbf2a39m9s0jxhx95DgisnTPCkOm3i3K311KV/hkckGtj7Za/8APzD/AN9ij7Za/wDPzD/32KAIdV0uHV7M207yIpOcxuVP5iqWkeFrHRrlri3luXdhg+bMzD8ia0/tlr/z8w/99ij7Za/8/MP/AH2KAKms6DY69CkN8JtqHI8qVkP6GotF8MaboDSNYLODJ97zZ2k/ma0Ptlr/AM/MP/fYo+2Wv/PzD/32KAKWr+HdN1tka+jkcx/d2yMv8jUulaLY6LE0VlGyKxyQzlv51Y+2Wv8Az8w/99ij7Za/8/MP/fYoAqX/AIf0zU5xPd2wlcDAJJq1ZWNtp8AgtYhHGP4RS/bLX/n5h/77FTKyuoZSGB6EGgCnPo2mXUxmuLC3mkPVnjDE/nTLK+sTf3Gk2qrHJZqrPGigBQ3T+VaFYenaRcWvizVtUkK+TeRxLGB1+UHP86ANyiiigDjvHv8Ax8aP/wBfB/pWk33jWb49/wCPjR/+vg/0rSb7xrpodTmrboSiiiukwCiiigAooooAKKKKACiisfxVBqNxobx6YrvIXXzUjOGePPzAH3FTJ2Vyoq7sa4ZGOFdGPorA0oIPQg464PSuD0+Hw22q2f8Awjk503UI3HnxzK4EifxJk8E/StS01qKyPiG6e1SMWlwqkxk5lJUYJz/SlzaXf9f1cfK3t5fidRRXLRax4mtNR06DVLexMN+W5gBBjwM4OaqjxP4insr3U4LexSysZnSQSAl5FU87fejnQuRv+v67HZ0cHoQfoaq/aBdaR9pUECWDeB6ZGazPA5J8IWJYknDck5/iNO+rXb/git7qZu5B6EH6GiuDtNaudD8N6vf28YuJRqzRqjknIJAwK3NO1jWE1aGy1m3twt5EZYHt8jZj+Fs96Sld2/ra5UoNX+f4HQUUUVZAUUUUAFFFFABRRRQAUUUUAYXjH/kDR/8AXda7i1/49If+ua/yrh/GP/IGj/67rXcWv/HpD/1zX+VcVb4jrpfCS0UUVkahRRRQAUUUUAFFFFABRRRQAUUUUAFFFFABRRRQAUUUUAFFFFABRRRQAUUUUAFFFFABRRRQAUUUUAFFFFABRRRQAUUUUAFFFFABRRRQAUUUUAFFFFABRRRQAUUUUAFFFFABRRRQAUUUUAFFFFABRRRQAVUv9MtdSNublN5tphNH7MOhq3XN+MNQurCTRBbSmMXGpxRSY/iU5yKAOkrnvHLMnhW5Kkg7l/mK6Gud8d/8ipc/7yf+hCgDn7Pwpp09jBM73G+SMM2H4yRU3/CH6X/fuP8Av5Wnpv8AyCrT/riv8qs12qnG2xxOcr7mH/wh+l/37j/v5R/wh+l/37j/AL+VuUU/Zx7Bzy7mH/wh+l/37j/v5R/wh+l/37j/AL+VuUUezj2Dnl3MP/hD9L/v3H/fyj/hD9L/AL9x/wB/K3KKPZx7Bzy7mH/wh+l/37j/AL+Uf8Ifpf8AfuP+/lblFHs49g55dzD/AOEP0v8Av3H/AH8o/wCEP0v+/cf9/K3KKPZx7Bzy7mH/AMIfpf8AfuP+/lH/AAh+l/37j/v5W5RR7OPYOeXcw/8AhD9L/v3H/fyj/hD9L/v3H/fytyij2cewc8u5h/8ACH6X/fuP+/lH/CH6X/fuP+/lblFHs49g55dzD/4Q/S/79x/38o/4Q/S/79x/38rcoo9nHsHPLuYf/CH6X/fuP+/lH/CH6X/fuP8Av5W5RR7OPYOeXc5rUfC+n2um3FxE8++KMsuX4zXVeD2LeF7Mscnaf5ms3Wv+QJe/9cTWj4N/5Fay/wB0/wAzXPVik9DopNtam5WdZ6xDeave6ciMJLMKXY9Du/8A1Vo1kadoz2Wu6jqLS7heBMLj7u3P+NYmpr0UUUAcd49/4+NH/wCvg/0rSb7xrN8e/wDHxo//AF8H+laTfeNdNDqc1bdCUUUV0mAUUUUAFFFFABRRRQAVn61a31zY5025MNzE4dR2kA6qfrWhRSauNOxy9xFrviB7W3v9Di02OCZZjceeshJHYAdM+tMbQJvsniBb2SO2ivJlkhmZxgAAcn05FdXTZYo54mimjWSNhhkcZB+oqOTR2/rb/IpTdzhodYv9a13RoJYrZTbs+8286zbuOp2/d/GtG30DUY/CWrac0Si5upZmiXeMEMeOa6G103T7Fmazsbe2ZuGMUYUn8qs0+XTUOezVun6X/wAyrp9s0OkW9rOAHSBY3HXBxg1z9jH4i8O2x0uz0dNRt0Y+TcfaFj2g+qnrjNdVRTlG7uSnZWOH8QaZPpPgd1Z0N3PfxzOQPlDlula1hbaxqWr297qtillFZxFI1WQP5xP8XHT6V0EsMU6bJokkXIO1xkZHQ06ko63/AK2sNyurev4i0lFFWSFFFFABRRRQAUUUUAFFFFAGF4x/5A0f/Xda7i1/49If+ua/yrh/GP8AyBo/+u613Fr/AMekP/XNf5VxVviOul8JLRRRWRqFFFFABRRRQAUUUUAFFFFABRRRQAUUUUAFFFFABRRRQAUUUUAFFFFABRRRQAUUUUAFFFFABRRRQAUUUUAFFFFABRRRQAUUUUAFFFFABRRRQAUUUUAFFFFABRRRQAUUUUAFFFFABRRRQAUUUUAFFFFABUFzaW10YjcRq5ikEke7+Fh0NT1zHjSe4hl0H7O7rv1WJZNndecg+1AHT1zvjv8A5FS5/wB5P/QhXRVzvjv/AJFS5/3k/wDQhQBBpv8AyCrT/riv8qs1W03/AJBVp/1xX+VWa9BbHA9woooqhBRRRQAUUUUAFFU7fWNPutSuNNhuA13bAGWLGCB/WnjUbRtSbTRL/pSx+aY8fw5xnNJNPYdmWaKXa2M4OPpQFJ6AmgQlFLtb0P5UAE9ATQAlFL0pKYBRRRQAUUUUAFFFFAFLWv8AkCXv/XE1o+Df+RWsv90/zNZ2tf8AIEvf+uJrR8G/8itZf7p/ma5K/wAR00dmblZWm6z9v1a/sfK2/Yyo3f3s1q1madoyafqV7erIWa7YEg9sVgbmnRRRQBx3j3/j40f/AK+D/StJvvGs3x7/AMfGj/8AXx/hWmynceDXTQ6nNW3Q2il2n0NG0+hroMBKKXafQ0bT6GgBKKXafQ0bT6GgBKKXafQ0bT6GgBKKXafQ0bT6GgBKKXafQ0bT6GgBKKXafQ0bT6GgBKKXafQ0bT6GgBKKXafQ0bT6GgBKKXafQ0bT6GgBKKXafQ0bT6GgBKKXafQ0bT6GgBKKXafQ0bT6GgBKKXafQ0bT6GgDB8Y/8gaP/rutdxa/8ekP/XNf5Vw/jEEaNHkf8t1ruLX/AI9If+ua/wAq463xHXS+ElooorI1CiiigAooooAKKKKACiiigAooooAKKKKACiiigAooooAKKKKACiiigAooooAKKKKACiiigAooooAKKKKACiiigAooooAKKKKACiiigAooooAKKKKACiiigAooooAKKKKACiiigAooooAKKKKACiiigAqKcQEx+eEOHGzfj73bHvUtcv40juJJdB8hXO3VYi+zsvOc+1AHUVzvjv8A5FS5/wB5P/QhXRVzvjv/AJFS5/3k/wDQhQBBpv8AyCrT/riv8qs1W03/AJBVp/1xX+VWa9BbHA9woooqhBRRRQAUo60lLQBwkVi7+Jte1K0H+mWc0bLjrIu3lPoau2F5FfeOJbuCRQr6XkMeiHd3+hrd0/SE0/Ur++WZna+ZWZCMBMDFUrXwlZ2muX2pxyuBfQmJ4P4VB6ken0rJRaSXl+NjWUk3L5focrf38Wm3UFxbarqt3fPcorTbW+xuGbBx2rdu9Pn1nxXf2cmpXdvaxRIwS3kKHdjrn0oPgq5ayj05tflOnQyK8VsIFGzacgbuprcttLW31WfUPOZ3nRUKkcDAxmkotqz8/wAglJa2/rVfocU0Oof8InNrc2r3bXVixEISQqhUNj5x/EferXiPVvtGsWmn3T6nFbC1WdjpqsZCx45x2rfbw1E3h640b7U+yckmXbyMnPSi/wDD80729xp2qSaddwx+WZ0jD709CDQ4yt/Xb/MalG/3/mrfhcb4Qvbq80X/AEuO4VopGSNrhCjug6Eg963KqaXYHTbIW7XMly5JZ5ZDyzHqfb6VbrYxCiiigAooooAKKKKAKWtf8gS9/wCuJrR8G/8AIrWX+6f5ms7Wv+QJe/8AXE1o+Df+RWsv90/zNclf4jpo7M3KxdF1ibUdS1G2kUBbWTapHetqqNhpNvp9zczw533L73z61gbl6iiigDE8SeHjr8duFuTbvAxZW256/wD6qx/+EJ1P/oYZ/wAj/jXZ0UXCxxn/AAhGpf8AQwz/AJH/ABo/4QjUv+hhn/I/412dFO7FZHGf8IRqX/Qwz/kf8aP+EI1L/oYZ/wAj/jXZ0UXYWRxn/CEal/0MM/5H/Gj/AIQjUv8AoYZ/yP8AjXZ0UXYWRxn/AAhGpf8AQwz/AJH/ABo/4QjUv+hhn/I/412dFF2FkcZ/whGpf9DDP+R/xo/4QjUv+hhn/I/412dFF2FkcZ/whGpf9DDP+R/xo/4QjUv+hhn/ACP+NdnRRdhZHGf8IRqX/Qwz/kf8ayde0TUtFjgb+255fOkCY5GP1r0muS8ef6mx/wCu60XYWRAngrUnRW/4SGfkA9D/AI0v/CEal/0MM/5H/Guvg/494/8AdH8qkouwsjjP+EI1L/oYZ/yP+NH/AAhGpf8AQwz/AJH/ABrs6KLsLI4z/hCNS/6GGf8AI/40f8IRqX/Qwz/kf8a7Oii7CyOM/wCEI1L/AKGGf8j/AI0f8IRqX/Qwz/kf8a7Oii7CyOM/4QjUv+hhn/I/40f8IRqX/Qwz/kf8a7Oii7CyOM/4QjUv+hhn/I/40f8ACEal/wBDDP8Akf8AGuzoouwsjjP+EI1L/oYZ/wAj/jR/whGpf9DDP+R/xrs6KLsLI4qTwFeThVuNcklQHO1lJ/rXZRp5cSIOdqgU+ikMKKKKACiiigAooooAKKKKACiiigAooooAKKKKACiiigAooooAKKKKACiiigAooooAKKKKACiiigAooooAKKKKACiiigAooooAKKKKACiiigAooooAKKKKACiiigAooooAKKKKACiiigAooooAKKKKACiiigAqG4uLe3MQuHRPMcJHu7segHvU1c14xsbm9k0M20TSCHVIpJMfwqM5NAHS1zvjv/kVLn/eT/0IV0Vc747/AORUuf8AeT/0IUAQab/yCrT/AK4r/KrNVtN/5BVp/wBcV/lVmvQWxwPcKKKKoQUUUUAFFFFABRRRQAUUUUAFFFFABRRRQAUUUUAFFFFABRRRQBS1r/kCXv8A1xNaPg3/AJFay/3T/M1na1/yBL3/AK4mtHwb/wAitZf7p/ma5K/xHTR2ZuVg+HtUudQvdTinYMtvOUTHYZreqraadbWMk0lvGEadt7n1NYG5aooooAKKKKACiiigAooooAKKKKACiiigAooooAKKKKACuS8ef6mx/wCu611tcl48/wBTY/8AXdaAOpg/494/90fyqSo4P+PeP/dH8qkoAKKKKACiiigAooooAKKKKACiiigAooooAKKKKACiiigAooooAKKKKACiiigAooooAKKKKACiiigAooooAKKKKACiiigAooooAKKKKACiiigAooooAKKKKACiiigAooooAKKKKACiiigAooooAKKKKACiiigAooooAKKKKACiiigAooooAKKKKACiiigAooooAKq3uo2unmAXMgQ3Eohjz/Ex6CrVc94r0q61OTRjbIGFrqMc8meyjOTQB0Nc747/AORUuf8AeT/0IV0VY/iq4gtfD88txbrcRggGNjgHmgDE0/VNPTTbVHvoFZYlBBfkHFWP7W03/n/t/wDvuuZSISxrInhBWVxlWEr8j86X7Mf+hOH/AH9f/GuhVZdjndOPc6X+1tN/5/7f/vuj+1tN/wCf+3/77rmvsx/6E4f9/X/xo+zH/oTh/wB/X/xp+1n2D2Ue50v9rab/AM/9v/33R/a2m/8AP/b/APfdc19mP/QnD/v6/wDjR9mP/QnD/v6/+NHtZ9g9lHudL/a2m/8AP/b/APfdH9rab/z/ANv/AN91zX2Y/wDQnD/v6/8AjR9mP/QnD/v6/wDjR7WfYPZR7nS/2tpv/P8A2/8A33R/a2m/8/8Ab/8Afdc19mP/AEJw/wC/r/40fZj/ANCcP+/r/wCNHtZ9g9lHudL/AGtpv/P/AG//AH3R/a2m/wDP/b/991zX2Y/9CcP+/r/40fZj/wBCcP8Av6/+NHtZ9g9lHudL/a2m/wDP/b/990f2tpv/AD/2/wD33XNfZj/0Jw/7+v8A40fZj/0Jw/7+v/jR7WfYPZR7nS/2tpv/AD/2/wD33R/a2m/8/wDb/wDfdc19mP8A0Jw/7+v/AI0fZj/0Jw/7+v8A40e1n2D2Ue50v9rab/z/ANv/AN90f2tpv/P/AG//AH3XNfZj/wBCcP8Av6/+NH2Y/wDQnD/v6/8AjR7WfYPZR7nS/wBrab/z/wBv/wB90f2tpv8Az/2//fdc19mP/QnD/v6/+NH2Y/8AQnD/AL+v/jR7WfYPZR7nS/2tpv8Az/2//fdH9rab/wA/9v8A991zX2Y/9CcP+/r/AONH2Y/9CcP+/r/40e1n2D2Ue5tavqenyaPdxx3sDO0RAUPyTW14O/5Faz/3T/M1xMkawRNLL4RVEQZZjK/A/Ou+8NzQ3Gg2ssEAgjK8Rg5C81lOTk9TWEVFaM1K53wvfXF5d6qs8pdYrpkQHsM10VQwW0FuztDGqGRtz47msyyaiiigAormPGeq3+nLZR6fMInuJChYgH0x/OswjxkD/wAhSD8h/hVKLexLklud1RXC48Y/9BSD8h/hRjxj/wBBSD8h/hT9nLsL2ke53VFcLjxj/wBBSD8h/hRjxj/0FIPyH+FHs5dg9pHud1RXC48Y/wDQUg/If4UY8Y/9BSD8h/hR7OXYPaR7ndUVwuPGP/QUg/If4UY8Y/8AQUg/If4Uezl2D2ke53VFcLjxj/0FIPyH+FGPGP8A0FIPyH+FHs5dg9pHud1RXC48Y/8AQUg/If4UY8Y/9BSD8h/hR7OXYPaR7nUa8uotpjnTHCzp8wBH3gO1cTrPiGPWNOshN+6u4JwJkbjv1q9jxl/0FIPyH+FZF74V1rULlri4ubZpG6kcZ/IUezl2D2ke50MGu3+tazBa6QdtnbY86Zhw1deOleeafpvifS7f7PaX9tHHnOAB/hVrHjH/AKCkH5D/AAo9nLsHtI9zuqK4XHjH/oKQfkP8KMeMf+gpB+Q/wo9nLsHtI9zuqK4XHjH/AKCkH5D/AAox4x/6CkH5D/Cj2cuwe0j3O6orhceMf+gpB+Q/wox4x/6CkH5D/Cj2cuwe0j3O6orhceMf+gpB+Q/wox4x/wCgpB+Q/wAKPZy7B7SPc7qiuFx4x/6CkH5D/CjHjH/oKQfkP8KPZy7B7SPc7qiuFx4x/wCgpB+Q/wAKMeMf+gpB+Q/wo9nLsHtI9zuqK871DUvFWkwJc3OoxOhcLtVR/hXoEDmS3jc9WUE/lUtNblJp7ElFFFIYUUUUAFFFFABRRRQAUUUUAFFFFABRRRQAUUUUAFFFFABRRRQAUUUUAFFFFABRRRQAUUUUAFFFFABRRRQAUUUUAFFFFABRRRQAUUUUAFFFFABRRRQAUUUUAFFFFABRRRQAUUUUAFFFFABRRRQAUUUUAFUNT1e20lrQXJIN3cLbx4/vN0q/WH4l0afV30poGVfsd/HcPnuq5z/OgDcrnfHf/IqXP+8n/oQroq53x3/yKlz/ALyf+hCgCHTCf7KtP+uK/wAqs5PrVXTf+QVaf9cV/lVmvQWxwPcXJ9aMn1pKKoQuT60ZPrSUUALk+tGT60lFAC5PrRk+tJRQAuT60ZPrSUUALk+tGT60lFAC5PrRk+tJRQAuT60ZPrSUUALk+tGT60lFAC5PrRk+tJRQBT1on+xL3/ria0PBv/IrWX+6f5ms7Wv+QJe/9cTWj4N/5Fay/wB0/wAzXJX+I6aOzNyua8JSzy3GreczkLeOF3dhntXS1FD5GX8nZnPzbfX3rA3JaKKKAOO8e/8AHxo//Xwf6VpN941m+Pf+PjR/+vg/0rSb7xrpodTmrboSiiiukwCiiigAooooAKKKKACiiigAooooAKKKKACiiigAooooAKKKKACiiigAooooAKKKKACiiigDC8Y/8gaP/rutdxa/8ekP/XNf5Vw/jH/kDR/9d1ruLX/j0h/65r/KuKt8R10vhJaKKKyNQooooAKKKKACiiigAooooAKKKKACiiigAooooAKKKKACiiigAooooAKKKKACiiigAooooAKKKKACiiigAooooAKKKKACiiigAooooAKKKKACiiigAooooAKKKKACiiigAooooAKKKKACiiigAooooAKy9a1uLRmsVkjL/bbpLZcdi3f9K1KyNf0Q6y+nMJfL+xXiXJ/2tueP1oA1653x3/yKlz/vJ/6EK6Kud8d/8ipc/wC8n/oQoAg03/kFWn/XFf5VZqtpv/IKtP8Ariv8qs16C2OB7hRRRVCCiiigApaSuJ0hNV1tby5l8XXFl5d1JEsKCPAUHjrzUOVnYpRurnbUViz6gnhrSYZL+9n1PfJ5Ymwu4k/Tiqq+M0MzWj6LqEd9t3xWjBd8y+q9qOZbBys6Sisa38T2c+jS6k0M0XkyeU8DDMgk/u8d6Sw8SC9u/sV1pd5pk7xmSJbkDMijqRj0puSQcrNqiuQXXbmS20KS1vJ3jur5opWmVQzqM8HH0rU8YX91puhm4s5jFL50a7gM8FgDTv8AnYfI+bl/r+tDcpK5OVdW1fxbf2MGvXOn29rDG6pCinJbrnIq7ptzf6ZrY0XUb03yzRmW3uHADkDqGxx1qVK9vMTRv0UUVZIUUUUAFFFFAFLWv+QJe/8AXE1o+Df+RWsv90/zNZ2tf8gS9/64mtHwb/yK1l/un+Zrkr/EdNHZm5XNeEIp45NVM6Ou69kK7u4z2rpayZvEui2szwyX0aujYZcHg1gbmtVS91Sz094kup1iMrbVz61mt4y0Jf8Al+U/QGszWde8M6zZm3uJySOUdVOVNADfHhBn0cg5BuP8K02+8a89fVbi5uLDT5JvPitrgeVIepBIr0JvvGumh1OatuhKWq98cafcEHB8pv5VleC2Z/B+ns7FmMZyWOSeTW99/L/g/wCRjbS5u0lcLZa7caH4Zv76KL7VJ/arxBHJOQWxxW3putaqNUSx1q0t4jcQmaCS3JICjs2f4qFJf16XHKLV/wCtjoKSuG13Wtc1Hw/e3tra240ouFRgzCcgNgn061syXuuJbWkGlW1oFEKs9xfOVjYn+EY71KqLX5fjcbg1+P4WOhpK4DXdZ1XVtJ0u4tEtopE1FYZQXbaZFbAxjqprZ1DxBq/9oTWelxaez2UYN39pkK5bGcJ+HrTc0t/66hyP+vWx01Lj3H51U0rUYtW0yC/h4SZc49D0Ned6e/g1rnUz4imc3YvZBgyS/dzx93ilOXK7BGN1c9PpK43SdXuNG8Jee6FvNuDFYLOcZBJ27j6YrR07X7/z7qy1WOzF5FAbiP7I5ZGQeue+afOv6+8XK/6+46GiuUtfFGrHw42uXlnapBKFFukZYtuJxlv9mtLR77W5rtoNVgsWjK7knsZCyD2bPNO+thOLSubNFcrL4n1bZPqtvZ2raJbybXZifPYA4YgdOtTXmv6tNrg0vRrW2kZrYXAluCQoBPQ4pc6tcrkaZ0lFYNhr99faFPcx2Ky38ExgeKI/JvHVuf4RUVlrWrDVRperpYF54HkiexcsF29Q2e9Dnb+vK4lFnSUY9x+dc/4GZn8KwM7Mx8yTljk/eNY+ieHNK1y+1m41OCSeRL5kU+e64XA4wDTk2nZByrW/R2O4pK5nS7r+wL3VNMmkklsrGETxMxyVU/w/hUdj4o1M3FpLqEVgtjfvstzBITKrH7u8fSkpp2sDi1c6ukrivDd1rkF74iklt4bry7nCxQsSxfAxjP8ADjmtKy1vWIdYtbDWItPIvA3lGzkLFCoyQ2aOfRea/S43BpvyOk/L86SuBnvftOi2UkMX2YDW9hVHY7sN159fStrUNd1h9Wu7TSIdPxZECQXjlWkJ5+Sjm/r7v8wcHf8ArvY6Sio7WV57WOWSFoXdctG3VTUlWQYXjH/kDR/9d1ruLX/j0h/65r/KuH8Y/wDIGj/67rXcWv8Ax6Q/9c1/lXFW+I66XwktFFFZGoUUUUAFFFFABRRRQAUUUUAFFFFABRRRQAUUUUAFFFFABRRRQAUUUUAFFFFABRRRQAUUUUAFFFFABRRRQAUUUUAFFFFABRRRQAUUUUAFFFFABRRRQAUUUUAFFFFABRRRQAUUUUAFFFFABRRRQAUUUUAFY/iDW20Z9NVYvM+23qWx/wBkNnn9K2KzNZ0WLWWsWlcr9iuluVx3K9v1oA0653x3/wAipc/7yf8AoQroq53x3/yKlz/vJ/6EKAINN/5BVp/1xX+VWarab/yCrT/riv8AKrNegtjge4UUUVQgooooAO1eZaYPCMD36+INLlkvDeSHcbWRsrnjkcV6bTt7DvWco3dy1KyscjdSadd6Npf9i28i2kd6uEMTLt654PNaLI//AAnMMmxtgswN+OAc+tbhYk5Jozxiny/18rCvpb+t7nD20+o6Zp2u3FnbEyHUWyXQnEZPLAdyB0qnpcsU/i60urW/1TUYfs0qu95GVEbHHC5A4r0TJ/KlLMepqeT8rfhYpzvfTc880+3uF0vw0DBKCmpOWBQ/KMtyfSug8dRyS+HSsUbSN9oiOFGT94V0WT60A46Vpb87i5/e5v63f+ZxjazaaF441OXUFuUjnt4hG0cDOCR16CrmnzN4h8Sx6vBHLHp9pCY4nkQoZWPOcHkYrqAzAYBpCSTzUxi1a/QTfYSiiirJCiiigAooooApa1/yBL3/AK4mtHwb/wAitZf7p/mazta/5Al7/wBcTWj4N/5Fay/3T/M1yV/iOmjszcrkfD/hu3kl1KTVNPR3kvJHRpOcqTxXXVVs9Rtr8zC3k3mFzG/sw61gblZfDmjL006Af8BqnrNrpWj6bJdLpccjLwqqnet+kZVddrAEHsaAPKLzSLi1k07UroCOS8uMiIDGwZGP513LfeNZvj3/AF+j/wDXx/hWk33jXTQ6nNW3QySMSxPG3R1Kn8RXLaefEPh6y/sm30NtQiiJENykyooU9Mg88V1dFbON+pkpWVjhdf0240jwYiExtdzajHMwH3d7NnFa9jb6rq2rxXuqad9ghtoDEiFwxlJ/iGOgrfmt4LlAk8KSqGDBXGQCOhqSjl1d/wCtLDcrqxxF1p3iO00Kbw7YaWJot37q88wBdpbJBXrmpdU0jUnuoBc6O2s2P2dUFoJgixOOrHPXNdlRU+zvuw53f+upwNt4c1i18NQ28emhZLbURdR2okGSm7O3NT6x4ekfWrjUW8MR6x9uRWIeUKbdgMYPPIrt6Kbhff8ArSwc7/r1uU9HszYaVBbGGGFkX5o4RhFPoKz/AAvplxp1vfLeQIrTXkkqZAbKk8Gtyir63JT0sYvizR21rR1hSFZ2glEywNwJcfw/jWXomiPH9smXw1b6PvtzGiB98jsR65wB7V11FQ4K78yud2SOcs7HVrDwRa2UdpDLdxR7ZbaU5DjJyM+uKq+HNFnt9ZN5Fof9g2ojKyW/mh/PJ6Hg8YrraKpxvJyYubS39dzjG0vXLewufDdvp26znkJXUPMACKxycr1NatlpF1a+LjebM2gsFgEmerA+lb1FJRt/XyG5N3/rzOPj0XW4NA1OC3BhuJtQaZVVhmWInkA9siq2laDdQ+JINRt/DX9kxCB45gZg5cnvwa7milyK9/62sDm3cx/Cen3Wl+H4bS8j8uZXclc54LEisfTm8QaFfamsfhuW+iubtpklS4RQQQOxrsKKqSbd7i5t79dTnLLQru9i1S71TEF3qcXlbAc+SnYH1NZGi+GpLe+tYm8J2tobZvnvnfd5gHQqAeCa7qikoJNNdAcm00cg2la7C+vwWcTQ/bJRNb3auOegKY7EgHmqen6DeL4i0/UYPDH9meRvFxI04cy5GM8Gu7opKGqY3Nu/mcUnh3VV0e2tzbDzI9XNyw3DiPdnNS+IdOvb+/mFz4Vi1VRxbXSSBDEPfJ5Oa7Cihwvp/X9aD53e/wDW9yppFrcWWk21tdz+fPGmHk9at0UVo3d3MkrKxheMf+QNH/13Wu4tf+PSH/rmv8q4fxj/AMgaP/rutdxa/wDHpD/1zX+VcVb4jspfCS0UUVkahRRRQAUUUUAFFFFABRRRQAUUUUAFFFFABRRRQAUUUUAFFFFABRRRQAUUUUAFFFFABRRRQAUUUUAFFFFABRRRQAUUUUAFFFFABRRRQAUUUUAFFFFABRRRQAUUUUAFFFFABRRRQAUUUUAFFFFABRRRQAVheJtZuNIfSlgVT9sv47d89lbOa3ao6lpNtqrWpuQT9knWePH94dKAL1c747/5FS5/3k/9CFdFXO+O/wDkVLn/AHk/9CFAEGm/8gq0/wCuK/yqzVbTf+QVaf8AXFf5VZr0FscD3CiiiqEFFFFABRRRQAUUUUAFFFFABRRRQAUUUUAFFFFABRRRQAUUUUAUta/5Al7/ANcTWj4N/wCRWsv90/zNZ2tf8gS9/wCuJrR8G/8AIrWX+6f5muSv8R00dmblYPhrS7nTZNRNwoAnunkTHoTW9VHTtWt9Te4SDObeQxvn1FYG5eooooA47x7/AMfGj/8AXwf6VpN941m+Pf8Aj40f/r4P9K02B3Hg100OpzVt0NopcH0NGD6GugwEopcH0NGD6GgBKKXB9DRg+hoASilwfQ0YPoaAEopcH0NGD6GgBKKXB9DRg+hoASilwfQ0YPoaAEopcH0NGD6GgBKKXB9DRg+hoASilwfQ0YPoaAEopcH0NGD6GgBKKXB9DRg+hoASilwfQ0YPoaAEopcH0NGD6GgDB8Y/8gaP/rutdxa/8ekP/XNf5Vw/jEH+xo+P+W613Fr/AMekP/XNf5Vx1viOul8JLRRRWRqFFFFABRRRQAUUUUAFFFFABRRRQAUUUUAFFFFABRRRQAUUUUAFFFFABRRRQAUUUUAFFFFABRRRQAUUUUAFFFFABRRRQAUUUUAFFFFABRRRQAUUUUAFFFFABRRRQAUUUUAFFFFABRRRQAUUUUAFFFFABXO+LNUutMk0YWzhBdalHDJ7qc5FdFVW80+1vzAbmIObeUSx5/hYdDQBarG8V2Mmo+H57aJkV2KkF2Cjg561s1z3jolfCtyQcfMv8xQBzsMniSCCOFG07bGoVczJnA/Gn/afE397Tf8Av8n+NFl4W0mewt5pIpC8kYZj5h6kVP8A8Ijo3/PKX/v4a6FCp3Odyp9iD7T4m/vab/3+T/Gj7T4m/vab/wB/k/xqf/hEdG/55S/9/DR/wiOjf88pf+/hp8lTuHNT7EH2nxN/e03/AL/J/jR9p8Tf3tN/7/J/jU//AAiOjf8APKX/AL+Gj/hEdG/55S/9/DRyVO4c1PsQfafE397Tf+/yf40fafE397Tf+/yf41P/AMIjo3/PKX/v4aP+ER0b/nlL/wB/DRyVO4c1PsQfafE397Tf+/yf40fafE397Tf+/wAn+NT/APCI6N/zyl/7+Gj/AIRHRv8AnlL/AN/DRyVO4c1PsQfafE397Tf+/wAn+NH2nxN/e03/AL/J/jU//CI6N/zyl/7+Gj/hEdG/55S/9/DRyVO4c1PsQfafE397Tf8Av8n+NH2nxN/e03/v8n+NT/8ACI6N/wA8pf8Av4aP+ER0b/nlL/38NHJU7hzU+xB9p8Tf3tN/7/J/jR9p8Tf3tN/7/J/jU/8AwiOjf88pf+/ho/4RHRv+eUv/AH8NHJU7hzU+xB9p8Tf3tN/7/J/jR9p8Tf3tN/7/ACf41P8A8Ijo3/PKX/v4aP8AhEdG/wCeUv8A38NHJU7hzU+xB9p8Tf3tN/7/ACf40fafE397Tf8Av8n+NT/8Ijo3/PKX/v4aP+ER0b/nlL/38NHJU7hzU+xB9p8Tf3tN/wC/yf40fafE397Tf+/yf41P/wAIjo3/ADyl/wC/ho/4RHRv+eUv/fw0clTuHNT7FO5bxHdW0lvK+nbJV2tiZM4/Oux8NWkljoFrbylS6LyUbI6+tchqXhjSrXTLm4iikEkcZZSZCea6jwcSfC1ln+6f5msZqSfvGsHFr3TbrF0DR5tLmv3ldWFzcNKuOwJrarM0nWU1Wa7iSMobWUxknvioLNOiiigDD8TeHpNejt/KuRA8DFgxGf8APSsj/hDtb/6GF/yNdnRTu0KyZxn/AAh2t/8AQwv+Ro/4Q7W/+hhf8jXZ0Ucz7hZHGf8ACHa3/wBDC/5Gj/hDtb/6GF/yNdnRRzPuFkcZ/wAIdrf/AEML/kaP+EO1v/oYX/I12dFHM+4WRxn/AAh2t/8AQwv+Ro/4Q7W/+hhf8jXZ0Ucz7hZHGf8ACHa3/wBDC/5Gj/hDtb/6GF/yNdnRRzPuFkcZ/wAIdrf/AEML/kaP+EO1v/oYX/I12dFHM+4WRxn/AAh2t/8AQwv+RrK1zSdY0VIGbW5JPOkCYGRivSK5Lx5/qbH/AK7rRzPuFkV08Ia06K3/AAkD8jPQ07/hDtb/AOhhf8jXXwf8e8f+6P5VJRzPuFkcZ/wh2t/9DC/5Gj/hDtb/AOhhf8jXZ0Ucz7hZHGf8Idrf/Qwv+Ro/4Q7W/wDoYX/I12dFHM+4WRxn/CHa3/0ML/kaP+EO1v8A6GF/yNdnRRzPuFkcZ/wh2t/9DC/5Gj/hDtb/AOhhf8jXZ0Ucz7hZHGf8Idrf/Qwv+Ro/4Q7W/wDoYX/I12dFHM+4WRxn/CHa3/0ML/kaP+EO1v8A6GF/yNdnRRzPuFkcRL4G1O5VUudbMsYbO1lJrtIk8uJI852qBT6KQwooooAKKKKACiiigAooooAKKKKACiiigAooooAKKKKACiiigAooooAKKKKACiiigAooooAKKKKACiiigAooooAKKKKACiiigAooooAKKKKACiiigAooooAKKKKACiiigAooooAKKKKACiiigAooooAKKKKACuZ8ZXlzaSaGLaVo/O1SKOTH8SnORXTVDcQW85j89EbY4ZN3ZuxHvQBNXO+O/wDkVLn/AHk/9CFdFXO+O/8AkVLn/eT/ANCFAEGm/wDIKtP+uK/yqzVbTf8AkFWn/XFf5VZr0FscD3CiiiqEFFFFABRWTBq08viu60lljEENssqt/FknBz7UWvinRbzUm06C7LXCkrgxsFJHUBjwalNO3mNxaua1Fc9e+LbXStbuLPUnEUEYHllI2diSO4Hat2C4ju7Vbi2kV0kXMb9jRGSkrr+v6sDTTsySiuQvtS8Y2mtWemibR2N6X8t/Kf5QozzzWk2rXmnTxQateWZl8iSWRIImywXuv9alTVrspwd7G7RXGaX45m1O10uSJIzJdXht5x5bKFXnG3PfAFb2peJ9G0m9WzvbopM4BAWNmAzwMkcD8au6E4tOxq0UgYFNykEEZBHINY1t4ksotKW91C/gKPM0SyRIwUkHGMHnNJtLcSTaujaorO0rX9M1syLYXDSNEfnV4yhH4GtGnvqIKKKKYBRRRQBS1r/kCXv/AFxNaPg3/kVrL/dP8zWdrX/IEvf+uJrR8G/8itZf7p/ma5K/xHTR2ZuVlaPo39lXF7L5u/7VMZMf3c1q1kaNrL6pdX0LRhBaymMEd6wNzXooooAKKKKACiiigAooooAKKKKACiiigAooooAKKKKACuS8ef6mx/67rXW1yXjz/U2P/XdaAOpg/wCPeP8A3R/KpKjg/wCPeP8A3R/KpKACiiigAooooAKKKKACiiigAooooAKKKKACiiigAooooAKKKKACiiigAooooAKKKKACiiigAooooAKKKKACiiigAooooAKKKKACiiigAooooAKKKKACiiigAooooAKKKKACiiigAooooAKKKKACiiigAooooAKKKKACiiigAooooAKKKKACiiigAooooAKKKKACuX8atcLLoPkGQZ1WIPs/u85z7V1FRTvAhj88oMuAm7+92x70AS1zvjv/AJFS5/3k/wDQhXRVzvjv/kVLn/eT/wBCFAEGm/8AIKtP+uK/yqzVbTf+QVaf9cV/lVmvQWxwPcKKKKoQVU1HVbPSY4pb6QxRyvsEmPlU+rHsPerdMmghuYmhnhSaNvvJIu4H8KTv0GrdTkopF1TxLrdzpkyXETab5STRHcpfngH1qi15ZXXhjSNLtpEk1KG5i8yBD+8RlPzEjrXc21pbWUfl2ltFbpnO2JAoz+FNjsLGG5a6isreO4bOZVjAc5681Cja3y/Avn6/1tY5w6hpmn+MNRbUJooZDAAskpABG37ufU1e8Go6+Hoy0bRI7M0aEYwuT2rVn0+xuzm5srec5zmSMNz+NTgAAAAADgAdqIR5d/P87kyd/wAPwVjmtaP/ABW/h/8A7a/+g0mp/wDI/wCnAdfsU2B+VdI0MTyLI8SNIn3XK8r9DQYojKJTEhkUYVyPmA9M0+XS3r+N/wDMfN+VjznTJ4n0/wANxLKjSRaq4kQHlDluD6U+8N1a6vrsM2u2WmpcSEiK6t/MeRCMAoc/pXfJYWUb70s4Fbdv3LGAd3r9aJ9PsbuVZbmyt55E+68kYYr9CamUHL+u5XtFdv8Ardv9StocJt/D1nCZWmCQAB2TaSMdx2rhbdY5fD+jI6qynW2BB6H5jXpVRC0tQqqLaIKrblAQYVvUe9aNXlzen5kRlaNv62a/UwVIHxJdRx/xLug/3q6Om+VH5vneUnm4279vzY9M+lOoirJITd3cKKKKYgooooApa1/yBL3/AK4mtHwb/wAitZf7p/mazta/5Al7/wBcTWj4N/5Fay/3T/M1yV/iOmjszcrO0zR4dMuLuaJ2Y3Um9gexrRrE0TVri/1TUraYDbayBUx6Vgbm3RRRQAUUUUAFFFFABRRRQAUUUUAFFFFABRRRQAUUUUAFcl48/wBTY/8AXda6S+v7bToPOupRGmQMmuZ8cSJLa6fJGwZGmUhh0IoA6uD/AI94/wDdH8qkqjJqdnYrbQ3E6xyTABFJ5NXetAC0UUUAFFFFABRRRQAUUUUAFFFFABRRRQAUUUUAFFFFABRRRQAUUUUAFFFFABRRRQAUUUUAFFFFABRRRQAUUUUAFFFFABRRRQAUUUUAFFFFABRRRQAUUUUAFFFFABRRRQAUUUUAFFFFABRRRQAUUUUAFFFFABRRRQAUUUUAFFFFABRRRQAUUUUAFFFFABRRRQAVzHjS3uLiTQvIR3EeqxO+3sozkn2rp6r3V5bWZhFxKqedII48/wATHoKALFc747/5FS5/3k/9CFdFXO+O/wDkVLn/AHk/9CFAEGm/8gq0/wCuK/yqzVbTf+QVaf8AXFf5VZr0FscD3CiiiqEFc54tur2KfSbW01J9PF3c+XLMmMhcZ78V0dcx4wsI9Sv9Dt57Y3Fu13+9XaSuNp61EleyLh19H+RU1FtS8PG2vYvE8+rbplja0l2EOCcZ+XnjrW1q/iJdMultYNNutRn2b5I7bGY19TmsHUNAtPCWvW2vaXpoa1J8q4hRSxjz0ZR/OovEMUVr4nk1S5vtVs7a8gUQyaepySo5DAA1nzNR+b/Lb9fwKUU38vv1/Q6afxHaRaRDqMcck/2hvLhgT77v/cGe9VG8SzT6TqDrpV7aX1rGWFtIBvIx94HpgVlta2Wn+ELWO4s9R+ztMZBNu3z25JJ8wYHWn6HLdXcGqR2t1fX+nm3YRzXylZfMx90ZAOMU5t+8kKKWj8/1J9G8VXH/AAi2n3V5YXdxfXA2pEoG+fHVh2A+tXY/FcB0++ubmwubWawXdPay48wA9OnHNc9b6vc23hTSIF+02tqgaG9nSBjNEw6bRjP41WsbWW8g8SxWst/erc26+RPeKQ8mB05ApuXvPt/X6FKC69/1sdrca7b239m74pD/AGk4SPH8JIzzVW28Uw3eqXFlDp900dq7LPc8eXHgZ571z76rHq1x4cgtLa5JtLhROzwsoQhcdxz9a1vDi3VuniGSOA+abx2iVxgOdox9RTb3fr+hPL7q76fqSx+MEaaIy6RfQWU0gjivpAPLcnpx15pb3xfHbajdWFtpN5fT2mDKIMcAjOea5C+vJdTSzkkvdUk1BLqNrixELLbpg844xxXVaQkn/CQeI5TE6rL5ZQlcbvk7VHM3FtPv+hTjFP8ArvYqax4ruheaFJpdtczW15L+8EePnHOU57jrXYdQDjGe1eeWqy2OieGLqeCdY7e8cy4jJZQSwBx1716HnIBHQ81suvqzOas0v63YUUUUyQooooApa1/yBL3/AK4mtHwb/wAitZf7p/mazta/5Al7/wBcTWj4N/5Fay/3T/M1yV/iOmjszcqlZ6VbWN1c3MKkSXLbpD6mrtc/ompXN14i1e0mk3R2xTy19M5rA3OgooooAqX+qWWlor3twsKucKW71Q/4S/QP+glF+R/wrH8fqry6SjDKtOQQe44qQ6FpOT/xL4f++a0hBz2M5zUdzU/4S/QP+glF+R/wo/4S/QP+glF+R/wrL/sLSf8AoHw/lR/YWk/9A+H8qv2EiPbLsan/AAl+gf8AQSi/I/4Uf8JfoH/QSi/I/wCFZf8AYWk/9A+H8qP7C0n/AKB8P5UewkHtl2NT/hL9A/6CUX5H/Cj/AIS/QP8AoJRfkf8ACsv+wtJ/6B8P5Uf2FpP/AED4fyo9hIPbLsan/CX6B/0EovyP+FH/AAl+gf8AQSi/I/4Vl/2FpP8A0D4fyo/sLSf+gfD+VHsJB7ZdjU/4S/QP+glF+R/wo/4S/QP+glF+R/wrL/sLSf8AoHw/lR/YWk/9A+H8qPYSD2y7Gp/wl+gf9BKL8j/hR/wl+gf9BKL8j/hWX/YWk/8AQPh/Kj+wtJ/6B8P5UewkHtl2Leo6/wCGNTs3tbnUImRx6Hg+vSuAvtTa2VdOju0vLW3lDwvz+Vdp/YWk/wDQPh/Kk/sHSP8AoHw/980ewkHtl2MfQb7S7m+/tfXNSjM68RQkHCY711v/AAl+gf8AQSi/I/4Vlf2FpP8A0D4f++aX+wtJ/wCgfD+VHsJB7ZdjU/4S/QP+glF+R/wo/wCEv0D/AKCUX5H/AArL/sLSf+gfD+VH9haT/wBA+H8qPYSD2y7Gp/wl+gf9BKL8j/hR/wAJfoH/AEEovyP+FZf9haT/ANA+H8qP7C0n/oHw/lR7CQe2XY1P+Ev0D/oJRfkf8KP+Ev0D/oJRfkf8Ky/7C0n/AKB8P5Uf2FpP/QPh/Kj2Eg9suxqf8JfoH/QSi/I/4Uf8JfoH/QSi/I/4Vl/2FpP/AED4fyo/sLSf+gfD+VHsJB7ZdjU/4S/QP+glF+R/wo/4S/QP+glF+R/wrL/sLSf+gfD+VH9haT/0D4fyo9hIPbLsan/CX6B/0EovyP8AhR/wl+gf9BKL8j/hWX/YWk/9A+H8qP7C0n/oHw/lR7CQe2XY1V8W6C7BV1KIk8Dg/wCFbAIZQQcg8ivOfFGmWNnpaS21rHE/nKNyjnFehWv/AB6Q/wDXNf5VlKPK7GsZcyuS0UUVJQUUUUAFFFFABRRRQAUUUUAFFFFABRRRQAUUUUAFFFFABRRRQAUUUUAFFFFABRRRQAUUUUAFFFFABRRRQAUUUUAFFFFABRRRQAUUUUAFFFFABRRRQAUUUUAFFFFABRRRQAUUUUAFFFFABRRRQAUUUUAFc34v0661CTRDbRFxb6nFLJ/sqM5NdJVPUNUtdMNsLl9puplgj92PQUAXK53x3/yKlz/vJ/6EK6Kud8dDPhW5/wB5P/QhQBBpv/IKtP8Ariv8qs1k2Gt6XHp1tG9/ErrEoYE9Dip/7e0j/oIQ/nXepK25wuLvsX6Kof29pH/QQh/Oj+3tI/6CEP50+aPcXK+xfpc1n/29pH/QQh/Oj+3tI/6CEP50c0e4cr7GgDjpQCR0NZ/9vaR/0EIfzo/t7SP+ghD+dHNHuHK+xoZOc0Ek9az/AO3tI/6CEP50f29pH/QQh/Ojmj3DlfY0NxznNBJPes/+3tI/6CEP50f29pH/AEEIfzo5o9x8r7GhuPrRk1n/ANvaR/0EIfzo/t7SP+ghD+dHNHuLlfY0Nx9aM1n/ANvaR/0EIfzo/t7SP+ghD+dHNHuPlfY0MnOc0lUP7e0j/oIQ/nR/b2kf9BCH86OaPcXK+xfoqh/b2kf9BCH86P7e0j/oIQ/nRzR7hyvsX6Kof29pH/QQh/Oj+3tI/wCghD+dHNHuHK+w7Wv+QJe/9cTWj4N/5Fay/wB0/wAzWDqutaZNpF3FFfRO7xEKoPJNb3g7/kVrL/dP8zXLWab0Omimk7m5VeGxtre5muYowss+PMYfxYqxXN6NdXEvjLXLaSRmiiWIop6LkHOKxNjpKKKKAOO8e/8AHxo//Xwf6VpN941m+Pf+PjR/+vg/0rSb7xrpodTmrboSiiiukwCiiigAooooAKKKKACiiigAooooAKKKKACiiigAooooAKKKKACiiigAooooAKKKKACiiigDC8Y/8gaP/rutdxa/8ekP/XNf5Vw/jH/kDR/9d1ruLX/j0h/65r/KuKt8R10vhJaKKKyNQooooAKKKKACiiigAooooAKKKKACiiigAooooAKKKKACiiigAooooAKKKKACiiigAooooAKKKKACiiigAooooAKKKKACiiigAooooAKKKKACiiigAooooAKKKKACiiigAooooAKKKKACiiigAooooAKwPFOkXOqvpBtgD9k1COeTP90ZzW/Wdq2swaQ1ks4Ym8uVt48f3m6fyoA0ahurSC9t2t7mJZYm6q3Q1NRQBjf8IjoH/QNi/Wj/AIRHQP8AoGxfrWzRQBjf8IjoH/QNi/Wj/hEdA/6BsX61s0UAY3/CI6B/0DYv1o/4RHQP+gbF+tbNFAGN/wAIjoH/AEDYv1o/4RHQP+gbF+tbNFAGN/wiOgf9A2L9aP8AhEdA/wCgbF+tbNFAGN/wiOgf9A2L9aP+ER0D/oGxfrWzRQBjf8IjoH/QNi/Wj/hEdA/6BsX61s0UAY3/AAiOgf8AQNi/Wj/hEdA/6BsX61s0UAY3/CI6B/0DYv1o/wCER0D/AKBsX61s0UAY3/CI6B/0DYv1o/4RHQP+gbF+tbNFAGN/wiOgf9A2L9aP+ER0D/oGxfrWzRQBjf8ACI6D/wBA2L9a1La2htLdILeMRxIMKo6CpaKACokigS4kkRUErgbyOp9M1LXMaQZ/+E/15X8zyRDb7M/dzg5xQB09FFFAHHePf+PjR/8Ar4P9K0m+8azfHv8Ax8aP/wBfB/pWk33jXTQ6nNW3QVgXfih0vJ7bTNGutV+zHbO8DKojbuvPU1v1y9vp9xNf31z4V1aO3leci8iuYjIof1C9j71rNu+hnG1tTa0rVrbV7AXkJ2AErIjnmJh1B+lWRcwPC8sU0cyxgk+W4b+VcPqOo3B8KXcUNnFHdi+EFyICFWclsMfbNTaLY3thq7iPRIdHtJLNvMhW6V/NbHD4FJzetu36XHyW3/rU6jSdXg1bSY9SRTBDJniVgNuDjk1cjljmXdDKkq5xujYMP0rznfcHwNoVrBb/AGqO5unSWAvsEq5JwSelaWmxajpI1oxaZHpFuLXfHax3AkMb4OWwOlNzs35A4fn+tjsWu7Ubx9phLICWUSDIx6iquiazb69p4vbYbVLspQsCRg45xWBYeG9Bm0Gz1G4RI7ieMNJcbtrTsw5VvXPpU/w9s7a28Mq8ECRNLNJvKj72GIH6U1e7T6CaXLdd/wDM0NK8SW2raxfaZHBJHJYttZ3Iw/0pdL8R22raxf6ZDBIr2JAeRujZ9K5OxuE0zVtV1FmCK1+8TuR/sfL+tSaR51lfa/OhK3P9mJKSBzvweahSdrvt+JcoK7S8rfekd2lxBJIY47iJ5B1RXBYfhSPc28X+tuIY+cfPIBz+NeeaPZagjaTf2+gw2U0kqma+N4ubhTywI7k+lbC6Jp2q6/rz6hbC4EZ+RH5VDt6getU5O33/AIEcqv8A13sdYbi3EgjNxEHYZCeYMn6CqbaxbR6q+nSkRMiBzJI4VTntzXDy6VaQeB7bVQrSahHPGEunOZFXfjaD6VuXGk6drXjNk1KJLgC2UiB/utx1x7UnJ3Vu/wClx8qSbf8AWqX6nVF0EfmF1CYzv3DGPrTY5oZULxTRyIOrI4YD8RXntzc3P/CJQWdqjXUD6gYPLZ9vmJk/LuPQcVd02zvbCbVEGkRaRZvZM32VLlZDvx9/A6cUe00bXb9LhyW0/rex2q3Fu+7bcRNtGWxIDtHv6UiXMEsbPDNHMEGT5bhsflXFabods3gC1a0MUF3dojSu7YNxg/6sn36VZ0GO3sNYltX0I6HdSwFlt4pg8coA5YgdCKcpNXXr+QuVWv8A1vY39I12z1ixjuo3SEyMyiKSQb+Djp+FWVu2N/JbNAVRIw/nFxg+2Ov415zDpFjB8Pm1hIF+3pMzJcH7yfvMcVvSsT4n1diTk6KD/Ohyavfpf8rjcFd2/rWx1q3Fu8nlpcQs5GQiyAkj6VW1fU49H0qfUJY2lSBdxROprhNP0ixtPB2lavbvjUDPGBcq3zsCeY8+ntXU+NSzeDL8kbWMPI9DxRJuz7hGK50uhAfF93DCtzeeGL+1tDgtcPIhVAehIHNattrMF1rM+mRxvvhhWbzP4WDdMViLofiTVNMgtNR1qzaxkRC8cNsVcgYIG7NNh8i18X6yJJGhgi02Pc6n5lUE8j3oTavfzEknG6/rVHUrc2zyGJLmFpB1RZAWH4UPc20RxLcwxnph5AP5151cxw2smlXunaCbWCa7jC6q0w8yZT13L15rRt9G0/Vdc8TS39utz5Mg8tX5CfLnI96XO+W/r+Fv8yuRd/6vY7gEEZBBB7iisXwbNJceErCSVy7lCCT9TW1WzVnYyMLxj/yBo/8Arutdxa/8ekP/AFzX+VcP4x/5A0f/AF3Wu4tf+PSH/rmv8q4a3xHXS+ElooorI1CiiigAooooAKKKKACiiigAooooAKKKKACiiigAooooAKKKKACiiigAooooAKKKKACiiigAooooAKKKKACiiigAooooAKKKKACiiigAooooAKKKKACiiigAooooAKKKKACiiigAooooAKKKKACiiigArM13QLHxFZpa34k2RyCVGikKMrDoQRWnRQBBa2qWloltG0jIi7QzsWY/UnrWDL4HsZbprg6hqYZn3bVu3C/lXS0UAReQBbeQGbG3buzz+dc/F4NSG6WddVvzht21piQf1rpaKAIbmAz2rwLI0ZZcb16isOx8L3FpdxztrN1MEOSjHg/rXRUUAVdRtHvbN4I7hrdm6SJ1FZel+HrvT7xZ5dYuLlQMeW44P61vUUAUdWsJ9RtPJt7x7R858xBk1U0fRLzTbhpLjVpbxSMBXXGK2aKAMzWdNu9RjRbTUXsipyWVd2abo2l3uneZ9r1OS93dN6bdtatFAGRrOlajqEkbWWrvYhR8wWMNuqbR7C8sLdo7zUGvXJyHZAuK0aKAMTVtE1G/uhLbazLZpjHlrGCP51f0uznsbMQ3N211IDzIy4Jq5RQBz+o6Bqd5ePPBrsttG3SNYwQP1rYsreW2s44ZpzO6jBkIwWqxRQBzlz4a1Ge7eZNfniRmyECcD261vRRMlssTSFmC4LnqfepaKAOa/wCEWvftPnf29c7d+7Zjj6da6CWEy2zQ72Uldu4dfrUtFAHN2vhKS2uknOsXkgRs7Gc4P61uX1oL60kt2keMOMbo2wR9DViigDn9N8Jx6deJcrqV9KU/hkmZlP4Vp6ppkWrWbWs0s0St/FDIUb8xV2igDD0nwpZaPd/aYLq/lcjGJ7pnX8jW0EUMWCgMepxyadRQAUUUUAcd49/4+NH/AOvg/wBK0m+8azfHv/Hxo/8A18H+laTfeNdNDqc1bdCVjaj4U0vU7s3chuoJWGHNrO0W/wBzjqfetmit3FPcxTa2KMei6fHpbaasH+juMNk5Zvcn196r6X4Z0zSDI1sJ5HkXYXnlMjBfQE9BWtRRyq9wu7WMw+HdMOijR/KcWgyVAc7lOc5DdqdpWg6fo0ciWySSGX/WPO5kZh6Ent7Vo0UWV7hdmLb+EdItr77YqTuwYssUkxaJSe4Q8Crml6NZ6MJlshIqzPvZWcsAfYdqvUUJJbA23uZUvhnSpre5t5IGMd3OJ5RvPLjoR6dKtRaVZw3898kR864jWOTJyCo6DFW6KdkDbZi2fhHSLG/F7Ek7SBiypJMWjQnuFPArRi062huLqdEIku/9ac9eMfhVmilyq1gbb1M6TQdOk0ldKaJjaqwYLvOcg5HP1qHUvC+marP59x9oSXaF3wzFDgdsiteihxTDmZRk0TT5NIOlGDFrjGFOGHuD6+9Qaf4a0zTIJ4oFmf7QpSR5pS7lfTce1atFHKm2wu7WM6TQNOl0aPSGib7JEAEAb5lx0IPrTNL8OafpDSPb+fLJIMGS4mMjAegJ6VqUUcqu2F3axm/8I7pn9inR/Kf7GSSU3nOSc9frRc6Lbs15dQIRd3FobcMW4xjgVpUUOKaY+ZnMeHvBVlplvZy3SyNdwINyecWiDeoXpn3rf1Cwt9UspbK7UvDMMOAcEj61Yop2WwuZ3v1EjRYokjQYVFCj6Cqn9kWJvri9MRaa6iEUuTkMo7Yq5RQ1cSdtjn08EaKkiv8A6Y4Rw6RvcsUQjpgdq1LfSLO1lu5IkYNekGYls7sDH4cVcopcqtYfMyvp9hb6XYx2VopWCIYUE5I/GrFFFUIwvGP/ACBo/wDrutdxa/8AHpD/ANc1/lXD+Mf+QNH/ANd1ruLX/j0h/wCua/yrirfEddL4SWiiisjUKKKKACiiigAooooAKKKKACiiigAooooAKKKKACiiigAooooAKKKKACiiigAooooAKKKKACiiigAooooAKKKKACiiigAooooAKKKKACiiigAooooAKKKKACiiigAooooAKKKKACiiigAooooAKKKKACiiigAooooAKKKKACiiigAooooAKKKKACiiigAooooAKKKKACiiigAooooAKKKKACiiigAooooAKKKKACiiigDjvHv/AB8aP/18H+laTfeNZfxBcRNpUrZ2JMWYgduKgPi/RyT+8l/79muijJK9zCrFtqxtUVi/8Jfo/wDz0l/79mj/AIS/R/8AnpL/AN+zW/tI9zDkl2NqisX/AIS/R/8AnpL/AN+zR/wl+j/89Jf+/Zo9pHuHJLsbVFYv/CX6P/z0l/79mj/hL9H/AOekv/fs0e0j3Dkl2NqisX/hL9H/AOekv/fs0f8ACX6P/wA9Jf8Av2aPaR7hyS7G1RWL/wAJfo//AD0l/wC/Zo/4S/R/+ekv/fs0e0j3Dkl2NqisX/hL9H/56S/9+zR/wl+j/wDPSX/v2aPaR7hyS7G1RWL/AMJfo/8Az0l/79mk/wCEv0cf8tZf+/Zo9pHuPkl2NuisX/hL9H/56S/9+zR/wl+j/wDPSX/v2aPaR7i5JdjaorF/4S/R/wDnpL/37NH/AAl+j/8APSX/AL9mj2ke4ckuxtUVi/8ACX6P/wA9Jf8Av2aP+Ev0f/npL/37NHtI9w5JdjaorF/4S/R/+ekv/fs0f8Jfo/8Az0l/79mj2ke4ckuxtUVi/wDCX6P/AM9Jf+/Zo/4S/R/+ekv/AH7NHtI9w5JdjaorF/4S/R/+ekv/AH7NH/CX6P8A89Jf+/Zo9pHuHJLsbVFYv/CX6P8A89Jf+/Zo/wCEv0f/AJ6S/wDfs0e0j3Dkl2GeMf8AkDR/9d1ruLX/AI9If+ua/wAq828Q69Yapp6W9q8jSCUNhkxxXpNr/wAekP8AuL/KuSq05aHVSTUdSWiiiszQKKKKACiiigAooooAKKKKACiiigAooooAKKKKACiiigAooooAKKKKACiiigAooooAKKKKACiiigAooooAKKKKACiiigAooooAKKKKACiiigAooooAKKKKACiiigAooooAKKKKACiiigAooooAKKKKACiiigAooooAKKKKACiiigAooooAKKKKACiiigAooooAKKKKACiiigAooooAKKKKACiiigAooooAKKKKACiiigCOa3huFCzRJIB0DqDUP9mWH/Plb/8Afpf8KtUUAVf7MsP+fK3/AO/S/wCFH9mWH/Plb/8Afpf8KtUUAVf7MsP+fK3/AO/S/wCFH9mWH/Plb/8Afpf8KtUUAVf7MsP+fK3/AO/S/wCFH9mWH/Plb/8Afpf8KtUUAVf7MsP+fK3/AO/S/wCFH9mWH/Plb/8Afpf8KtUUAVf7MsP+fK3/AO/S/wCFH9mWH/Plb/8Afpf8KtUUAVf7MsP+fK3/AO/S/wCFH9mWH/Plb/8Afpf8KtUUAVf7MsP+fK3/AO/S/wCFct43tLaGGy8q2iTM4B2oBmuzrkvHn+psf+u60AdBDptiYIybK3+6P+WQp/8AZlh/z5W//fpf8Kmg/wCPeP8A3R/KpKAKv9mWH/Plb/8Afpf8KP7MsP8Anyt/+/S/4VaooAq/2ZYf8+Vv/wB+l/wo/syw/wCfK3/79L/hVqigCr/Zlh/z5W//AH6X/Cj+zLD/AJ8rf/v0v+FWqKAKv9mWH/Plb/8Afpf8KP7MsP8Anyt/+/S/4VaooAq/2ZYf8+Vv/wB+l/wo/syw/wCfK3/79L/hVqigCr/Zlh/z5W//AH6X/Cj+zLD/AJ8rf/v0v+FWqKAKw02xByLKAEf9MxVjoMClooAKKKKACiiigAooooAKKKKACiiigAooooAKKKKACiiigAooooAKKKKACiiigAooooAKKKKACiiigAooooAKKKKACiiigAooooAKKKKACiiigAooooAKKKKACiiigAooooAKKKKACiiigAooooAKKKKACiiigAooooAKKKKACiiigAooooAKKKKACiiigAooooAKKKKACiiigAooooAKKKKACiiigAooooAKKKKACiiigAooooAKKKKACiiigAooooAKKKKACiiigAooooAKKKKACuS8ef6mx/67rXW1yXjz/U2P/XdaAOpg/wCPeP8A3R/KpKjg/wCPeP8A3R/KpKACiiigAooooAKKKKACiiigAooooAKKKKACiiigAooooAKKKKACiiigAooooAKKKKACiiigAooooAKKKKACiiigAooooAKKKKACiiigAooooAKKKKACiiigAooooAKKKKACiiigAooooAKKKKACiiigAooooAKKKKACiiigAooooAKKKKACiiigAooooAKKKKACiiigAooooAKKKKACiiigAooooAKKKKACiiigAooooAKKKKACiiigAooooAKKKKACiiigAooooAKKKKACiiigAooooAKKKKACiiigAooooAKKKKACiiigAooooAK5Lx5/qbH/AK7rW3r02oW+mPNpqK8yHJUjqO+K4/XNdg1zS7CVSEnSdRLGeqnNAHfQf8e8f+6P5VJXKDxHc32s2+naOiyRRAGeUjjHeuqHTmgBaKKKACiiigAooooAKKKKACiiigAooooAKKKKACiiigAooooAKKKKACiiigAooooAKKKKACiiigAooooAKKKKACiiigAooooAKKKKACiiigAooooAKKKKACiiigAooooAKKKKACiiigAooooAKKKKACiiigAooooAKKKKACiiigAooooAKKKKACiiigAooooAKKKKACiiigAooooAKKKKACiiigAooooAKKKKACiiigAooooAKKKKACiiigAooooAKKKKACiiigAooooAKKKKAOc8W65e6OlotiqGS4cr84z6Y/nWX/anjQf8u9p+n+NTePf+PjR/+vg/0rSb7xranBS3Mqk3HYx/7V8af8+9p+n+NH9q+NP+fe0/T/GteitfYRMvbSMj+1fGn/Pvafp/jR/avjT/AJ97T9P8a16KPYRD20jI/tXxp/z72n6f40f2r40/597T9P8AGteij2EQ9tIyP7V8af8APvafp/jR/avjT/n3tP0/xrXoo9hEPbSMj+1fGn/Pvafp/jR/avjT/n3tP0/xrXoo9hEPbSMj+1fGn/Pvafp/jR/avjT/AJ97T9P8a16KPYRD20jI/tXxp/z72n6f41z1/wCHtd1C7e5e0gR3OSI2CjP0ruKKPYRD20jmdJj8UaLbGC0tLUAnJY4JP1NX/wC1fGn/AD72n6f41r0UewiHtpGR/avjT/n3tP0/xo/tXxp/z72n6f41r0UewiHtpGR/avjT/n3tP0/xo/tXxp/z72n6f41r0UewiHtpGR/avjT/AJ97T9P8aP7V8af8+9p+n+Na9FHsIh7aRkf2r40/597T9P8AGj+1fGn/AD72n6f41r0UewiHtpGR/avjT/n3tP0/xo/tXxp/z72n6f41r0UewiHtpGR/avjT/n3tP0/xo/tXxp/z72n6f41r0UewiHtpGDeeJPFWmxLPeQ2yxFwvAB5/Ou7hcyQRuerKD+lcL4x/5A0f/Xda7i1/49If+ua/yrnqRUZWRvCTkrsloooqCwooooAKKKKACiiigAooooAKKKKACiiigAooooAKKKKACiiigAooooAKKKKACiiigAooooAKKKKACiiigAooooAKKKKACiiigAooooAKKKKACiiigAooooAKKKKACiiigAooooAKKKKACiiigAooooAKKKKACiiigAooooAKKKKACiiigAooooAKKKKACiiigAooooAKKKKACiiigAooooAKKKKACiiigAooooAKKKKAOO8e/wDHxo//AF8H+laTfeNZvj3/AI+NH/6+D/StJvvGumh1OatuhKKKK6TAKKKKACiiigAopSCOoxQQR1FIBKKKXFMBKKKKACinBGIyFP5UhBBwRikAlFFFMAooooAKKKKACilAJ6CkoAKKKKACiiigAooooAwvGP8AyBo/+u613Fr/AMekP/XNf5Vw/jH/AJA0f/Xda7i1/wCPSH/rmv8AKuKt8R10vhJaKKKyNQooooAKKKKACiiigAooooAKKKKACiiigAooooAKKKKACiiigAooooAKKKKACiiigAooooAKKKKACiiigAooooAKKKKACiiigAooooAKKKKACiiigAooooAKKKKACiiigAooooAKKKKACiiigAooooAKKKKACiiigAooooAKKKKACiiigAooooAKKKKACiiigAooooAKKKKACiiigAooooAKKKKACiiigAooooAKKKKAOO8e/wDHxo//AF8H+laTfeNZvj3/AI+NH/6+D/StJvvGumh1OatuhKKKK6TAKKKKACg9D9KKD0P0qZbMa3OJ8G6rcRy6s+oXUksZnkaLzHztVTyBT/CepXkI1+e+knu/ImVo41yx2kZAUVTi0jVodNTyrOQSS30scileRC7cv9MVo21jrFgPETafE0Vw7R/ZZGHDgLgkVGqu+yt+X9fI2aTbXd/rb+vU0LPxBqi6laWusaIthHesVt5Fn8wsRzgjtxVCx1+e2mv7eJHv703bLFbl8bVz3PYVk2Vgz+I9Jv7XSNYjkhlJu5LwnacjGVGcDmtKDR7yzu77WLe2dbyO6dguOZoieQPw6Uk3pfzv96JaXTy/U07/AMQalFeGy0zR1vrmGISXSedtEXGcA961dNv4dTsIryDOyQdD2I4I/OuL1vSom12XVbvRtUvI76JSiWchRoSBja4BFdX4dsV03RLe3W1+ygAnyd5fbk56nvVQbad/63/r/hyZpK1v60/zOOsxo9/qOqtrfia6s5Y7xkSJb7ygE7YFa+gavdW/h+4lEdxqCpctFZk5LSjPy5Pp/tVL4d0KHzdVk1LSoWeW9do2niDFkxwRntV/xGt/BooTR4ym11EkcKjcYv4go9cVCTjG/kv0LbUp28yC38Qamt1JY6noq2l55BnhjSfeJFHXntVga+HW0aG38z7QjO/z/wCrAB5/MYrm/D+nCLxbHe2elapa2r2zRytfsSQxPUZJwK0PD+nSRXGsHIkSBXtrfBzlSM/zNNN2+X5X/O6+4lpfl+P+Q3/hNb1bKPU5NCYaazBGmEuXDE44TuPetCw8Q3k2sR6dqOliy+0RtLbOJd/mKPUdj7VSbT70+CLW0FtJ9oSWMtHj5gAeat39ncyeLtIuUgdoYraRZJAOFJxgGmrp/wBdv8waWvz/AAIW8W3XmvdR6Tv0aOXy3vvN5HbOz0zxUuoeJL2HWm0nTNJ+3XCwiYFpdi4Pqa5VPDUNvNJps+g6jeXDTkidZ2W1YE5ycHjH0rq7KxuIfG11ceQ62xsUjWT+EsD0zSXM4rX+rf5/5Dkopu39a/5GL4g8SaleaFY3enWhjk+3LDOgm27XB+5nuD613EZkaJGlQRyEAsgOQp9M1wUulalH4al/0CZ5ItYNx5Kr87x7s5ArvI5POiSXYyb1B2OMMvsfetI7P+uiJnpZLz/MdRRRVEBRRRQAUUUUAYXjH/kDR/8AXda7i1/49If+ua/yrh/GP/IGj/67rXcWv/HpD/1zX+VcVb4jrpfCS0UUVkahRRRQAUUyQuImMYBfB2hjgE9q5yO78cG5Ak0vSFh3csLly238utAHTUVDObj7KxgVDPt+UMflzWFZv4wa7j+2Q6ckGfn8uRicflQB0dFVr8XbWbixKC4x8pfpWTpkPidbxW1Ge1aDHzLH1/lQBv0VR1aLUJrMpptwsE+eGYZFUtIs9eguWfU9RjniI4RUAwaANuis3WbPU7yFF03UfsTg/M3lh8j8aj0aw1ezaQ6nqovg33R5QTb+VAGtRWRrWm6tftGdN1ttOC/eCwLJu/OpdGsdSsYHTUtVbUXJyrmJY8D6CgDSorD1jSNZvroSWHiCTT4wMGNYFfJ9cmr2k2l5ZWYivtQa/lB5lZAhP4CgC9RWBqeg6te3jTW3iKe0jPSJYlIH4mtawt5rWzjhuLlrmRRzKwALfgKALNFc5d+G9VuLt5ovEdxCjHIjWNSFrdgieK1WJ5TI6rgyEck+tAE1Fc03hfUTdGUeIboLv3bNgxj0roHhL2xh8wgldu8dfrQBLRXN2/hOeC6Sc61duFbOwng+1bt5bm6tHgWVoi4xvXqKAJ6K57T/AAvNY3iXDavdTBP4H6GtXU7FtQs2t0uHty38adRQBcorC0rw7Lpt3576pcXIxjZJ0q7q+lnVbYQi6lt8HO6M4NAGhRWPo2gHSZnkN/Pc7xjEpyBUms6PJqyxhL6a12f88+9AGpRWXo2jyaSkivfTXW89ZO1RaxoMuqzJImoz2oUY2x9DQBs0VQ0jTX0u1ML3clySc75OtUdV8OTaleGdNVuLYEY2R9KAN2iqmm2TafZpbtcPOV/jfqayL/w3f3l5JPFr1zbox4jVAQtAHRUVBaQPb2iQvM0rKMGRhyawZ/DWqy3TTJ4kuY0ZsiMRLgD0oA6WiolicWwi80l9uPMxzn1rn08Oa2t0JW8UXDRh93l+SuCPSgDpaKhuIpZbR4opzFKVwsoAJU+uKwbLQPENveRy3Hiua5iU5aI2yKGHpkUAdJRVXUILm5snitLs2kzfdlCBtv4GsnS9G1+0vVlvvEr3sIHMJtkTP4igDoKKo6tbX91aeXp979jmz/rNgb9DVPR9O1y0uWfUtZF7ERwnkhcH6igDaorN1m21W5hQaXeLauD8xZA2RUejWms2xk/tS/S6B+7tQLigDWorJ1mLXJHj/smaGNR9/wAwdak0aPVo4GGrSxSSZ+Ux9MUAaVFYmrnxJ9qH9kpZmHHPnOQc/gKvaV/aP2Mf2oIRcZ5EJJWgC7RXP6lc+Lo7x10zT9Mltv4WnnZWP1AFa9g149nG1/HFHcEfOsTFlB9iaALNFFFABRRRQAUUUUAFFFFABRRRQAUUUUAFFFFABRRRQAUUUUAFFFFABRRRQAUUUUAFFFFABRRRQAUUUUAFFFFABRRRQBx3j3/j40f/AK+D/StJvvGs3x7/AMfGj/8AXwf6VpN94100OpzVt0JRRRXSYBRRRQAUUUUALk+tGaSigBdxPc0ZNJRSAXJHQmkoopgLmjpSUUAJKizxNFKCyOMMM9RUNjY2um2q2tnCIoV6KDn9anopWAXJopKKYC5OMZOKKSikAuT60UlFMAooooAKKKKACiiigDC8Y/8AIGj/AOu613Fr/wAekP8A1zX+VcP4x/5A0f8A13Wu4tf+PSH/AK5r/KuKt8R10vhJaKKKyNQooooAqare/wBm6Td323f9mheXb67QTj9KNKvf7R0m0vtuz7TCku303AHH60upWS6jpl1YuxVbmFoiR2DDH9aXTbNdO0y1sUYsttCsQJ7hRj+lAE7ukYy7BR6k4pn2q3/57x/99iuX+IZP9j26gkBpwDj6VnDwbpZAO+45AP36uMHLYiU1Hc7n7Vb/APPeP/vsUfarf/nvH/32K4b/AIQ3S/79x/33R/whul/37j/vuq9jIn20TuftVv8A894/++xR9qt/+e8f/fYrhv8AhDdL/v3H/fdH/CG6X/fuP++6PYyD20TuftVv/wA94/8AvsUfarf/AJ7x/wDfYrhv+EN0v+/cf990f8Ibpf8AfuP++6PYyD20TuftVv8A894/++xR9qt/+e8f/fYrhv8AhDdL/v3H/fdH/CG6X/fuP++6PYyD20TuftVv/wA94/8AvsUfarf/AJ7x/wDfYrhv+EN0v+/cf990f8Ibpf8AfuP++6PYyD20TuftVv8A894/++xR9qt/+e8f/fYrhv8AhDdL/v3H/fdH/CG6X/fuP++6PYyD20TuftVv/wA94/8AvsUfarf/AJ7x/wDfYrhv+EN0v+/cf990f8Ibpf8AfuP++6PYyD20TuftVv8A894/++xR9qt/+e8f/fYrhv8AhDdL/v3H/fdH/CG6X/fuP++6PYyD20TuftVv/wA94/8AvsUfarf/AJ7x/wDfYrhv+EN0v+/cf990f8Ibpf8AfuP++6PYyD20TuftVv8A894/++xR9qt/+e8f/fYrhv8AhDdL/v3H/fdH/CG6X/fuP++6PYyD20TuftVv/wA94/8AvsUfabf/AJ7x/wDfYrhv+EN0v+/cf991n654bsdM0qS7t3m8xGUDc2RyaHSklcaqxbsem5GN2Rj1qP7Vb/8APeP/AL7FZFw7f8IQz7ju+xA57/drj9G8M2GoaVDdzvMJJM52tgdaiMXJ2RUpKKuz0f7Vb/8APeP/AL7FH2q3/wCe8f8A32K4b/hDdL/v3H/fdH/CG6X/AH7j/vur9jIj20TuftVv/wA94/8AvsUfarf/AJ7x/wDfYrhv+EN0v+/cf990f8Ibpf8AfuP++6PYyD20TuftVv8A894/++xR9qt/+e8f/fYrhv8AhDdL/v3H/fdH/CG6X/fuP++6PYyD20TuftVv/wA94/8AvsUfarf/AJ7x/wDfYrhv+EN0v+/cf990f8Ibpf8AfuP++6PYyD20TuftVv8A894/++xR9qt/+e8f/fYrhv8AhDdL/v3H/fdH/CG6X/fuP++6PYyD20TuftVv/wA94/8AvsUfarf/AJ7x/wDfYrhv+EN0v+/cf990f8Ibpf8AfuP++6PYyD20TuftVv8A894/++xR9qt/+e8f/fYrhv8AhDdL/v3H/fdH/CG6X/fuP++6PYyD20TuftVv/wA94/8AvsUfarf/AJ7x/wDfYrhv+EN0v+/cf990f8Ibpf8AfuP++6PYyD20TuftVv8A894/++xR9qt/+e8f/fYrhv8AhDdL/v3H/fdH/CG6X/fuP++6PYyD20TuftVv/wA94/8AvsUfarf/AJ7x/wDfYrhv+EN0v+/cf990f8Ibpf8AfuP++6PYyD20TuftVv8A894/++xR9qt/+e8f/fYrhv8AhDdL/v3H/fdNfwdpaxuwe4yqkj5/aj2Mg9rE75XVxlGDD1BzWDpmrXNz4z1rTJGBgs44GjHcFgSaq/D1mbw8+STidgPbgVvwaZa2+pXOoRx4uLpVWVvUL0rI1LdFFFABRRRQAUUUUAFFFFABRRRQAUUUUAFFFFABRRRQAUUUUAFFFFABRRRQAUUUUAFFFFABRRRQAUUUUAFFFFABRRRQBx3j3/j40f8A6+D/AErSb7xpvivQbvWktGs5Ujkt3LAv+H+FZf8AYPi//oKW/wCX/wBatadRQ3MqkHLY1aKyv7B8X/8AQUt/y/8ArUf2D4v/AOgpb/l/9atfbx7GXsZGrRWV/YPi/wD6Clv+X/1qP7B8X/8AQUt/y/8ArUe3j2D2MjVorK/sHxf/ANBS3/L/AOtR/YPi/wD6Clv+X/1qPbx7B7GRq0Vlf2D4v/6Clv8Al/8AWo/sHxf/ANBS3/L/AOtR7ePYPYyNWisr+wfF/wD0FLf8v/rUf2D4v/6Clv8Al/8AWo9vHsHsZGrRWV/YPi//AKClv+X/ANaj+wfF/wD0FLf8v/rUe3j2D2MjVorK/sHxf/0FLf8AL/61Z2rxeKNHSFp9SiYSuEG0d/yo9vHsHsZHTUVkJofi50DDVIORnp/9anf2D4v/AOgpb/l/9aj28ewexkatFZX9g+L/APoKW/5f/Wo/sHxf/wBBS3/L/wCtR7ePYPYyNWisr+wfF/8A0FLf8v8A61H9g+L/APoKW/5f/Wo9vHsHsZGrRWV/YPi//oKW/wCX/wBaj+wfF/8A0FLf8v8A61Ht49g9jI1aKyv7B8X/APQUt/y/+tR/YPi//oKW/wCX/wBaj28ewexkatFZX9g+L/8AoKW/5f8A1qP7B8X/APQUt/y/+tR7ePYPYyNWisr+wfF//QUt/wAv/rUf2D4v/wCgpb/l/wDWo9vHsHsZFfxj/wAgaP8A67rXcWv/AB6Q/wDXNf5VxF14U8S38aw3moW8kQYNj3/Ku5hTy4UjJztUCsJy5ndG8IuKsx9FFFQWFFFFAFLWbx9P0S+vYwC9vbvIoPchSaNGvH1DRLG9kAD3FukjAdiVBqa+tI7+wuLObPl3EbRvj0IwaLG0jsLGCzhz5dvGsaZ9AMCgDmfiH/yCbX/r4FXR91f90fyql8Q/+QTa/wDXwKuj7q/7o/lXTQ6nPX6BRRRXSc4UUUUAFFFFABRRRQAUUUUAFFFFABRRRQAUUUUAFFFFABRRRQAVj+LP+Rem/wB9f51sVj+LP+Rem/31/nUT+FlQ+JG1cf8AIjH/AK8h/wCg1keGP+Rdtf8AgX8617j/AJEY/wDXkP8A0Gsjwx/yLtr/AMC/nXNR+I6K3wmrRRRXYcoUUUUAFFFFABRRRQAUUUUAFFFFABRRRQAUUUUAFFFFABRRRQAU2X/US/7jfyp1Nl/1Ev8AuN/Kk9gK3w8/5F+T/ru38hU+k6hdT+OtespJS0FvFbmJP7pZTmoPh5/yL8n/AF3b+QrpI7S2iu5rmONRPMAJHHVgOma849AnooooAKKKKACiiigAooooAKKKKACiiigAooooAKKKKACiiigAooooAKKKKACiiigAooooAKKKKACiiigAooooAKKKKACiiigAooooAKKKKACiiigAooooAKKKKACiiigArkvHn+psf+u611tcl48/1Nj/ANd1oA6mD/j3j/3R/KpKjg/494/90fyqSgAooooAKKKKACiiigAooooAKKKKACiiigAooooAKKKKACiiigDP166lsdA1C7hOJYLaSRD6EKSKXQrqW90DT7uY5lnto5HPqSoJq1c28V3ay2067opkKOvqCMGi2t4rS1itoV2xQoERfQAYFAHL/EP/AJBNr/18Cro+6v8Auj+VUviH/wAgm1/6+BV0fdX/AHR/Kumh1Oev0Ciiiuk5wooooAKKKKACqlhq1hqjzpZXCytbOUlUDBRquV5/oELWC32uW2dyahKlyo/jjz1P0qL2l5FKN436nbwaha3V3cWkMu+a2IEqY+7nkVZKkDJBrkNKmEus+JZ7a7jtw6xMlxIMqgK9TWbZajDZeJdNt7HUtWupLmfy7j7YGMLrjOUJ460lLVJ9RuO7XT/K56CFJ6A0bTjODiuKeyvNUm1ueTV72FbKVzbpDKVAIGfm9R7VXf8AtC00nS9fl1W5lu5riKKSIORCyn/Z9feiM72+X4g4a2O9Ck9ATSVwPiDV1uvEd7aXN1q9slmoEI05GYMxGfnxXW+Hr251DQrW5vIniuGX51ddp/KnCXMrilHlt/XmaNFFFWSFFFFABRRRQAVj+LP+Rem/31/nWxWP4s/5F6b/AH1/nUT+FlQ+JG1cf8iMf+vIf+g1keGP+Rdtf+BfzrXuP+RGP/XkP/QayPDH/Iu2v/Av51zUfiOit8Jq0UUV2HKFFFFABRRRQBDeXlvp9pJd3UnlwxDLtjOKkikSeJJYm3I4ypHcVzHjHVIILqwsJ0uJInbzZlgiMhKDjBA7VSsfEbweC7xrdZVktJhbx+ahV9rHGSD061mp3uacj08zr7m+trOeCC4k8uS4JESkH5iOtSXM0dpayXM7bIYl3O2M4FcVdaFLpWu6HIdTurtXLeYLmTec4H3fSo7y0uvEOh6trLandQurSRx26yYhAQ45XvmolUajJ9r/AKBGCbXZ2/G/+R3NvNHdwJPAd8bjKsB1FSBSegNcJZQ3Opa5p2mtqNzbWy2AlZbeTZuYMKp6prButY1HzLrWIpbF/KtY7KNmicryN+OpPetJTs/v/DQUYNr7vxPRwCegzQQQcEc1x+s3d/daRpd1drf29nJHm9+xAidX7AAc49an0ma6m8LXq6RfzXs6Ai3F2pWZD6Pnv6UOVr+QlHbzOpKkdQRSVxfhq5txrMccOqasJHTE1vqSsVc9/LJ9/wBK7WqTurias7CUUUUxBRRRQAU2X/US/wC438qdTZf9RL/uN/Kk9gK3w8/5F+T/AK7t/IVJo81w/j/xBE7uYUitzGp6AlTnFR/Dz/kX5P8Aru38hXTIIBcSFNnnEDzMfe9s15x6BLRRRQAUUUUAFFFFABRRRQAUUUUAFFFFABRRRQAUUUUAFFFFABRRRQAUUUUAFFFFABRRRQAUUUUAFFFFABRRRQAUUUUAFFFFABRRRQAUUUUAFFFFABRRRQAUUUUAFFFFABXJePP9TY/9d1rra5Lx5/qbH/rutAHUwf8AHvH/ALo/lUlRwf8AHvH/ALo/lUlABRRRQAUUUUAFFFFABRRRQAUUUUAFFFFABRRRQAUUUUAFFFFAGb4inktvDepTwsUkitZHRh2IUkGl8PTyXPhvTZ5mLyS2sTOx7kqCTV6aOOaF4pVDRupVgehB60QxxwwpFEoWNFCqB0AHSgDlfiH/AMgm1/6+BV0fdX/dH8qpfEP/AJBNr/18Cro+6v8Auj+VdNDqc9foFFFFdJzhRRRQAUUUUALWZo+ix6TbXUHmm4S5neZgy4xu6rWlRSsh3drHN2fgmztINWt/tMkkGqEbkP8Ayz9ge4pI/CmoPPYve+IHuI7CTfBGLcIF4xjj2rpaKnkSt5foNybv/W5m2+irbpqKidm+3szHj7mRiq9x4bS40Sz0s3TKtrKkok28tt7Yraop8qDmd7mHqPh+8mv3vNK1mTTHmTbcBYw/m+/PQ4rWs7YWVnFbLI8gjGN8jZZvcmpqKEkthN3CiiiqEFFFFABRRRQAVj+LP+Rem/31/nWxWP4s/wCRem/31/nUT+FlQ+JG1cf8iMf+vIf+g1keGP8AkXbX/gX8617j/kRj/wBeQ/8AQayPDH/Iu2v/AAL+dc1H4jorfCatFFFdhyhRRRQAUUUUAVILAQ6pPqBlLySgKgxjy17gVUu/D0N7f3NxLM3lXUIjkhxwWByHz61rUVPKth8zvc5qHwleHUrO9vtdlu/sWfJQxBQAex9aNR8ITXYure01iSysLvJltljDZJ6kN2zXS0VLpxasNTadzHsPDkdhqkF+t0zmG1+zBCvUZznNQ3nhu8kvp59N1uXTobrm4hSMN5h7kHsTW9RVOKe4lJox77Q7qX7K+m6xPYTWybBIR5gce4PU+9Mt/DXl6bdwTX8sl5eHdNeINjFh0IA6Yrboo5Vr5hd6GFZ+Hr0ahBeavrT6mbX/AI91MIj8s9M8deK3qSimlZWE9dQooopgFFFFABTZf9RL/uN/KnU2X/US/wC438qT2ArfDz/kX5P+u7fyFP0eO4X4geIHdXELRW/lk/dJ2nOKZ8PP+Rfk/wCu7fyFdLHc28l1LBHIhmiAMijqoPTNecegTUUUUAFFFFABRRRQAUUUUAFFFFABRRRQAUUUUAFFFFABRRRQAUUUUAFFFFABRRRQAUUUUAFFFFABRRRQAUUUUAFFFFABRRRQAUUUUAFFFFABRRRQAUUUUAFFFFABRRRQAVyXjz/U2P8A13WurZlQZZgB6k1ynjz/AFNh/wBd1oA6mD/j3j/3R/KpKihZVgi3MBlQBk9eKloAKKKKACiiigAooooAKKKKACiiigAooooAKKKKACiiigAooooAzPEjSJ4Y1RoiwkFpKVK9c7TjFHhtpH8M6W0pYyG0iLFuudozmtCXy/Kbzdvl4O7d0x3zRHs8pfK27MDbt6Y7YoA5X4h/8gm1/wCvgVdH3V/3R/KqPxE40m1/6+B/KpBqmnbV/wBOt+g/jHpXRQaVznrLYtUVV/tTTv8An/t/++xR/amnf8/9v/32K6OZGFmWqKq/2pp3/P8A2/8A32KP7U07/n/t/wDvsUcyCzLVFVf7U07/AJ/7f/vsUf2pp3/P/b/99ijmQWZaoqr/AGpp3/P/AG//AH2KP7U07/n/ALf/AL7FHMgsy1RVX+1NO/5/7f8A77FH9qad/wA/9v8A99ijmQWZaoqr/amnf8/9v/32KP7U07/n/t/++xRzILMtUVV/tTTv+f8At/8AvsUf2pp3/P8A2/8A32KOZBZlqiqv9qad/wA/9v8A99ij+1NO/wCf+3/77FHMgsy1RVX+1NO/5/7f/vsUf2pp3/P/AG//AH2KOZBZlqiqv9qad/z/ANv/AN9ij+1NO/5/7f8A77FHMgsy1WP4s/5F6b/fX+dXv7U07/n/ALf/AL7FZXie/s59CljhuopHLLhVbJPNTNrlZUE+ZHQ3H/IjH/ryH/oNZHhj/kXbX/gX8617j/kRj/15D/0GsHw5f2UOg20ct3DG65yrPgjmuei7SN63wm5RVX+1NO/5/wC3/wC+xR/amnf8/wDb/wDfYrq5kc1mWqKq/wBqad/z/wBv/wB9ij+1NO/5/wC3/wC+xRzILMtUVV/tTTv+f+3/AO+xR/amnf8AP/b/APfYo5kFmWqKq/2pp3/P/b/99ij+1NO/5/7f/vsUcyCzLVFVf7U07/n/ALf/AL7FH9qad/z/ANv/AN9ijmQWZaoqr/amnf8AP/b/APfYo/tTTv8An/t/++xRzILMtUVV/tTTv+f+3/77FH9qad/z/wBv/wB9ijmQWZaoqr/amnf8/wDb/wDfYo/tTTv+f+3/AO+xRzILMtUVV/tTTv8An/t/++xR/amnf8/9v/32KOZBZlqiqv8Aamnf8/8Ab/8AfYo/tTTv+f8At/8AvsUcyCzLVNl/1Ev+438qr/2pp3/P/b/99imy6ppxhkAvoCSh/jHpQ5ILMX4ef8i/J/13b+QqbSLG5h8d69eSRFYJ4rcRuejEKc1D8PP+Rfk/67t/IV0MOo2s+oXFhHIDcWwUyp/dDdK887y1RRRQAUUUUAFFFFABRRRQAUUUUAFFFFABRRRQAUUUUAFFFFABRRRQAUUUUAFFFFABRRRQAUUUUAFFFFABRRRQAUUUUAIWC9SB9aTzE/vr+dch8QC7f2ZCJGRZZirbTj0qkfB9sD/yELv/AL6q4wctiJTUdzvPMT++v50eYn99fzrgv+EQtv8An/u/++qP+EQtv+f+7/76qvZSJ9rE73zE/vr+dHmJ/fX864L/AIRC2/5/7v8A76o/4RC2/wCf+7/76o9lIPaxO98xP76/nR5if31/OuC/4RC2/wCf+7/76o/4RC2/5/7v/vqj2Ug9rE73zE/vr+dHmJ/fX864L/hELb/n/u/++qP+EQtv+f8Au/8Avqj2Ug9rE73zE/vr+dHmJ/fX864L/hELb/n/ALv/AL6o/wCEQtv+f+7/AO+qPZSD2sTvfMT++v50eYn99fzrgv8AhELb/n/u/wDvqj/hELb/AJ/7v/vqj2Ug9rE6zXdPTV9Ne2W48p+qMrY5Fef6trN0Le30zVEP2izlB8wc7lFan/CIW3/QQu/++qY3gmxdtzXlyx9SRR7KYe1iWtL+2+KNTi1CeRrawtcCJA2N5Fdr5kYH31/OuCXwbaIu1b66A9A1L/wiFt/z/wB3/wB9UeykHtYne+Yn99fzo8xP76/nXBf8Ihbf8/8Ad/8AfVH/AAiFt/z/AN3/AN9UeykHtYne+Yn99fzo8xP76/nXBf8ACIW3/P8A3f8A31R/wiFt/wA/93/31R7KQe1id75if31/OjzE/vr+dcF/wiFt/wA/93/31R/wiFt/z/3f/fVHspB7WJ3vmJ/fX86PMT++v51wX/CIW3/P/d/99Uf8Ihbf8/8Ad/8AfVHspB7WJ3vmJ/fX86PMT++v51wX/CIW3/P/AHf/AH1R/wAIhbf8/wDd/wDfVHspB7WJ3vmJ/fX86PMT++v51wX/AAiFt/z/AN3/AN9Uf8Ihbf8AP/d/99UeykHtYne+Yn99fzp1eYa5oiaPZJdQXlw7+aFwzcV6VbEm1iJOSUH8qiUXF2ZcZKSuiWiiipKCiiigDM8SJJJ4Z1RIgxka0lChepO04xR4bSSPwzpaShhItpEGDdQdozmr80scEDyzMFjRSzMegA60sMsc8KSxMGjdQysOhB6UAVtT0yy1S3EN9GHjDbhzjBrJ/wCEL8Of8+w/7+GqvxCkdNItwjsu6cA4OO1Zg8IWxAP2+75AP3qqMHLYmU1Hc3f+EL8Of8+w/wC/ho/4Qvw5/wA+w/7+GsL/AIRC2/5/7v8A76o/4RC2/wCf+7/76q/YyI9rE3f+EL8Of8+w/wC/ho/4Qvw5/wA+w/7+GsL/AIRC2/5/7v8A76o/4RC2/wCf+7/76o9jIPaxN3/hC/Dn/PsP+/ho/wCEL8Of8+w/7+GsL/hELb/n/u/++qP+EQtv+f8Au/8Avqj2Mg9rE3f+EL8Of8+w/wC/ho/4Qvw5/wA+w/7+GsL/AIRC2/5/7v8A76o/4RC2/wCf+7/76o9jIPaxN3/hC/Dn/PsP+/ho/wCEL8Of8+w/7+GsL/hELb/n/u/++qP+EQtv+f8Au/8Avqj2Mg9rE3f+EL8Of8+w/wC/ho/4Qvw5/wA+w/7+GsL/AIRC2/5/7v8A76o/4RC2/wCf+7/76o9jIPaxN3/hC/Dn/PsP+/ho/wCEL8Of8+w/7+GsL/hELb/n/u/++qP+EQtv+f8Au/8Avqj2Mg9rE3f+EL8Of8+w/wC/ho/4Qvw5/wA+w/7+GsL/AIRC2/5/7v8A76o/4RC2/wCf+7/76o9jIPaxN3/hC/Dn/PsP+/ho/wCEL8Of8+w/7+GsL/hELb/n/u/++qP+EQtv+f8Au/8Avqj2Mg9rE3f+EL8Of8+w/wC/ho/4Qvw5/wA+w/7+GsL/AIRC2/5/7v8A76o/4RC2/wCf+7/76o9jIPaxN3/hC/Dn/PsP+/hoHgzw6DxbD/v4awv+EQtv+f8Au/8AvqqOtaBFpelvdw3ty7owADNxyaTpSSuNVYt2PRmtIGsjaMg8gps2/wCzisQ+DPDpPNsP+/hqeeWT/hCml3nf9jB3Z5ztrj9I8OxajpcN3Le3KPJnIVuBzUxi5OyKlJRV2dT/AMIX4c/59h/38NH/AAhfhz/n2H/fw1hf8Ihbf8/93/31R/wiFt/z/wB3/wB9VfsZEe1ibv8Awhfhz/n2H/fw0f8ACF+HP+fYf9/DWF/wiFt/z/3f/fVH/CIW3/P/AHf/AH1R7GQe1ibv/CF+HP8An2H/AH8NH/CF+HP+fYf9/DWF/wAIhbf8/wDd/wDfVH/CIW3/AD/3f/fVHsZB7WJu/wDCF+HP+fYf9/DR/wAIX4c/59h/38NYX/CIW3/P/d/99Uf8Ihbf8/8Ad/8AfVHsZB7WJu/8IX4c/wCfYf8Afw0f8IX4c/59h/38NYX/AAiFt/z/AN3/AN9Uf8Ihbf8AP/d/99UexkHtYm7/AMIX4c/59h/38NH/AAhfhz/n2H/fw1hf8Ihbf8/93/31R/wiFt/z/wB3/wB9UexkHtYm7/whfhz/AJ9h/wB/DR/whfhz/n2H/fw1hf8ACIW3/P8A3f8A31R/wiFt/wA/93/31R7GQe1ibv8Awhfhz/n2H/fw0f8ACF+HP+fYf9/DWF/wiFt/z/3f/fVH/CIW3/P/AHf/AH1R7GQe1ibv/CF+HP8An2H/AH8NH/CF+HP+fYf9/DWF/wAIhbf8/wDd/wDfVH/CIW3/AD/3f/fVHsZB7WJu/wDCF+HP+fYf9/DR/wAIX4c/59h/38NYX/CIW3/P/d/99Uf8Ihbf8/8Ad/8AfVHsZB7WJu/8IX4c/wCfYf8Afw0f8IX4c/59h/38NYX/AAiFt/z/AN3/AN9Uj+EbZY3YX93lVJ+9R7KQe1idrpunWmmWv2eyQJFknGc81k6XpV1beNNb1KRALe7jgWJvUqCDUHw/keTw+29y2J2Ayc8cVs22r211rF5pcZPn2ao0nphhkVkal+iiigAooooAKKKKACiiigAooooAKKKKACiiigAooooAKKKKACiiigAooooAKKKKACiiigAooooAKKKKACiiigAooooA47x7/wAfGj/9fB/pWk33jWb49/4+NH/6+D/StJvvGumh1OatuhKKKK6TAKKKoa5qZ0bRrnUBEJjAu7YTjP40m7DSbdkX6KrvdldLN7s5EPm7M+2cVS0/xBaXOi2eo3ssVkbuMuqO/p1we9F0rgk2ro1aKgsr+z1KAXFhdRXMJON8bZFZF/4v023khhsbm3vZnnETxpJzH70nJIEmzeoqjea7pGnTpBfalb20zgFY5HwTmqWoeKbLT/EFhpMksObtSS5fBT+7x70cyvYOVm3RVOXWdKg1BdPm1G3jvGICwM/zknpxVi5l+z20s23PloWx64FDkkrhZ3sSUVyth4g8V6np0eoWvh2xaCVSybrzDEfTFbGk63b6npLX74txEWWcOeI2X73PoPWjmWoOLRpUVVsNV07VUd9OvobtUOGMTZ2n3qNNc0iTUP7PTU7ZrzOPID/Pn0xTuFi9RWJaeKLO78UXWhLJDvgjDKwfl27rj2q5Br2j3V4bK31O2luVJBiV8sMdaSknbzBxa3L9FRJd20jTKlxGzQHEoB+4evNQS6zpcFtHczahbpBKMpIz/K30p3QWZcoqhda9o9lDDNdanbQRTjdE7vgOPUVPJqVhFbpcyXkKQSfckLfK30NF0FmWKKzG8RaS2m3N9bahb3EVspLlX4B9DS+H9ag8QaNBqMJTMg+dEbdsb0zQmnsDTSuaVFFFMQUUUUAYXjH/AJA0f/Xda7i1/wCPSH/rmv8AKuH8Y/8AIGj/AOu613Fr/wAekP8A1zX+VcVb4jrpfCS0UUVkahRRRQBneIYJbrw5qVvCu6SW1kRFHclSBR4egktfDmm28y7ZIrWNHU9iFAIq5dXMVnaS3UzbYoULufQAZNFrcxXlrFcwtuimQOh9QRkUAcv8Q/8AkE2v/XwKuj7q/wC6P5VS+If/ACCbX/r4FXR91f8AdH8q6aHU56/QKKKK6TnCiiigAooooAKKKKACiiigAooooAKKKKACiiigAooooAKKKKACsfxZ/wAi9N/vr/OtisfxZ/yL03++v86ifwsqHxI2rj/kRj/15D/0Gsjwx/yLtr/wL+da9x/yIx/68h/6DWR4Y/5F21/4F/Ouaj8R0VvhNWiiiuw5QooooAKKKKACiiigAooooAKKKKACiiigAooooAKKKKACiiigApsv+ol/3G/lTqbL/qJf9xv5UnsBW+Hn/Ivyf9d2/kKv6do09p4t1fVnZTFexwqgHUbAQf51Q+Hn/Ivyf9d2/kK17PW47vX9Q0hYyHsUjZm7NvBI/lXnHoGpRRRQAUUUUAFFFFABRRRQAUUUUAFFFFABRRRQAUUUUAFFFFABRRRQAUUUUAFFFFABRRRQAUUUUAFFFFABRRRQAUUUUAcd49/4+NH/AOvg/wBK0m+8azfHv/Hxo/8A18H+laTfeNdNDqc1bdCUUUV0mAVjeMIZJ/CWopEpZvKyAOp5rZo9jzUyV1ZFRlyyTMZ9Rsm8I+f9qiEZtdvLDOduMY69a5S5tIEsfBlvqWERS24NwM9ga60eEfDovPtg0mHz927fk9fXGcU3XfDya5e6dJMYzb2jOZInH3wRjjFTZ3u+6/C/+Y4tJcvk/wArGLdIILvxL/Yyqqi1XIh+6Gx/DjjP0qtqkOjJpPh54VgS4NwmDHjcWxzu79fWuy07S7DSbb7Np1qlvDnOxec/nVRPC2gRXRuk0uETlt+/nr60uR6fL8Hcble/z/Kxzmpzi5bVzpGmae7Q7lupdQb5mbb1jqHSlt5tQ8HySJE5Nq+XcAkkAY5NdVeeGND1G7+13mmxTT4xvJIz+VSvoOkSxW8T2ERS1bdAOR5Z9RRCLW/9br9QlNNW/rY4AQapc2Oplxo8ebls3N25FxFhvlI/DpXoEu8eH38xg7C1OWHRvl61HceHNFu9SGpXGnRSXYIIlOc5HTjpWi6JJG0bqCjDBXsRQoP2bj/WwSmnPmPO7DTfEkXgW2vtK8Q3GBFuNp5S4CZOQp65xVvUTbt8PrZtDIKS3KGbzT1Yn5/M9Peu1trWCytktrWJYoYxhEXoBUEOjaZbwXEENlGkV0SZ0HRyeuacoXvbr/X3Ap6ps5nRoLyDxH51y+j2sf2Ng8GnuTuHGHPbgVREY0u0t5Hg0zUtLWb93cxuRdtk9eOetdjpmhaToyyLptjHbCT7+3Jz+dQweFtBtr8X8GlwpdA7hIM8H6dKFF3X9dbi5lZr+trGIfsNv4x1+e5gTy109GYIoDsOc475IrJvZZtmi3ENhptppz3kRieN/wDSQD0D/wBa7uXSdPn1BdQltI3u1QoJT12ntVOLwj4dhnM8ekwrIW3bsnr69aSi015Fc61/rpYyNNlig1DxWJpEjJlyAxAJGz9ayNOggubbwZHNGskbGQ7WGQeD2rtLvw5ot/eLeXenRS3CDAkOc4qaPSNOi+zeXZxr9kz9nx/yzz1xTjFq1/L8L/5ic1Z26/5WOf1KSKTX7i10vS7CW+hiTzX1A4hCdgg7H6VztsqXnhnRIbkI2dXZZEVsqOTwPau91Hw/o+rzJNqFhHcSJ91mJBH5UsWhaTDFFFFYRLHDJ5kaj+FvWlGLT18vwY3NW0/rSxzt7b28HizUbaGCJIW0pmaJUAUnPXHrWr4KWJfB+neUqLmIFtgHX3x3rVNjaNdteGBDcNH5TSdynpTbDTbHSoWgsLZbeNmLlV6EnqaqKtp/W7/zJlJNf12sWaKKKsgKKKKAMLxj/wAgaP8A67rXQP4jtrW+stLjRp55EXeE52cd653xr/yAl/67LWb4XvtQthLPZaaLydjhpWPKj0rirfEddL4T1GiuQGteLn+7oqD6n/69OGpeMm/5hcI/z9ayNTraK5E3vjVumn26/iP8ab5vjd/+WFsv4igDoddtZb7QNQtIQDLPbSRoD6lSBRoVrLY6Bp9pMAJYLaONwPUKAa5uW48W2ML3t60ItrdTLKF6lByf0rrLK7jv7GC8hz5dxGsiZ9CMigDmfiH/AMgm1/6+BV0fdX/dH8qpfEP/AJBNr/18Cro+6v8Auj+VdNDqc9foFFFFdJzhRRRQAUE4BJ6AZNFFIDCk8ceF4pGjk1mJXU4KlWzn8qvWmu6Vf+T9kvFl8/PlYUjdjrWR4hii/wCEq8O/uY+Z3z8g5+WrGoXU0HjLR7OJxHbzJKZI1UANgcVEW9L+f4XLlFdO1zfwfQ0YPpXCEa1daRqGrDXbmJ7OR/JhQjYwB6P61Z83VdNvdGv59WnuP7SlEc9sSPKT5c/KOtCne39b7A4Wv8/w3Ortry3vPM+zSiTynKPgH5WHap8EdRXA3Ws6omg6pLDeMkyaqII3wPlUkDH61qWn2/RvFlrp9xqtzfxXsDyOJyCIyv8Adx2pqX9fK4Sha51WD6GgAnoK4W5Os3+iXviKDWrm1ZWIhtUI8oBWxz9an16+ukezN7qV/p1g9uGF1ZIWZ5e4YAHjHNLnstUPk1t6/gdnSVm+HpnuNGhd75b7ss4BBYf7QP8AF61pVoZhRRRQAUUUUAFY/iz/AJF6b/fX+dbFY/iz/kXpv99f51E/hZUPiRtXH/IjH/ryH/oNZHhj/kXbX/gX8617j/kRj/15D/0Gsjwx/wAi7a/8C/nXNR+I6K3wmrRRRXYcoUUUUAFFFFABUF9f2mmWrXV9OsECfekboKnrmviDGJfCU8Z/jkjX82FTJtLQuEVKSTNyfU7G20/+0Z7lI7QqG849MHvU8MsdzCk0DCSORQyMO4PeuE1qQ3HhNtHYHESyKTnkeWMinanrRstK0DTmvrnT4bi1WSS5tULSAADgAA1Lna7+4FC6XzO8wc4xRgjtXAjxFff8IfqjW17cSyWcqpb3s0ZR5VJ6nI98VoQ/2jo3iDSop9Xub5NSVhLHMRtjIXPy0+bX+u1xONl9/wCB12D6Ulcfa6rqD+Ddau2u5DcQTTrFJ3QA8Y+ldNpUrz6RZyysXkeFGZj1JI61SdwlHl/H8C1RRRTJCiiigAooooAKbL/qJf8Acb+VOpsv+ol/3G/lSewFb4ef8i/J/wBd2/kK1LHRDZ+JdT1fzdwvkiXZ/d2Aj+tZfw8/5F+T/ru38hWnYa2154m1TSDFtWxSJg/97eCf6V5x6BsUUUUAFFFFABRRRQAUUUUAFFFFABRRRQAUUUUAFFFFABRRRQAUUUUAFFFFABRRRQAUUUUAFFFFABRRRQAUUUUAFFFFAHHePf8Aj40f/r4P9K0m+8azfHv/AB8aP/18H+laTfeNdNDqc1bdCUUUV0mAUUUUAFFFFABRRRQAUE4Un0FFDfcb6VMtIsa3OQ0i48W67ay3kGtWNtGJ3jWJrPcQFOOua2NH1prm0uRqISC5sW2XIDcA4zkfUVgeEfE2h6ZpE1tf6pBbzrdTExyEgj5jimy2V7qvh7xBfwwvGdQcPboVw20Y5/TNZt8qbj2NeVOVnprb8Tf07xXpeqSSx24uUeNDIFmhKGQD+7n734VneHfGcV/pV7eaj5kQtp2QEwldy5+VR6t7Vm6G8epa3pjJ4mk1OS1QlYo7RUEORjDkdKZp+rrp3h+/jEMc08Wpv5iyjIt1ZuJD9OtO7Wvl+olFNWt1X5M6jT/E2n6qZorcXEE0aF9lzAY2I9QD1FZ8fiG6dtB8m5juI9QmdJZfK2bgAeg7dKxbC+Nz4wWV9eTWUOnyKsscIQRkn7vHWk0rItPBxAPFxJ2/3qcXez/rr/kDikn/AF0Z0954v0myvjaS/aWKsEeWOAtEh9C3QVtqyuodGDKwyCDwRXn99qFpZXN8NM1z7HI8xaTSbi3DG4k74J7NXdWTvJYW7yw+Q7RgtF/cOOlODurkTST0JqKKKskKKKKACiiigAooooAKKKKAMHxkM6KgP/Pdat3Ph+90u4g1TQPl3qvnQdjx1qr4x/5A0f8A13Wu4tf+PSH/AK5r/KuKt8R10vhHRl2iUyLtYjkehp9FFZGoUUUUAUtZs31HRb2yjYK9xbvEpPYspH9aNHs30/RbKykYM9vbpExHcqoH9Kfqd6NO0u6vmXcLaFpSo77QT/SjTbwajplrfKpUXMKyhT23AH+tAHOfEP8A5BNr/wBfAq6Pur/uj+VUviH/AMgm1/6+BV0fdX/dH8q6aHU56/QKKKK6TnCiiigAooooAzdR0c3+rabfCcILF2cptzvyMfhRdaQbnxBYar54UWauvl7fv7vetKipsh3f6GNF4fMeiXum/aQTdM58zb93cc9KdeaCbtNKX7SF/s6USH5f9ZxjHtWvRRypfh+A+Z/n+O5zUvg9pNPu7T7cB9pvhd7tn3cEHb+ladxpBuPEVlqwnCi1iePy9v3t3fNaVFFl/Xpb8gcm9/6ueb6n9pZrzRdJmvRbXMmFtmsWUBs5P73oB1rq7jRtaVopdL1lLQiERyRzxean1A7Gt/c2MZOKbUqFo2Y5Tu7lDRdJXR7Aweb5ssjmSZ8YDOepA7D2q/RRWhAUUUUAFFFFABWP4s/5F6b/AH1/nWxWP4s/5F6b/fX+dRP4WVD4kbVx/wAiMf8AryH/AKDWR4Y/5F21/wCBfzrXuP8AkRj/ANeQ/wDQayPDH/Iu2v8AwL+dc1H4jorfCatFFFdhyhRRRQAUUUUAFZ2v6Qdb0trITiEl1feRnoc/0rRopWGm07o56fwms15qVwLraL638pU28RNjBb8akufDtz9j0/7BfpbX9hGIkuHj3Ky45BX3xW7RU8qtYfM/6+4wLjw3eX2gXOn32q+fc3Lh3m2YRcHOFXsKt3mjG61XS77zwo08nKbf9ZkY/CtSinZf16WFd/n+Jylx4Q1F4r6ytdYjh069Z3aEw5dWbr82entXS2Vt9jsYLXdv8mNU3euBipqKIrlVkEpOW4UUUVQgooooAKKKKACmy/6iX/cb+VOpsv8AqJf9xv5UnsBW+Hn/ACL8n/Xdv5Cti00WK016/wBWV2Ml8kaup6DYMD+dY/w8/wCRfk/67t/IVe07Wbi78XavpThfJso4WjI6ksCT/KvOPQN2iiigAooooAKKKKACiiigAooooAKKKKACiiigAooooAKKKKACiiigAooooAKKKKACiiigAooooAKKKKACiiigAooooA47x7/x8aP/ANfB/pWk33jWZ4+IE+kEkAC4OSe3SrpvLTcf9Lg/7+Cumh1OetuiWiovtlp/z9Qf9/BR9stP+fqD/v4K6LowsyWiovtlp/z9Qf8AfwUfbLT/AJ+oP+/gougsyWiovtlp/wA/UH/fwUfbLT/n6g/7+Ci6CzJaKi+2Wn/P1B/38FH2y0/5+oP+/gougsyWiovtlp/z9Qf9/BR9stP+fqD/AL+Ci6CzA2doxJaztyT1JiUn+VSgADAAA6YHSovtlp/z9Qf9/BR9stP+fqD/AL+CloFmOjghhJMUEUZPUogUn8qXyYfm/cx/P975B8319aZ9stP+fqD/AL+Cj7Zaf8/UH/fwUaBqOS3t4/8AV28Kf7sYH8qcI4xtxGg2/dwo4+npUf2y0/5+oP8Av4KPtlp/z9Qf9/BRoFmKbe3aTzGt4Wf++YwT+dS1D9stP+fqD/v4KPtlp/z9Qf8AfwUaBZktFRfbLT/n6g/7+Cj7Zaf8/UH/AH8FO6CzJaKi+2Wn/P1B/wB/BR9stP8An6g/7+Ci6CzJaKi+2Wn/AD9Qf9/BR9stP+fqD/v4KLoLMloqL7Zaf8/UH/fwUfbLT/n6g/7+Ci6CzJaKi+2Wn/P1B/38FH2y0/5+oP8Av4KLoLMx/GP/ACBo/wDrutdxa/8AHpD/ANc1/lXB+LriCXSEWOeN289ThWBNd5a/8ekP/XNf5Vx1viOql8JLRRRWRqFFFFAFTVbL+0tJu7Hds+0wvFu9NwIz+tGl2X9naVaWO7f9mhSLd67QBn9KTV71tO0e8vlXc1tA8oX12qT/AEo0m8bUdHs75l2tcQJKV9Nyg/1oA574h/8AIJtf+vgVdH3V/wB0fyqj8RP+QTa/9fA/lVgXlptX/SoOg/5aD0roodTnrdCaiovtlp/z9Qf9/BR9stP+fqD/AL+Cum6MLMloqL7Zaf8AP1B/38FH2y0/5+oP+/gougsyWiovtlp/z9Qf9/BR9stP+fqD/v4KLoLMloqL7Zaf8/UH/fwUfbLT/n6g/wC/gougsyWiovtlp/z9Qf8AfwUfbLT/AJ+oP+/gougsyWiovtlp/wA/UH/fwUfbLT/n6g/7+Ci6CzJaKi+2Wn/P1B/38FH2y0/5+oP+/gougsyWiovtlp/z9Qf9/BR9stP+fqD/AL+Ci6CzJaKi+2Wn/P1B/wB/BR9stP8An6g/7+Ci6CzJaKi+2Wn/AD9Qf9/BR9stP+fqD/v4KLoLMlrH8Wf8i9N/vr/OtP7Zaf8AP1B/38FZHim5t5NAmWO4idiy/KrgnrUTa5WVBe8jeuP+RGP/AF5D/wBBrI8Mf8i7a/8AAv51r3H/ACIx/wCvIf8AoNYnhq5t49Atle4iRhnIZwCOa56PxG9b4TZoqL7Zaf8AP1B/38FH2y0/5+oP+/grrujmsyWiovtlp/z9Qf8AfwUfbLT/AJ+oP+/gougsyWiovtlp/wA/UH/fwUfbLT/n6g/7+Ci6CzJaKi+2Wn/P1B/38FH2y0/5+oP+/gougsyWiovtlp/z9Qf9/BR9stP+fqD/AL+Ci6CzJaKi+2Wn/P1B/wB/BR9stP8An6g/7+Ci6CzJaKi+2Wn/AD9Qf9/BR9stP+fqD/v4KLoLMloqL7Zaf8/UH/fwUfbLT/n6g/7+Ci6CzJaKi+2Wn/P1B/38FH2y0/5+oP8Av4KLoLMloqL7Zaf8/UH/AH8FH2y0/wCfqD/v4KLoLMlpsv8AqJf9xv5Uz7Zaf8/UH/fwUyW8tPJkH2qH7h/5aD0pNoLMZ8PP+Rfk/wCu7fyFbtvpNra6td6nGCJ7xUWQ+oUYFYXw8/5F+T/ru38hVnStUurjxtrenSPm3tYoGiX0LAk1553nRUUUUAFFFFABRRRQAUUUUAFFFFABRRRQAUUUUAFFFFABRRRQAUUUUAFFFFABRRRQAUUUUAFFFFABRRRQAUUUUAFFFFAGdq+h2OtxRx3qMwjJK7WwRWT/AMK+0D/nlN/39NdPRQBzH/CvtA/55Tf9/TR/wr7QP+eU3/f0109FAHMf8K+0D/nlN/39NH/CvtA/55Tf9/TXT0UAcx/wr7QP+eU3/f00f8K+0D/nlN/39NdPRQBzH/CvtA/55Tf9/TR/wr7QP+eU3/f0109FAHMf8K+0D/nlN/39NH/CvtA/55Tf9/TXT0UAcx/wr7QP+eU3/f00f8K+0D/nlN/39NdPRQBzH/CvtA/55Tf9/TWN4r8JaTpOitdWscgkEirlpCRg16BXMfED/kWm/wCuq/1oAitPAehTWcMrRTbnjVj+9PUipf8AhX2gf88pv+/prfsP+Qdbf9cl/lVigDmP+FfaB/zym/7+mj/hX2gf88pv+/prp6KAOY/4V9oH/PKb/v6aP+FfaB/zym/7+munooA5j/hX2gf88pv+/po/4V9oH/PKb/v6a6eigDmP+FfaB/zym/7+mj/hX2gf88pv+/prp6KAOY/4V9oH/PKb/v6aP+FfaB/zym/7+munooA5j/hX2gf88pv+/po/4V9oH/PKb/v6a6eigDmk8A6CjBhFNkHvKa6NVCIFXoowKdRQAUUUUAFFFFAFbULNNR065spCQlxE0TEdgwx/WjT7NNP062soySlvEsSk9wox/Sotbu5LDQr+8hx5lvbySLn1CkijRLuS/wBDsLyXHmXFvHI2PUqCaAItdstMvrIJqsgjhVshi+3B+tc5/wAI74J/5/U/8CqsfETnSLYdjcAH8qrjwtoxUH7IeQP4zVxg5bESmo7h/wAI74J/5/U/8CqP+Ed8E/8AP6n/AIFUf8Ito3/Pof8Avs0f8Ito3/Pof++zV+xkR7aIf8I74J/5/U/8CqP+Ed8E/wDP6n/gVR/wi2jf8+h/77NH/CLaN/z6H/vs0exkHtoh/wAI74J/5/U/8CqP+Ed8E/8AP6n/AIFUf8Ito3/Pof8Avs0f8Ito3/Pof++zR7GQe2iH/CO+Cf8An9T/AMCqP+Ed8E/8/qf+BVH/AAi2jf8APof++zR/wi2jf8+h/wC+zR7GQe2iH/CO+Cf+f1P/AAKo/wCEd8E/8/qf+BVH/CLaN/z6H/vs0f8ACLaN/wA+h/77NHsZB7aIf8I74J/5/U/8CqP+Ed8E/wDP6n/gVR/wi2jf8+h/77NH/CLaN/z6H/vs0exkHtoh/wAI74J/5/U/8CqP+Ed8E/8AP6n/AIFUf8Ito3/Pof8Avs0f8Ito3/Pof++zR7GQe2iH/CO+Cf8An9T/AMCqP+Ed8E/8/qf+BVH/AAi2jf8APof++zR/wi2jf8+h/wC+zR7GQe2iH/CO+Cf+f1P/AAKo/wCEd8E/8/qf+BVH/CLaN/z6H/vs0f8ACLaN/wA+h/77NHsZB7aIf8I74J/5/U/8CqP+Ed8E/wDP6n/gVR/wi2jf8+h/77NH/CLaN/z6H/vs0exkHtoh/wAI74J/5/U/8CqVfDvgrcMXqZ/6+aT/AIRbRv8An0P/AH2azfEOg6bYaNLcW1uUlVlAbcT1NJ0pJXGqsW7HfPb2raWbZiPsvlbTzxtx61yZ8O+CiTm9TP8A181s3BP/AAgzHPP2If8AoNctoWgaZe6NBcXFuXlfO5t5GeaiMXJ2RcpKKuzQ/wCEd8E/8/qf+BVH/CO+Cf8An9T/AMCqP+EW0b/n0P8A32aP+EW0b/n0P/fZrT2MjP20Q/4R3wT/AM/qf+BVH/CO+Cf+f1P/AAKo/wCEW0b/AJ9D/wB9mj/hFtG/59D/AN9mj2Mg9tEP+Ed8E/8AP6n/AIFUf8I74J/5/U/8CqP+EW0b/n0P/fZo/wCEW0b/AJ9D/wB9mj2Mg9tEP+Ed8E/8/qf+BVH/AAjvgn/n9T/wKo/4RbRv+fQ/99mj/hFtG/59D/32aPYyD20Q/wCEd8E/8/qf+BVH/CO+Cf8An9T/AMCqP+EW0b/n0P8A32aP+EW0b/n0P/fZo9jIPbRD/hHfBP8Az+p/4FUf8I74J/5/U/8AAqj/AIRbRv8An0P/AH2aP+EW0b/n0P8A32aPYyD20Q/4R3wT/wA/qf8AgVR/wjvgn/n9T/wKo/4RbRv+fQ/99mj/AIRbRv8An0P/AH2aPYyD20Q/4R3wT/z+p/4FUf8ACO+Cf+f1P/Aqj/hFtG/59D/32aP+EW0b/n0P/fZo9jIPbRD/AIR3wT/z+p/4FUf8I74J/wCf1P8AwKo/4RbRv+fQ/wDfZo/4RbRv+fQ/99mj2Mg9tEP+Ed8E/wDP6n/gVR/wjvgn/n9T/wACqP8AhFtG/wCfQ/8AfZo/4RbRv+fQ/wDfZo9jIPbRD/hHfBP/AD+p/wCBVH/CO+Cf+f1P/Aqj/hFtG/59D/32abJ4X0ZYnYWpyFJHzn0o9jIPbROn0Sz06ysBFpjh4CxO4PuyfrViHT7aC/nvo4gs9wFEj/3gvSue+Hn/ACL7/wDXdv5CpNIvLmXx7r9rJKzQQxW5jQ9FJU5xWJsdNRRRQAUUUUAFFFFABRRRQAUUUUAFFFFABRRRQAUUUUAFFFFABRRRQAUUUUAFFFFABRRRQAUUUUAFFFFABRRRQAUUUUAFFFFABRRRQAUUUUAFFFFABRRRQAUUUUAFFFFABXMfED/kXMesy/1rp65f4gf8i+o/6bLQB0Fj/wAg+3/65L/KrFQWP/Hhb/8AXNf5VPQAUUUUAFFFFABRRRQAUUUUAFFFFABRRRQAUUUUAFFFFABRRRQBDeWsV9ZTWkwzFPG0bj1BGDRZ2sVjZQ2kIxFBGsaD0AGBVXX7mWz8PajdQttlhtZHRvQhSRRoFzLeeHtOuZm3SzWsbu3qSoJoAwviH/yCbX/r4FXR91f90fyql8Q/+QTa/wDXwKuj7q/7o/lXTQ6nPX6BRRRXSc4UUUUAFFFFABRRRQAUUUUAFFFFABRRRQAUUUUAFFFFABRRRQAVj+LP+Rem/wB9f51sVj+LP+Rem/31/nUT+FlQ+JG1cf8AIjH/AK8h/wCg1keGP+Rdtf8AgX8617j/AJEY/wDXkP8A0Gsjwx/yLtr/AMC/nXNR+I6K3wmrRRRXYcoUUydZmt3W3dY5iPkdxkKfcd65A3njIeIW0c6xpuVtvtHm/Yz0zjGM1DlZ2sUo3VzsqKzLfWbdNLhubm480lhEzpGV3OTj7vaqj+NtBjuDAZ5iyyGJ2WElY2Bx8x7D3p8yFys3qKzf7SDa/FZJeRlJLYyiER5LDP3t3p7VXPi/RhqX2Ayzb9+zzfKPk59N/Si62CzNqisW98X6NYXjWkz3DupAd4YS6If9phwKJNZmPimx0+Fo2tLm1eYtjJJGMYP40KSew+Vrc2qKy9f1h9Jt4UtoPtF3dSeVBHnGW9T7VmzT+LdI8q6vp7TU7YsFlhtrco6A9we+KXMg5WdNRXLS+M4bDxBfWd+JTbxRxvCsEBd+RzkCtptb09NI/tYzH7JtzuA+Y+wHr7U+ZWuDi07F+is7SNe0/W45Hs3lUxHDpPGY2Hvg9veq8Xi7RpdTFgJZw5fYJWhIiY+gfoaLq9hWevkbNFYFp4mSKymuNUbG25aGNYkyzYOBwOtbM9ykFi90eFWPeN3HbjNLnXLzD5XexNRVHRLq5vtHt7q7CiWVdxCjGOavVdrEhTZf9RL/ALjfyp1Nl/1Ev+438qT2ArfDz/kX5P8Aru38hXSpBbpcyTIiCaQASMOpA6Zrmvh5/wAi/J/13b+Qp+jtcH4geIVcyeSIrfywfu/dOcV5x6B1FFFFABRRRQAUUUUAFFFFABRRRQAUUUUAFFFFABRRRQAUUUUAFFFFABRRRQAUUUUAFFFFABRRRQAUUUUAFFFFABRRRQAUUUUAFFFFABRRRQAUUUUAFFFFABRRRQAUUUUAFct8QP8AkBRj1mWuprlfiB/yBYh/03WgDo7L/jxg/wCua/yqeobP/jyg/wCua/yqagAooooAKKKKACiiigAooooAKKKKACiiigAooooAKKKKACiiigCO4gjureS3mUNHKpR1PcEYIoggjtreO3hULHEoRFHYDgVR8RyyQeGtTliYrIlpKysOoIU4o8OSyT+GtMllYtI9pEzMepJUZoAxPiH/AMgm1/6+BV0fdX/dH8qpfEP/AJBNr/18Cro+6v8Auj+VdNDqc9foFI7iONnbooyaWo7n/j0m/wCubfyrabtFtGCV3Y56Lx3YzxedDpOsSw5P71LXKEDqc56Vv2V3BqFnFd2zh4pV3Ka4vwufFsnhWGCwTSxaOHRXld/MCliDkDjNLfaDHb3/AId0KWeV4GEnnbWK+YQPakm07FuK18r/AIHZxXQluprcQzIYcZdlwj5/unvU+Pp+dcSAba78U28LyLFBaRiJS5Owbe1VrjQYrSy0e+tru5jvLuVY55/MJ3qR0weBRzPT5fiDhZ/12T/U78jFGPp+dchYWlvoPi280+zlkt7N7ATNvcvsbPLjNYV01nZTWV9plpqck0t1Gp1d3/czBjz8ucc/ShTu0u/+dg5N/wCulz0zH+c0YrjLfR7fWvF2ufbXmcWxj8lVkZQhK5zwam0S4k1S+sraQuG09WeTk/eyQAfwpxk3bz1/r+upLjY6LUtTtNJtDc3koRBwB3c9gB3NZtn4usbq8jtZrO/sHl/1ZvIfLVz6A+tQ66sTeKtDF0R5G99qt90titXWV017aP8AtfZ5QlXyy5wd/bFK73BpbF7GKgnuhBcQwmGZzM2AyLlU92Pauc0aR21bxMN7FUZduWPyjZ29KydJnl+zeEMzSEPNJv8AmPzcN19aale3y/G43Gyfl/lc9Ax9PzqBroLepa+TMS6lvMC/IuOxPrXDarYeTqVzdatp+oXDibfDqVnJ+7gjzwGGccd+K1p52k8Y6WY7h5Yn06Rt2cB+mGxSU9L/ANbNjcLNo6rB9vzoAzXmMWnRx+Cf+EiM076jHMTHKZWwo34xjODWp4llbUPEcGnXWmX2o2sdos3lWT7WDNxknIocmunX9Lhya/f+Dsd1SVieEWvv7F8q/t5oGikZYlmILiMfdBx3rbrQzCsfxZ/yL03++v8AOtisfxZ/yL03++v86ifwsqHxI2rj/kRj/wBeQ/8AQayPDH/Iu2v/AAL+da9x/wAiMf8AryH/AKDWR4Y/5F21/wCBfzrmo/EdFb4TVooorsOUWuaX/kpZ/wCwd/7NXSUmxNxfYofGN+OcfWpa1uNPRrucpaW058Yvp7gm3ikN2eOCG4A/AisXTdU0m20rxDY3DILu6uZVWJh805J4A9a7jTtLNjdXF1LdyXc85+/IANq9lGOwqLS9As9LE2FW4aWZpt8qAlCxzgGs1B2t5f5f8N8jTnWr81+F/wBTnrWCaPxVZW7ZEv8AY7qB0x0wKfoOtaPYeH7fSL8B72J9j2IXfLu3ddv612GxN+/Yu/GN2OcfWmfZrfzvP+zw+b/z02Dd+fWrs7/13b/UnmVrf1tY4HWtblntdWtotTtdEKeYhsmhDSXQx97npmrmkOr+IvDpXtpbAj0IxXYvaWsknmSWsDv/AHmjBP508RRKQyxICowCFGQKUIuO/wDWjX6jlO6sYXikSW0unarHbvOlnPumVBlgmOoFJc+NNMIij0iePU7yZwqwQtkj1J9MV0B5BB5B6ioorS1gffDawRP/AHkjCn8xT5Xt0JujndKGfG2uu6KJBbxZPXHByM1z3lTy+A7OWKcwLb6lJJLNs3CNQx5I7ivRwiBiwRQzdWA5P1pPJjEZj8pAh6ptGD+FLk0t6fgVz63/AK2scZpCNqOpahdxa/8A2xMbIxb4rcRx+wyP4qsaDrmjW+h6fpNyFlvYSsb2QXfIr5649vWuqight12wQxxAnJEaBR+lILa3Wbzlt4RKesgQbvzpqNiXK/8AXyOF0qM6bfz67KTLbrdSRyq3IhBb749MV0Xiq4EmhiCFtxvnWOMjvnn+VbXlR7WTy02t95dowfrSlEIUFFIX7oI6fSkoWio+g3L3ub+vIbDGsMEcSjARQKfRRWhAU2X/AFEv+438qdTZf9RL/uN/Kk9gK3w8/wCRfk/67t/IV0qPAbiREKecoHmAfeHpmua+Hn/Ivyf9d2/kKk0e3uE8feIJ5I3EEkVuI2PQkKc4rzj0Dp6KKKACiiigAooooAKKKKACiiigAooooAKKKKACiiigAooooAKKKKACiiigAooooAKKKKACiiigAooooAKKKKACiiigAooooAKKKKACiiigAooooAKKKKACiiigAooooAK5Tx//AMgmAes611dcp4//AOQZbD1nWgDpbT/jzh/65r/Kpqitf+PSH/cH8qloAKKKKACiiigAooooAKKKKACiiigAooooAKKKKACiiigAooooAZKsbxOkoBjYEMG6Ed6IlRIkSIAIoAUL0A7Vn+JfM/4RjVPK3eZ9kl27eudpxijw3v8A+EZ0vzd2/wCyRbt3XO0ZzQBi/EP/AJBNr/18Cro+6v8Auj+VUviH/wAgm1/6+BV0fdX/AHR/Kumh1Oev0CkkQSRtGejAg4paK6GrqzOcqaVpkGj6bFYWzO0UWdpc88nNNutJt7vVLPUZGcS2e7ywp4O4YOau0Ubu477mY2gWjT6lMXl3akgSbngADHFSTaNbT21nbs8gWzcPGQeSQMc1fopWQXZny6JaT6rJqMhdpJbf7OyZ+Up/jWV/wg9qUjhfVdRe1icPFbM48uMg5GBjtXS0UcqHzMz7bSodNu72/t/NlnugpdGI5KjAxVfw/YTQPe39zafZJ72beYcglABjkitiii2txX0KeqaVaaxafZ7tMgHcjj7yN2I96zbXwlBFexXV7qd/qZh5jS7cMqn1AHet6ijlV7hd2sYl94Wt73Upb5b+8tWnGJ44GASXjHzU628LWFrFpkcbzbdMYtDk/eznOfzrZooUUthuTZz83g63lnlZNU1CG2mk3yWiOPKcnrkdcGtBtDszqVvfrvje2gaCNFPyhTWhRQopKwuZmP8A8IvY/wDCOnQvMm+zFid2fm+9u/nTtV8PQ6m8EqXl1YzwrtE9swV2XHQ57VrUUOKe4+ZlXTNOg0qyW1gLsoOWdzlnY9SferVFFUSFY/iz/kXpv99f51sVj+LP+Rem/wB9f51E/hZUPiRtXH/IjH/ryH/oNZHhj/kXbX/gX8617j/kRj/15D/0Gsjwx/yLtr/wL+dc1H4jorfCatFFFdhyhRRRQAUUUUAFQX17Dp1lLd3DYjjGT7nsPxqesvxLYTaloU9vbjdKCrqv97ac4/Som7RKik5JMoWni2aW/tbO90O5sWvFLQs7hgwH06VYTxRA/h261oWsgjtndTFuGW2nFY8muDWfEOiRpY3NsVEm8XEZQg4HQHrWbLPcWnhjVfDx028kvXkldSsJMbKzZBDevtU8z/r1NFFNq/lf8TrdQ8Qm1S0Sz06W/u7pBIttGwVgpGckmkXxNa/2FJqksLxNE4ikt2PzJIeAma5/xBpojutK1O8XUhbJaLA/9nEiVGwDyB2qeytILPwpdyppF7cQXM29ormUtM4/v46hh6UuZ+9/XX/IlJWia9pr99cNPBdaDc2VysRkhjdwwm9gw4H41W8C6nqOqaI8uowyq6zOFlkcHeNx449OlUfDIkbVmXSn1VtO8oicapuDBsfLsz+tX/BBeHSJrGa3mhmt7iTd5iFQcsSCp78Vcd9e36il8PzX5HR0UUVZAUUUUAFFFFABTZf9RL/uN/KnU2X/AFEv+438qT2ArfDz/kX5P+u7fyFdHFeW0t5NaRyq08AUyIOqg9K5z4ef8i/J/wBd2/kKn0nTrqDxzrt9JFtt7mKARP8A3iqnNecegdJRRRQAUUUUAFFFFABRRRQAUUUUAFFFFABRRRQAUUUUAFFFFABRRRQAUUUUAFFFFABRRRQAUUUUAFFFFABRRRQAUUUUAFFFFABRRRQAUUUUAFFFFABRRRQAUUUUAFFFFABXJ+Pv+PC1H/Tda6HUdTttKtvtF0+xMgZxXN+N5o7jTrCWJw8bzKVYdxQB1Vt/x6xf7g/lUtZsusWWn/ZLa4mCyzABV6npWj1oAWiiigAooooAKKKKACiiigAooooAKKKKACiiigAooooAKKKKAGStGkTvKQI1Uli3QDvRE0bxI8RBjZQVK9CO1UPEcUk3hrU4oVLSPaSqqjqSVOKPDkUkPhrTIpVKyJaRKynqCFGaAMT4h/8AIJtf+vgVdH3V/wB0fyqj8RONItT2FwD+lRDxJo20D7cnQdjW9FpXuYVk3axp0Vmf8JJo3/P8n5Gj/hJNG/5/k/I10c8e5hyy7GnRWZ/wkmjf8/yfkaP+Ek0b/n+T8jRzx7hyy7GnRWZ/wkmjf8/yfkaP+Ek0b/n+T8jRzx7hyy7GnRWZ/wAJJo3/AD/J+Ro/4STRv+f5PyNHPHuHLLsadFZn/CSaN/z/ACfkaP8AhJNG/wCf5PyNHPHuHLLsadFZn/CSaN/z/J+Ro/4STRv+f5PyNHPHuHLLsadFZn/CSaN/z/J+Ro/4STRv+f5PyNHPHuHLLsadFZn/AAkmjf8AP8n5Gj/hJNG/5/k/I0c8e4csuxp0Vmf8JJo3/P8AJ+Ro/wCEk0b/AJ/k/I0c8e4csuxp0Vmf8JJo3/P8n5Gj/hJNG/5/k/I0c8e4csuxp1j+LP8AkXpv99f51L/wkmjf8/yfkazPEWtabe6LLBbXSySsykKAfWpnKPK9SoRfMtDqLj/kRj/15D/0Gsjwx/yLtr/wL+da9x/yIx/68h/6DXNaDremWei28FxdrHKmdykHjmsKLSlqb1U3HQ6Oisz/AISTRv8An+T8jR/wkmjf8/yfka6eePc5uWXY06KzP+Ek0b/n+T8jR/wkmjf8/wAn5Gjnj3Dll2NOisz/AISTRv8An+T8jR/wkmjf8/yfkaOePcOWXY06hvLSK+tXtp9/lyDDbGKn8COlUv8AhJNG/wCf5PyNH/CSaN/z/J+RocotWbBRkugmmeGtM0m4NxbLO8pGA88zSlR7Z6Vrb2AxuOKyv+Ek0b/n+T8jR/wkmjf8/wAn5GjmjtcOWXY1AxByDg0ZOc55rL/4STRv+f5PyNH/AAkmjf8AP8n5Gjmj3Dll2NQszdSTQST1OcVl/wDCSaN/z/J+Ro/4STRv+f5PyNHNHuHLLsadFZn/AAkmjf8AP8n5Gj/hJNG/5/k/I0c8e4csuxp0Vmf8JJo3/P8AJ+Ro/wCEk0b/AJ/k/I0c8e4csuxp0Vmf8JJo3/P8n5Gj/hJNG/5/k/I0c8e4csuxp02X/US/7jfyrO/4STRv+f5PyNNk8R6OYpFF8mSpA4PpQ5x7hyy7Fr4ef8i/J/13b+Qrfg1S1udTutOjfNxaKrSr6BhkVg/Dz/kX3/67t/IVb0zSLm18Y6zqcgXyLyOFY8dcqCDXAdxv0UUUAFFFFABRRRQAUUUUAFFFFABRRRQAUUUUAFFFFABRRRQAUUUUAFFFFABRRRQAUUUUAFFFFABRRRQAUUUUAFFFFAFHVNZsdHjSS9l8sSHC4BOazP8AhOvD/wDz9t/37NZ3j9Q02kKwBBnIIPfpVo6Zp+T/AKDb/wDfsVpCm5mc5qJP/wAJ14f/AOftv+/Zo/4Trw//AM/bf9+zVf8AszT/APnxt/8Av2KP7M0//nxt/wDv2Kv2D7ke2XYsf8J14f8A+ftv+/Zo/wCE68P/APP23/fs1X/szT/+fG3/AO/Yo/szT/8Anxt/+/Yo9g+4e2XYsf8ACdeH/wDn7b/v2aP+E68P/wDP23/fs1X/ALM0/wD58bf/AL9ij+zNP/58bf8A79ij2D7h7Zdix/wnXh//AJ+2/wC/Zo/4Trw//wA/bf8Afs1X/szT/wDnxt/+/Yo/szT/APnxt/8Av2KPYPuHtl2LH/CdeH/+ftv+/Zo/4Trw/wD8/bf9+zVf+zNP/wCfG3/79ij+zNP/AOfG3/79ij2D7h7Zdix/wnXh/wD5+2/79mj/AITrw/8A8/bf9+zVf+zNP/58bf8A79ij+zNP/wCfG3/79ij2D7h7ZdgvfFvhjULV7a5uC8bjBBjP51wd9qYt/wDQbS7+02cUgkiLjBFd5/Zmn/8APjb/APfsUf2bp/8Az42//fsUewfcPbLsc74e1bR1uzqus3plvOiIUJCCuq/4Trw//wA/bf8Afs1X/szT/wDnxt/+/Yo/szT/APnxt/8Av2KPYPuHtl2LH/CdeH/+ftv+/Zo/4Trw/wD8/bf9+zVf+zNP/wCfG3/79ij+zNP/AOfG3/79ij2D7h7Zdix/wnXh/wD5+2/79mj/AITrw/8A8/bf9+zVf+zNP/58bf8A79ij+zNP/wCfG3/79ij2D7h7Zdix/wAJ14f/AOftv+/Zo/4Trw//AM/bf9+zVf8AszT/APnxt/8Av2KP7M0//nxt/wDv2KPYPuHtl2LH/CdeH/8An7b/AL9mj/hOvD//AD9t/wB+zVf+zNP/AOfG3/79ij+zNP8A+fG3/wC/Yo9g+4e2XYsf8J14f/5+2/79mj/hOvD/APz9t/37NV/7M0//AJ8bf/v2KP7M0/8A58bf/v2KPYPuHtl2LH/CdeH/APn7b/v2aP8AhOvD/wDz9t/37NV/7M0//nxt/wDv2KP7M0//AJ8bf/v2KPYPuHtl2LK+ONAdgou2yf8Apma31YMoZTkEZFee+LLO1t9JR4baKJvOUbkXBxXfWv8Ax6Q/9c1/lWUo8rsaxlzK5LRRRUlBRRRQBHPPHbW8k8zBY4lLOx7ADJognjubeOeFg0cqhkYdwRkVV1uzl1DQr+yhx5txbyRpuOBkqQKi8O213ZeHrG0vYkjnt4EiZUbcPlAGc/hQBcu7K2vovKuoEmTOdrjIzVL/AIRrRP8AoGW//fNZ93qPjBLt0tdBspYA3ySNebSR64xW9C07WqtLGqTFcsgbIB9M0AUf+Ea0T/oGW/8A3zR/wjWif9Ay3/75rON54x+1bRpNj5O/G77Tzt9cYroJDMLYmNVM23hSeM0AUP8AhGtE/wCgZb/980f8I1on/QMt/wDvms+2ufGDXSC40+yWDd8zLNkgVuXpuhaObNUafHyBzgZoAp/8I1on/QMt/wDvmj/hGtE/6Blv/wB81T06XxW14g1C2tEt/wCIxyZNamqG/Fm39mrG1x2EhwKAK/8AwjWif9Ay3/75o/4RrRP+gZb/APfNV9JbxKbv/iaR2ywY6xtk5q3rC6q1so0l4llzz5g4xQAz/hGtE/6Blv8A980f8I1on/QMt/8Avmo9GTXllf8AteSBkx8vlCn6zHrUgj/siaGPH3/MXOaAF/4RrRP+gZb/APfNH/CNaJ/0DLf/AL5pdGj1iON/7XmhkbPyeWuMVDrEXiB50Ok3EEcWPmEi5OaAJf8AhGtE/wCgZb/980f8I1on/QMt/wDvmpdITU0tcarLHJNnrGMDFUNVt/Esl4W02+t4oMcK8eTmgC1/wjWif9Ay3/75o/4RrRP+gZb/APfNWdNS9jskXUJUluB95kGAayL618VveSNZahaxwE/IrRAkUAXv+Ea0T/oGW/8A3zR/wjWif9Ay3/75q7arcLaIty6vOF+ZlGATWDNY+LzdM0WrWqwlsqpgBIHpmgDR/wCEa0T/AKBlv/3zR/wjWif9Ay3/AO+avhZvs20uPO243Y4z61z8dj4vF0Gk1e1MO7JUQDOPSgDR/wCEa0T/AKBlv/3zR/wjWij/AJhsH/fNXrlZ2tXW3kVJivysRkA/SsKysvFkd3G15qttLAD86LAASPrQBvmCIweQUUxbduzHGPSs/wD4RrRP+gZb/wDfNWtRjvJLN1sJkhuD913XcB+FZel2niaK8VtS1K3ngxyiQhT+dAFr/hGtE/6Blv8A980f8I1on/QMt/8AvmptWi1Ka026Xcx28+fvyJuGPpVPR7XxBDcM2q6hBcREcLHFtINAE3/CNaJ/0DLf/vmj/hGtE/6Blv8A980uswavPEg0m7itnB+YyR7simaNb63AZP7XvYbnP3PLj24oAd/wjWif9Ay3/wC+aP8AhGtE/wCgZb/980zWYNdlkjOk3UMKj74kTdmptHi1WK3YatcRTS5+UxrtGKAGf8I1on/QMt/++aP+Ea0T/oGW/wD3zVfV7fxHLdBtLvbeGHH3ZI9xzV/S49QjswupTRyz55ZFwKAIP+Ea0T/oGW//AHzR/wAI1on/AEDLf/vmqepQ+KXvHOn3Vslv/CHTJrYsVuls0F6ytPj5iowM0AU/+Ea0T/oGW/8A3zR/wjWif9Ay3/75rPuoPFxu3Ntd2iwbvlDJzit+ITC1USlTNt5I6ZoAof8ACNaJ/wBAy3/75o/4RrRP+gZb/wDfNZxHjD7V/wAufk7/AF5210EnnfZT5YUzbeM9M0AUP+Ea0T/oGW//AHzR/wAI1on/AEDLf/vms+2bxf8Aak+0RWYg3fMVfnFbl6boWjmzVGnx8gc4BNAFP/hGtE/6Blv/AN80f8I1on/QMt/++ap6dL4qa8QahbWiW/8AEY5MmtTVH1BLNm0yKOW47LI20fnQBX/4RrRP+gZb/wDfNH/CNaJ/0DLf/vmq+kz+JZLvGq2drDBj70Uu45q3rE+rQW6tpFnDdS55WaXYAPrQAz/hGtE/6Blv/wB80f8ACNaJ/wBAy3/75pmjXWvzyONX062tUA+Qwz7yadrV1rluI/7H023vM/f86fy9v6UAXrWzt7KHybWFYo852qMCqtrrMF3rd9pSBhNZKjSE9DvGR/Km6Nc61cRudY0+CzcH5BDN5mf0qDT9FltPFOq6s0gMd9HEqr3XYCD/ADoA2qKKKACiiigAooooAKKKKACiiigAooooAKKKKACiiigAooooAKKKKACiiigAooooAKKKKACiiigAooooAKKKKACiiigDjvHv/Hxo/wD18H+laTfeNZvj3/j40f8A6+D/AErSb7xrpodTmrboSiiiukwCiiigAooooAKKKKACiiigAooooAKKKKACiiigAooooAKKKKACiiigAooooAKKKKACiiigDC8Y/wDIGj/67rXcWv8Ax6Q/9c1/lXD+Mf8AkDR/9d1ruLX/AI9If+ua/wAq4q3xHXS+ElooorI1CiiigAooooAKKKKACiiigAooooAKKKKACiiigAooooAKKKKACiiigAooooAKKKKACiiigAooooAKKKKACiiigAooooAKKKKACiiigAooooAKKKKACiiigAooooAKKKKACiiigAooooAKKKKACiiigAooooAKKKKACiiigAooooAKKKKACiiigAooooAKKKKACiiigAooooAKKKKACiiigAooooAKKKKACiiigAooooA47x7/AMfGj/8AXwf6VpN941m+Pf8Aj40f/r4P9K0m+8a6aHU5q26EooorpMAooooAKKKKAKOsatDo1kJ5EaR5HEcMS9ZHPQe31rNt/El/FqFva63ov9mrdHbDKJxIGf8AunHSrHiYaXJZQwasJBFLMqxyIcbJP4TntWZcrq2h3Ng99qkOr2s04ijhkhVWjPZlI6nFZXfN8/6+ZdlynTrcwMJCs8bCI4kIb7h9/SqGoa7bWD2hJR4brP77eAqgd81z+mMkdh4t3lU/0iQkHj+CqyW9pc6D4UhvMeSyDg9GPYH2ocm7W/u/iNxSvfz/AAVztob6zuLc3NvdwywDrKjgqPxqNNV02WZoI9QtnlQZZFkBYD1Irk7yG3tJ/E1nYxrFbLbqXjjGEVsdh0FNv9C02Ow0Ax2yxu84DyJw8gx0ZupFCm3b5fqv0+4HFL8fyT/U61dUtLi0muLG5t7vylJOyUYyOxPas4+KrWLVtP02fyY5r2IucTAiM9h757ViahbW9h4g1u2s4I7eB9JDNHGoVSeecetQaZaWsms+FHe2hZjp7EsyjJIAx+VOLba/rv8A5DcUk/66JnW6tq40qexiaAy/bLgQgg42Z71Na3pma685Iokt327hKGyMZyf7v0rH8W/8f2g/9hBf5Gsm3t4rm08T28l4tn5moACVjgE4HB+vSi7s/n+n+Ycqsvl+bOvt9V068SR7W/tp1iG6QxyBgg9T6VlaZ4sh1ezW4tI4GP2owOhuACozjd757Cs7SohZ6/FaaloVjYXFxCyxmxk3JKAOd6jisOztreHQtPaKCKNm10glVAJAY4/KiLu18vzsJRVn/XRs9CuNV020fZc6hbQtnGJJADn0qaa5t7e3NxNPHHCBkyO2FH41x1lpdhe6t4pmu7WO4dJMJ5ihgvyZ49DUFowvND8LQXzb7SZmEwflXxnaG/GkpNr7vxBxS/ryudrbX9lejNpdw3AH/PJw1T1y+k2lhZ+OtTisY44h5EZaOPhVP0HSuoq4u6TIkrO39bBRRRVCCiiigAooooAwvGP/ACBo/wDrutdxa/8AHpD/ANc1/lXD+Mf+QNH/ANd1ruLX/j0h/wCua/yrirfEddL4SWiiisjUKKKKACiiigAooooAKKKKACiiigAooooAKKKKACiiigAooooAKKKKACiiigAooooAKKKKACiiigAooooAKKKKACiiigAooooAKKKKACiiigAooooAKKKKACiiigAooooAKKKKACiiigAooooAKKKKACiiigAooooAKKKKACiiigAooooAKKKKACiiigAooooAKKKKACiiigAooooAKKKKACiiigAooooAKKKKACiiigDjvHv/AB8aP/18H+laTfeNZvj3/j40f/r4P9K0m+8a6aHU5q26EooorpMAooooAKKKKAIrq1gvrWS2uYllikGGU/54rN07wpomk3X2mzsysoGAXlZ8fQE8Vr0UrK9x3drGTeeFtEv75r25st87DDMHIDfUDg1LceHtJurGCymtA1vbrtiQMRsHsa0aKXLG1rBzPuULXQdMstNk063tQttKCHUsSW+pPNTSabZyx26SQhltm3RDP3T0qzRTsK5Um0mwuLma5ltw008XkyNn7yelQy+H9KmWzV7QYsMfZsMR5eP51o0UWQ7sr3dha30kD3MIka3kEkRJ+6w71C2h6Y0N1C1opjvH3zgn77evtV6ik0noF2ZuleHNJ0SR5dPtTG7jDM8hc/hnpTU8MaLHM0q2QDPMJz85x5g6NjtWpRTsguytFptnA908UAVrw5nOfvnGP5VmavobPoKaTpVjZPAvHlXTsFUdeCOc5rcoqXFNWGpNO5zvhfw3No0s91dCCOaYBRFbsWRAO+W5JroqKKol6u4UUUUwCiiigAooooAwvGP/ACBo/wDrutdxa/8AHpD/ANc1/lXD+Mf+QNH/ANd1ruLX/j0h/wCua/yrirfEddL4SWiiisjUKKKKACiiigAooooAKKKKACiiigAooooAKKKKACiiigAooooAKKKKACiiigAooooAKKKKACiiigAooooAKKKKACiiigAooooAKKKKACiiigAooooAKKKKACiiigAooooAKKKKACiiigAooooAKKKKACiiigAooooAKKKKACiiigAooooAKKKKACiiigAooooAKKKKACiiigAooooAKKKKACiiigAooooAKKKKACiiigDjvHv/AB8aP/18H+laTfeNZnxBJjOlzFWZY5izYH0qofGOnEk+Rdf98VvRko3uYVYttWN2isL/AITDTv8Anhdf98Uf8Jhp3/PC6/74rf2ke5j7OXY3aKwv+Ew07/nhdf8AfFH/AAmGnf8APC6/74o9pHuHs5djdorC/wCEw07/AJ4XX/fFH/CYad/zwuv++KPaR7h7OXY3aKwv+Ew07/nhdf8AfFH/AAmGnf8APC6/74o9pHuHs5djdorC/wCEw07/AJ4XX/fFH/CYad/zwuv++KPaR7h7OXY3aKwv+Ew07/nhdf8AfFH/AAmGnf8APC6/74o9pHuHs5djdorC/wCEw07/AJ4XX/fFNbxlpq9Ybkf8Ao9pHuHs5djforB/4TDTv+eF1/3xS/8ACYad/wA8Lr/vij2kO4ezl2N2isL/AITDTv8Anhdf98Uf8Jhp3/PC6/74o9pHuHs5djdorC/4TDTv+eF1/wB8Uf8ACYad/wA8Lr/vij2ke4ezl2N2isL/AITDTv8Anhdf98Uf8Jhp3/PC6/74o9pHuHs5djdorC/4TDTv+eF1/wB8Uf8ACYad/wA8Lr/vij2ke4ezl2N2isL/AITDTv8Anhdf98Uf8Jhp3/PC6/74o9pHuHs5djdorC/4TDTv+eF1/wB8Uf8ACYad/wA8Lr/vij2ke4ezl2Dxj/yBo/8Arutdxa/8ekP/AFzX+Veaa9rttq1gltbQzhxKG+deMV6XbDFrCD12L/KuWq05XR0001HUlooorM0CiiigAooooAKKKKACiiigAooooAKKKKACiiigAooooAKKKKACiiigAooooAKKKKACiiigAooooAKKKKACiiigAooooAKKKKACiiigAooooAKKKKACiiigAooooAKKKKACiiigAooooAKKKKACiiigAooooAKKKKACiiigAooooAKKKKACiiigAooooAKKKKACiiigAooooAKKKKACiiigAooooAKKKKACiiigAooooAayI4w6qw9xmmfZ4P8AnjH/AN8ipaKAIvs8H/PGP/vkUfZ4P+eMf/fIqWigCL7PB/zxj/75FH2eD/njH/3yKlooAi+zwf8APGP/AL5FH2eD/njH/wB8ipaKAIvs8H/PGP8A75FH2eD/AJ4x/wDfIqWigCL7PB/zxj/75FH2eD/njH/3yKlooAi+zwf88Y/++RR9ng/54x/98ipaKAIvs8H/ADxj/wC+RXK+Ooo0hsdsaLmcdFFdfXJePP8AU2P/AF3WgDpYLeAwRnyY/uj+EU/7PB/zxj/75FLB/wAe8f8Auj+VSUARfZ4P+eMf/fIo+zwf88Y/++RUtFAEX2eD/njH/wB8ij7PB/zxj/75FS0UARfZ4P8AnjH/AN8ij7PB/wA8Y/8AvkVLRQBF9ng/54x/98ij7PB/zxj/AO+RUtFAEX2eD/njH/3yKPs8H/PGP/vkVLRQBF9ng/54x/8AfIo+zwf88Y/++RUtFAEf2eEHIhj/AO+RUlFFABRRRQAUUUUAFFFFABRRRQAUUUUAFFFFABRRRQAUUUUAFFFFABRRRQAUUUUAFFFFABRRRQAUUUUAFFFFABRRRQAUUUUAFFFFABRRRQAUUUUAFFFFABRRRQAUUUUAFFFFABRRRQAUUUUAFFFFABRRRQAUUUUAFFFFABRRRQAUUUUAFFFFABRRRQAUUUUAFFFFABRRRQAUUUUAFFFFABRRRQAUUUUAFFFFABRRRQAUUUUAFFFFABRRRQAUUUUAFFFFABRRRQAUUUUAFFFFABRRRQAVyXjz/U2P/Xda62uS8ef6mx/67rQB1MH/AB7x/wC6P5VJUcH/AB7x/wC6P5VJQAUUUUAFFFFABRRRQAUUUUAFFFFABRRRQAUUUUAFFFFABRRRQAUUUUAFFFFABRRRQAUUUUAFFFFABRRRQAUUUUAFFFFABRRRQAUUUUAFFFFABRRRQAUUUUAFFFFABRRRQAUUUUAFFFFABRRRQAUUUUAFFFFABRRRQAUUUUAFFFFABRRRQAUUUUAFFFFABRRRQAUUUUAFFFFABRRRQAUUUUAFFFFABRRRQAUUUUAFFFFABRRRQAUUUUAFFFFABRRRQAUUUUAFFFFABRRRQAUUUUAFFFFABRRRQAUUUUAFFFFABRRRQAUUUUAFFFFABXJePP8AU2P/AF3WutrkvHn+psf+u60AdTB/x7x/7o/lUlRwf8e8f+6P5VJQAUUUUAFFFFABRRRQAUUUUAFFFFABRRRQAUUUUAFFFFABRRRQAUUUUAFFFFABRRRQAUUUUAFFFFABRRRQAUUUUAFFFFABRRRQAUUUUAFFFFABRRRQAUUUUAFFFFABRRRQAUUUUAFFFFABRRRQAUUUUAFFFFABRRRQAUUUUAFFFFABRRRQAUUUUAFFFFABRRRQAUUUUAFFFFABRRRQAUUUUAFFFFABRRRQAUUUUAFFFFABRRRQAUUUUAFFFFABRRRQAUUUUAFFFFABRRRQAUUUUAFFFFABRRRQAUUUUAFFFFABRRRQAUUUUAFFFFABXJePP9TY/wDXda62uS8ef6mx/wCu60AdTB/x7x/7o/lUlRwf8e8f+6P5VJQAUUUUAFFFFABRRRQAUUUUAFFFFABRRRQAUUUUAFFFFABRRRQAUUUUAFFFFABRRRQAUUUUAFFFFABRRRQAUUUUAFFFFABRRRQAUUUUAFFFFABRRRQAUUUUAFFFFABRRRQAUUUUAFFFFABRRRQAUUUUAFFFFABRRRQAUUUUAFFFFABRRRQAUUUUAFFFFABRRRQAUUUUAFFFFABRRRQAUUUUAFFFFABRRRQAUUUUAFFFFABRRRQAUUUUAFFFFABRRRQAUUUUAFFFFABRRRQAUUUUAFFFFABRRRQAUUUUAFFFFABRRRQAUUUUAFFFFABXJePP9TY/9d1rra5Lx5/qbH/rutAHUwf8e8f+6P5VJUcH/HvH/uj+VSUAFFFFABRRRQAUUUUAFFFFABRRRQAUUUUAFFFFABRRRQAUUUUAFFFFABRRRQAUUUUAFFFFABRRRQAUUUUAFFFFABRRRQAUUUUAFFFFABRRRQAUUUUAFFFFABRRRQAUUUUAFFFFABRRRQAUUUUAFFFFABRRRQAUUUUAFFFFABRRRQAUUUUAFFFFABRRRQAUUUUAFFFFABRRRQAUUUUAFFFFABRRRQAUUUUAFFFFABRRRQAUUUUAFFFFABRRRQAUUUUAFFFFABRRRQAUUUUAFFFFABRRRQAUUUUAFFFFABRRRQAUUUUAFFFFABRRRQAVyXjz/U2P/Xda62uS8ef6mx/67rQB1MH/AB7x/wC6P5VJUcH/AB7x/wC6P5VJQAUUUUAFFFFABRRRQAUUUUAFFFFABRRRQAUUUUAFFFFABRRRQAUUUUAFFFFABRRRQAUUUUAFFFFABRRRQAUUUUAFFFFABRRRQAUUUUAFFFFABRRRQAUUUUAFFFFABRRRQAUUUUAFFFFABRRRQAUUUUAFFFFABRRRQAUUUUAFFFFABRRRQAUUUUAFFFFABRRRQAUUUUAFFFFABRRRQAUUUUAFFFFABRRRQAUUUUAFFFFABRRRQAUUUUAFFFFABRRRQAUUUUAFFFFABRRRQAUUUUAFFIzBVLMQAOpNZtz4j0i1z5t/DuH8IbJoA06K5qTx9oUbbfNlb3WPNM/4WFofrcf9+/8A69AHUUVy/wDwsLQ/W4/79/8A16P+FhaH63H/AH7/APr0AdRRXL/8LC0P1uP+/f8A9ej/AIWFofrcf9+//r0AdRRXL/8ACwtD9bj/AL9//Xo/4WFofrcf9+//AK9AHUUVy/8AwsLQ/W4/79//AF6P+FhaH63H/fv/AOvQB1FFcv8A8LC0P1uP+/f/ANej/hYWh+tx/wB+/wD69AG3quq2+kWn2m53bNwHyjNc14zuYryx024gcPFJMpVhUtz448O3lu9vOs7xuMMDF/8AXrhL3UEhkNtYTySWaSCSISLypoA9SuNdstOltLOZyZ5gAEUZI+tao5Ga8z8O65o9nO2o6rJPPfNwD5eQg9q6X/hYWh+tx/37/wDr0AdRRXL/APCwtD9bj/v3/wDXo/4WFofrcf8Afv8A+vQB1FFcv/wsLQ/W4/79/wD16P8AhYWh+tx/37/+vQB1FFcv/wALC0P1uP8Av3/9ej/hYWh+tx/37/8Ar0AdRRXL/wDCwtD9bj/v3/8AXo/4WFofrcf9+/8A69AHUUVy/wDwsLQ/W4/79/8A16P+FhaH63H/AH7/APr0AdRRXL/8LC0L+9cf9+v/AK9WbfxroVwQBdeXn/noMUAb9FVrbUbK9/49rqKb/cbNWaACiiigAooooAKKKKACiiigAooooAKKKKACiiigAooooAKKKKACiiigAooooAKKKKACiiigAooooAKKKKACiiigAooooAKKKKACiiigAooooAKKKKACiiigAooooAKKKKACiiigAooooAKKKKACiiigAooooAKKKKACiiigAooooAKKKKACiiigAooooAKKKKACiiigAooooAKKKKACiiigAooooAKKKKACiiigAooqnqep22k2T3V04VF6Dux9BQBZlmjgiaWVwiKMlieBXKah42MsxtdEtjdydPMI+Ue4rLY6l4tm8+7ZrbTwfkiHBaty1s7eyhEVvEsaj0FbQpOWrMp1VHRGM2laxqrB9V1J1XqI4uMe1R3ljomhfZmntHme5mWFWB/iPc10dc34zGRo+P8AoIxfzrdU4prTqjFTlJ6m4bO1gjYraxnaM4CjJptqbe4tEuJLNLbcMlJlUFfr2qXUFYafckgj903P4GuItrGfUPBOiBIRfJHuaawMm1rkZOADnt1pt7/L9SUrpNv+rHX39xYadp01/LDC8UKFm2KpzjsPeo7W7tbtrbyrAGK4h80TbV2r/sn3rkXttNfwprun/wBnT2LQxmVtPmk3CE84YEetSaZaw2OsaRDbR+VGdGd9gJxkgEmlfd/1s2Vy6ff+h23lWe7bstsnoMLk0NDapy8UCZ6blUV5tHpVpB4Di15UZtSSbKXDMdy/vMYHtXTXNhbeIfFhstUTzre2tElihJIBZurcU3fa39WuJxt10/4NjpBBbEZWGFh6hQaPItucQwnHX5RxXP8AgiFLawvIIpGeOO6kVctnAz0qHSCf7T8V5JwHXqenyUnJJX8r/l/mLld2uzt+NjpfJtcZ8qDB6HavNKsFq4ykUDj1VQa85aAXvhvwjbvO0aS3DhmDYyOeM+9bIhXw1qGtWukBo4I7LzkgByInwTkZ9abdm9O/4D5ez/q9jf1O/wBO0qKOSWCKTzJREFjVSQT6irhjswFLR26bhkBgoNcHfaBpkGg6RqsQ8u8uLiN5JdxJlZuSDVnXLfTb28vZI9HudeuYExJiXYtmduQF6Z9ahy5U79H+iGoptW/rU6e81DTrHU7LT5bePzb0sIyFXAwM81dMNoG2mO3DH+EhQfyrz+1sbXVrrwdc30IuJpUbe7k5O0ZGfpVeaK+1W41O+/4R+a9vIbhkt78XCosG0/LwT0FU3yuzXf8AOwcvn/w+v+R6SYLVRl4oFHqygCqNlfaff313Zw2qb7RtrsUXa30rFvYDret6TpWsRb7c2fnyR7uHlBA6jrS+ErG307XdatbV8xJN8qZzs4HFF/ft6/gS1aN/T8TpmhtEGXjt0H+0FFKYLYDJhgA9SoxXN3mnWviLxnPp+qweda2lsjwxFiAWbqeKwbh5Lzw9Y2clw7RJq/2dXU4PlhiAv4UJ36f1ew+Xz/q1z0FYbR/uR27/AO6FNKYLZRloYFHqygCuY02wtdF8dNYadF5FtLZGV4wSQz7sZ5q34ssJr+K1WOBb6ONy0un79rXIxwB9OtO/up2Fb3rf1sa9wLaG1knjtI7jYpIWJVJb2Haqa6ppx1a30x7RY7i4gMwDKvygfwn3rmovstv4W1+zt7O40yWKFmexlk3CHPQqR602x0yyl8XaLcPbK839leaXJOd4AwaLq/l/wGx291/P8LHb+Tabtnl2+7+7hc/lS/Z7f/n3i/74FeZWsWpX1sdXh8PzNqTXG5dUNyqqOcYIJ9K9KupETTpZbiVrdRES8i9YxjkihP3eZoUo2lyjhFZltoS2Lf3QFJ/KgxWa/eS2X/eCivOp47azudMvdM0S5gWa7jA1d5f+PhT1yue/0rRi0Sw1jXPEsmoRG4FvIPKVmOEO3ORip5vdvbv+Fv8AMrk13/q9jtGt7UDLQwgepUAVludHvNYk0o2ivKsYkLrjaQfcVzkM0mqeHvDdheMz2187LcHON4XJAJ/Cr2k6VZaR49urewHlxG3Q+QDkJ1qn8aj0u/wRNmot9f8Ag2NKbwraZLWc0tq3UbGpY9S8SaFzLjULYfmorbopSpRY41ZIsaN4n0/WQEifyp+8T8GtiuJ1PQIL0+fAfs90vKyJxk+9TaF4nuLe7Gk658kvSOc9H+tc06bidMJqR2FFJS1mWFFFFABRRRQAUUUUAFFFFABRRRQAUUUUAFFFFABRRRQAUUUUAFFFFABRRRQAUUUUAFFFFABRRRQAUUUUAFFFFABRRRQAUUUUAFFFFABRRRQAUUUUAFFFFABRRRQAUUUUAFFFFABRRRQAUUUUAFFFFABRRRQAUUUUAFFFFABRRRQAUUUUAFFFFABRRRQAUUUUAFFFFABRRRQAUUUUAFFFFABRRRQAySRYYmkc4VBkn0FcCXfxbrLXc2f7PtmxEnZj61u+OL1rbRPIjYq904jBH61Dplotlp0MCjGFBb3PetaUOZ6mVWXKtC0AFUKoAA4AHais/X9UfRtEudQjhEzQLkIxwG5rJfV/F8Nn9tl0TTPICCRtl0xbb14GOuK6nNI5lFs6as/WtDtNetUt7t5kWNxIjwvtZWHQg0seuaedFi1ea4W3tJVDB5eMZ9ans9QstQtPtdndRz25z+8Q8cdackndPoJXWqMu08J2tpN5o1PVZ8gqUnuiykH2p03hLTJdNtbFXuYVs8+TLDLtkXPX5qtWOv6PqU8kFjqUFxLECXRG5UDrVHQvFljrcmooJoU+wylcq2dyD+M1PuvT5le9uWrPw3p9np9xZAzTrdArNLO++RwexamWXhfTrCWGWOS5keCFoEaWTcQjdR/hVjT9e0jVndNP1GC5eMZZY25FTDU7A2T3ou4vsyEhpc/KpBwarR6i97Ypnw1pp0IaLiX7IDkDf82c7uv1rM8UaXfXtzbNY6TLOYF4nhvfIb/dPqK2rvXNJsWRbvUIIWkAKB25YHoaZeeIdG0+6S1vNTt4J3AKxu3Jz0qZJPqNNrUr+FtGl0TSTDPgSySNIyg525OcZ7n3ovvCmnahqD3zzXcMkgxKkEu1Je3zDvV681fTdPVWvL2GAMu5S7dR61m6x4u07T/Dr6xa3MF1GDtjwxw59KcuV7/10CKk3p1Ker+EEnttF06yRvsNjMzSEyYdVI4IPrmtjStBstIilSFprhp/9ZJcvvdx6E+lSDU4pdEOqWzJNH5JlXaeGwM4rO0LxMdX8MSaxLbrDIisfJVs9OlJuMea/wAwu5JP+u/6jG8D6Q9wszy3jLHJ5scLTfu0b2XtU174R0+9vHuftN7bNKP3iW05RZOMZYd+KPD/AIlTVvDn9s3qR2UYZg+WyFAOM5q9Ya3pWqRySWF/DcpF98xn7v1o5YrQG5X/AAKR8JaX9lsrdGuYlsH3wPHJhlPpn0pL7whpl/qDXkkt3GZMGSGKXbFJj+8verMXiPRJrtLSLVLd55PuRhuWqTUdb0rRyg1K/htTJ90SHGafu7heWw3U9DstUt4oZTLB5OPLkt32OgHYH0pmjeHrDQmmazMzPOd0jyvuLH1Jq41/ZpYm+a5jFqF3GbPy49agsNb0rVH2WGoQ3LYziNsnFOyUvMnXl8iHWPDtlrUkcs01zbyxggS2svlsQexPcUr+HdNeztLTy3WKzlWaPa2CXHc+vvUkWu6TPqLadFqMD3ikgwBvmBHWlvtd0nTGZb7UILcoQGDtyM9KS5Urj97YedLtjrA1bD/aRF5Oc/LtznpUOr6Faa0sX2h54ZITmOa3k2Ov0ND+ItFjmhhfVLdZLgZiUt98e1Tajq2naREkuo3sVqkhwrSHG40NRtZgr30Klv4Y0630y5sN08y3QKzTSybpXB7bqc/hywe5sLkNPHLYII4ikmNy+jeoq2+p2EVml5JdxLbSYKSlvlbPSq0fiPR7i2uZ7XUYJltVJlKt9z60NxW/T9AXM/n+pUfwdpUmoteM91tZ/MNqJf3Bb/cramhjuIHglQNG67WU9CKzPDHiCHxLpCX0RjV9xWSNGzsOf8OapPr+tX93dJoGl2tzBaOYpHuZihLjqFA6ih8sVyjtJu/YVfA2lKyFrrUJI4nDxxPcEohHTA7YrUttGs7SW9liEm6+IM2WznAxx6cVDpGv2uqWkbuRb3DM0bQt1DrwwHqM1am1XT7aKeWe8ijS2OJmY8Rn3otFL+v67CvJsq/8I3p39iR6QFkFvF/q3DfvE5zkN2NM0rwvp+j3r3sElzNcyKFeW4l3swFOl8SaWdFudVtL2C4gtwcurfLu7A1HpnijTr3w5DrVxdQW8LgCQlvljf8Au5o927l1/wAw95o2aKqwapYXVgb+3vIpLQAkzKflGOtQReItFmuXtotUt3mQbmQNyBVNpCszRqjq2lxaraGNxiReY37g0/T9X03VkdtOvYroIcMYznFW6Gk0CbTK/g/WpbhZNKviftdrwCerL611FcBqx/svxBY6pGdoZwkuP4s13yncoYdxmuCUeV2O2MuZXFoooqSgooooAKKKKACiiigAooooAKKKKACiiigAooooAKKKKACiiigAooooAKKKKACiiigAooooAKKKKACiiigAooooAKKKKACiiigAooooAKKKKACiiigAooooAKKKKACiiigAooooAKKKKACiiigAooooAKKKKACiiigAooooAKKKKACiiigAooooAKKKKACiiigAooooAKKKKACiiigAooooA4/4gqfI06THypcZar6sHUMvQjIq54k0w6rok9uvEgG5D7jmue8O6h9r08QyfLPb/I6nrxXRQerRhWWlyv44/wCRO1HnH7vr+Irn9Z0vW9N0i1uz4gv73TtqfbICq7thA6YHSu6ubaC8t3t7mJZoXGGRhwac0UbQmFkUxFduwjjHpWzhuzJTskvU4zxEAU8PDRmsxYjds+0kmDoNu7FFhbEW/iBdT1CxhgnRVkGn7tkBx1GfX2rqG0TSm03+zWsITZZz5GPlzTrTSdOsbJrK0s4obZs7olHBz1o5Xd+f/A/yEpWS8v8AhzlrB5rPVtMiv4NKuUf93bT2JPmLxwX9sVXtZ9NstP8AEb3tos6DUseTHhWOSMfhmus0/wAPaNpNw1xp+mwW0rjDOg5IqQ6NphmuJzYwmS6XbO2OZB70crt/Xe41JX+78DkYnvV8aaULtNLijeGURCwPPTo/vVUXEEXwy1KGSVFk8+UeWT82d/pXY2fhrQ9OlWWz0uCB15DKDkUS+GtDmupLqXSrd55Rh3K8t9aSi7Jf1vcamk0+1v1/zMOyghn8d2xliSQppKFdwyAcjmqeq3RuLbWjo9jpsSRGRbl74nzJGA5Mf9K7VLK1juRdJbos4TyxIByF9PpVO68NaHfXZu7vS7eacjBkYcmiUG1Zef5ijJL8PwOWsIre91nwqJlWZRp7nDc8gCquqJGNN8XRLGnlxzxlUCjCcDoO1d5FpljDJFLFaRo8ClYmA5QHqBQ2mWDLcq1pGRd/68Ef6361TXVef53CM0mvl+BVu/LHhaXytmz7GcbMY+77Vx2lyGDTtN01CwN/BE8YHQ7Tl/0rvYbG0t7IWMNuiWoXaIgPlA9KammWEbW7JaRKbZSsBA/1YPUClKN2/P8A4P8AwCYytFLscXplzZWnhGJbi1Fzv1ORIEJwivuOC3tRbyXi+LLxL4acjHS32DTydh57+9dk2kaa9i9i1lEbVyWaLHyknqahs/Dui6eSbPTIICV2kqO3pSlFtv8ArpYvnX9etzi2tre3+GmlTwwokrTREyAfNkvzzW3qd15viC7t9NstPN9HEhnn1E/u2UjgKPWugOl2DWSWRtIjbRkFIsfKpByMfjUWoaDpGqypNqGnw3Mkf3WccinOLle3f9ELmX9etzitOk8zwfpQuSvkDUmF0FPyBdx/8drXkFgPGdwdOEXmf2Yf9TjHt04zWxfaL/xJ5NP0iGyt1k4dJ4i0bD0wKpeG/Cz6NdveXD2vnFPLRLSMpGq5znB70mnKTv8A1pYHJWb/AK3ucpYW+pS6Np/m3Wi2+LlWMnzfad2eVPua6q2tLa48c6pJcQRyusKD5xkDK+lacfh/RotROpR6bAt4xJMwHzEnrVxbaBLh7lYlE0gAdwOWAoUNFfz/ACsKUrt2/rW5wJsbSH4b6jLHAgfzCQ55IO/se1WdS/tGTxTatCdOZPsC7RqOfLLd8Y74rsDptibN7M2sZtn5aLHynnP86jv9F0zVYI4L+xiuYovuK44X6UODt/XaxXOvz/Fp/ocNdWrL4StoLm4trlH1dP8Aj3z5agt90Z7Ctu9ghg8dQwQwxpG+my7kVQA2D3HeuhOl6ebWK1NnF5EBDRR44QjoRUrWls12t40KG4VCiykchT1FNwv+P5WJ5/6+dzD8BCMeEbXywm7L7guM53HrVSO0sNTvrubTNVuNBu1mKXIVlBlI74bt9K6Oy02x00SCytY7cStvcIMbm9arah4c0XVpxcahpkFzKBt3uDnH4U5pydwTV2c79uuZvDzX0oSSTS7v5p0XHmop5P1PelltEn0WzuJrqG2v7m5+0Qicfu5W/hV/bFdBqWlzz6amnadJBaWxwkqMhOY+4X0NWbnS7G9sUsby2S4t0UAJIOOKnlev9ev36fcPmWnz/wCB+py1vKXXWbS8srAXYtS7S2OTC69hg/xVmOLg6P4UFkbIJ5R8z7T/AKnfjjdjvXd2Gkadpds9tYWUVvDISXRBw1Rf2Bo/9ntp39nQfY3fe0OPlLetNxf5fh/w4KS/P8VY5eCC5i0nxK1xc6e/mIN0Nju8uI+2fX2qXUtLsP7M8OoLWMDzxyBgn5c8nqa6i20nTrOwawtrKKK1bhoVHympXsrWRYleBGWA5iBH3D7Ucu3y/AXN+v4o5+1SOD4i3UcKLEjWMZKoAATk84rpqiFpbC8N4IU+0MoQy4+YqOgqWqirRSJk7u/9bGB4u+e1tIVGXadSBXeQjEKA9lFcLZofEHi2NkybWw5J7MfSu8rjqO8jrpq0RaKKKzNAooooAKKKKACiiigAooooAKKKKACiiigAooooAKKKKACiiigAooooAKKKKACiiigAooooAKKKKACiiigAooooAKKKKACiiigAooooAKKKKACiiigAooooAKKKKACiiigAooooAKKKKACiiigAooooAKKKKACiiigAooooAKKKKACiiigAooooAKKKKACiiigAooooAKKKKACiiigAooooAK4vxJo9zpd//bulpuB/4+IR3Hc12lIQCCCMg9Qaadgaucrpup2+qWwmgYZ/iTupq3VHWfCUsVwdR0KTyJ+rQ/wv9Ko2niNUl+y6rC1ncLwdw+WuqFVPRnLOk1qjcopEdJFDIwZT0INLWxiFFFFMAooooAKKKKACiiigArn9X1+ez1qG3tyvkRFfteVz9/hcHtit93EUbSN91FLH6CuJXw5qutW99qEety2q3pJSBYVYMo+7yeRWU5NPTpqXFK2p1Gra3Z6PEkk4lmMhwkVum929wPSud1Hx5Et5pS2EV0Y7ifZcxm3JdR/dx2bv9KrW2qw29/pWsX7eXa20ElpLOwOEkBA5+uKk1fW7C7v9H1K3VorKLUPnuimEl+U/MO59OaL+9v1/r7ylHTbp+jNrTfENtNeSWst280j3LRRZh2BMDO0nv9atXniDTrGW5inkcPbKpcBc5LdAPUn0rk7eF20nW72FWMtpqbTpgclRgnH1FWIdRnt/DD68bRXlv7gMWmXPkRk8OR6rRzO33fja36/cHKub5mxD4vsLq3umit76GeCIyCGe3Ku49VXvVXQvGEdx4TTV9TScSKxRgsODKc8bB3rG029N34wSRdebWkawkRJRFsEZJ+70qqG8/wAHaNLFfPbDTLl/tcyJua3yTjIPXrS5na/p+bHyrb+tnod3pOu2WswSTQCWHyTiSO4TY6e5HpWDqvjqALFHpqXEcjXIi86aDETjvtbvVbSbb+011u5s9audWmuLTyRcNCI42OOAMd6qahrenSeHNK0hQZL63njSWDYcxEcFjRKT0+X5iUVr8/yPQVJKKT1KgmlpE/1Sf7opa2ZkgooooAKKKKACiiigAooooAKKWql7qdnp8e64mVT2XPJpNpbjSuWqwdU1Sa/uRpGkgyTycSOOiDvTEk1fxO/k2ETWtkThpn4yK67RdBs9Et/Lt13SN9+VvvMa5qlW+kTeFLqxdC0aHRNOW2j+ZzzI/dmrSoornOgKKKKACiiigAooooAKKKKACiiigAooooAKKKKACiiigAooooAKKKKACiiigAooooAKKKKACiiigAooooAKKKKACiiigAooooAKKKKACiiigAooooAKKKKACiiigAooooAKKKKACiiigAooooAKKKKACiiigAooooAKKKKACiiigAooooAKKKKACiiigAooooAKKKKACiiigAooooAKKKKACiiigAooooAKpahpNjqkey7t0k9CRyKu0UAcbP4Ju7N/M0bUni7lJOfwqs0nimxJE+nLPGP40OSf1ru6KpSktmS4p7o4A+J5ojifSLoH2Wj/AISxf+gVd/lXfUVftZk+yicD/wAJYv8A0Crv8qP+EsX/AKBV3+Vd9RR7WYeyicD/AMJYv/QKu/yo/wCEsX/oFXf5V31FHtZh7KJwP/CWL/0Crv8AKj/hLF/6BV3+Vd9RR7WYeyicD/wlif8AQKu/++aB4sQcDSrsD0C131FHtZh7KJ5+fFMJXadGuCvXBjGKP+Eph2hf7GuNo6L5YwPwr0Cil7WQeyicB/wlcYBA0i6APUBBzR/wlcZXadIutv8Ad2DH5V39FHtZB7KJ5+viiBPuaLcL/uxgUf8ACUw4K/2NcYPUbBg/WvQKKPayD2UTgF8VRIMJpFyg9FQAUn/CUQbt39iz7j38sZ/lXoFFHtZB7KJwP/CWL/0Crv8AKj/hLF/6BV3+Vd9RT9rMPZROB/4Sxf8AoFXf5Uf8JYv/AECrv8q76ij2sw9lE4H/AISxf+gVd/lR/wAJYv8A0Crv8q76ij2sw9lE4H/hLF/6BV3+VH/CWL/0Crv8q76ij2sw9lE4A+LB20q7z/u05db1W64s9HlJPTzBXe0tL2s+4eyicMmk+KtTGJpI9PQ9QOeK1NO8Eadav512z3kvUmQ8A+wrpaKhtvctJLYaiLGgRFCqOgAp1FFIYUUUUAFFFFABRRRQAUUUUAFFFFABRRRQAUUUUAFFFFABRRRQAUUUUAFFFFABRRRQAUUUUAFFFFABRRRQAUUUUAFFFFABRRRQAUUUUAFFFFABRRRQAUUUUAFFFFABRRRQAUUUUAFFFFABRRRQAUUUUAFFFFABRRRQAUUUUAFFFFABRRRQAUUUUAFFFFABRRRQAUUUUAFFFFABRRRQAUUUUAFFFFABRRRQAUUUUAFFFFABRRRQAUUUUAFFFFABRRRQAUUUUAFFFFABRRRQAUUUUAFFFFABRRRQAUUUUAFFFFABRRRQAUUUUAFFFFABRRRQAUUUUAFFFFABRRRQAUUUUAFFFFABRRRQAUUUUAFFFFABRRRQAUUUUAFFFFABRRRQAUUUUAFFFFABRRRQAUUUUAFFFFABRRRQAUUUUAFFFFABRRRQAUUUUAFFFFABRRRQAUUUUAFFFFABRRRQAUUUUAFFFFABRRRQAUUUUAFFFFABRRRQAUUUUAFFFFABRRRQAUUUUAFFFFABRRRQAUUUUAFFFFABRRRQAUUUUAFFFFABRRRQAUUUUAFFFFABRRRQAUUUUAFFFFABRRRQAUUUUAFFFFABRRRQAUUUUAFFFFABRRRQAUUUUAFFFFABRRRQAUUUUAFFFFABRRRQAUUUUAFFFFABRRRQAUUUUAFFFFABRRRQAUUUUAFFFFABRRRQAUUUUAFFFFABRRRQAUUUUAFFFFABRRRQAUUUUAFFFFABRRRQAUUUUAFFFFABRRRQAUUUUAFFFFABRRRQAUUUUAFFFFABRRRQB//Z;" vertex="1" parent="1">
          <mxGeometry x="1416" y="138" width="326.01" height="378" as="geometry" />
        </mxCell>
      </root>
    </mxGraphModel>
  </diagram>
</mxfile>
